{
.appVersion = "1350";
classes = (
{
code = "";
name = AllLetters;
},
{
code = "";
name = ArabicJoinLeft;
},
{
code = "";
name = "lam-ar";
},
{
code = "";
name = "alef-ar";
},
{
code = "";
name = "lam_alef-ar.fina";
},
{
code = "";
name = "behDotless-ar.init";
},
{
code = "";
name = "fehDotless-ar";
},
{
code = "";
name = "fehDotless-ar.init";
}
);
copyright = "Copyright © 2019-2020 by Khaled Hosny. All rights reserved.";
customParameters = (
{
name = vendorID;
value = ALIF;
},
{
name = "Use Typo Metrics";
value = 1;
},
{
name = Axes;
value = (
{
Name = Ascender;
Tag = ASCD;
}
);
},
{
name = "Virtual Master";
value = (
{
Axis = Ascender;
Location = 8;
}
);
},
{
name = sampleText;
value = "لما رنا حدثتني النفس قائلة يا ويح جنبك بالسهم المصيب رمي";
},
{
name = "Use Line Breaks";
value = 1;
},
{
name = license;
value = "This program is free software: you can redistribute it and/or modify it under the terms of the GNU Affero General Public License as published by the Free Software Foundation, either version 3 of the License, or (at your option) any later version.\012\012This program is distributed in the hope that it will be useful, but WITHOUT ANY WARRANTY; without even the implied warranty of MERCHANTABILITY or FITNESS FOR A PARTICULAR PURPOSE.  See the GNU Affero General Public License for more details.\012\012You should have received a copy of the GNU Affero General Public License along with this program.  If not, see <https://www.gnu.org/licenses/>";
},
{
name = licenseURL;
value = "https://www.gnu.org/licenses/agpl-3.0.html";
},
{
name = fsType;
value = (
);
},
{
name = "Disable Last Change";
value = 1;
}
);
date = "2020-02-24 14:21:20 +0000";
designer = "Khaled Hosny";
designerURL = "https://aliftype.com";
familyName = "Rana Kufi";
featurePrefixes = (
{
code = "languagesystem DFLT dflt;
languagesystem arab dflt;";
name = Languagesystems;
},
{
code = "lookup teh_alef_first {

glyphs = (
{
glyphname = "hamza-ar";
layers = (
{
layerId = "299DE00D-7BC2-4DFB-A399-2750234EE670";
paths = (
{
closed = 1;
nodes = (
"325 252 OFFCURVE",
"313 275 OFFCURVE",
"274 290 CURVE",
"290 323 OFFCURVE",
"287 366 OFFCURVE",
"268 400 CURVE",
"262 358 OFFCURVE",
"243 323 OFFCURVE",
"179 291 CURVE SMOOTH",
"105 254 OFFCURVE",
"75 179 OFFCURVE",
"100 100 CURVE",
"50 100 LINE",
"50 0 LINE",
"438 0 LINE",
"380 23 OFFCURVE",
"338 85 OFFCURVE",
"338 150 CURVE",
"328 122 OFFCURVE",
"300 100 OFFCURVE",
"268 100 CURVE SMOOTH",
"227 100 OFFCURVE",
"193 134 OFFCURVE",
"193 175 CURVE SMOOTH",
"193 216 OFFCURVE",
"227 250 OFFCURVE",
"268 250 CURVE SMOOTH",
"294 250 OFFCURVE",
"318 236 OFFCURVE",
"331 215 CURVE"
);
}
);
width = 438;
},
{
associatedMasterId = "299DE00D-7BC2-4DFB-A399-2750234EE670";
layerId = "B634354F-84AC-476B-88B7-3B8879B6730D";
name = Short;
paths = (
{
closed = 1;
nodes = (
"280 210 OFFCURVE",
"270 230 OFFCURVE",
"237 242 CURVE",
"250 270 OFFCURVE",
"248 305 OFFCURVE",
"232 334 CURVE",
"227 299 OFFCURVE",
"211 270 OFFCURVE",
"158 243 CURVE SMOOTH",
"96 212 OFFCURVE",
"71 150 OFFCURVE",
"92 84 CURVE",
"50 84 LINE",
"50 0 LINE",
"374 0 LINE",
"325 19 OFFCURVE",
"290 71 OFFCURVE",
"290 125 CURVE",
"282 102 OFFCURVE",
"259 84 OFFCURVE",
"232 84 CURVE SMOOTH",
"198 84 OFFCURVE",
"170 112 OFFCURVE",
"170 146 CURVE SMOOTH",
"170 180 OFFCURVE",
"198 209 OFFCURVE",
"232 209 CURVE SMOOTH",
"254 209 OFFCURVE",
"274 197 OFFCURVE",
"285 180 CURVE"
);
}
);
width = 374;
}
);
unicode = 0621;
},
{
glyphname = "hamza-ar.01.01";
layers = (
{
layerId = "299DE00D-7BC2-4DFB-A399-2750234EE670";
paths = (
{
closed = 1;
nodes = (
"488 0 LINE",
"430 23 OFFCURVE",
"388 85 OFFCURVE",
"388 150 CURVE",
"378 122 OFFCURVE",
"350 100 OFFCURVE",
"318 100 CURVE SMOOTH",
"277 100 OFFCURVE",
"243 134 OFFCURVE",
"243 175 CURVE SMOOTH",
"243 216 OFFCURVE",
"277 250 OFFCURVE",
"318 250 CURVE SMOOTH",
"344 250 OFFCURVE",
"368 236 OFFCURVE",
"381 215 CURVE",
"375 252 OFFCURVE",
"363 275 OFFCURVE",
"324 290 CURVE",
"340 323 OFFCURVE",
"337 366 OFFCURVE",
"318 400 CURVE",
"312 358 OFFCURVE",
"293 323 OFFCURVE",
"229 291 CURVE SMOOTH",
"155 254 OFFCURVE",
"125 179 OFFCURVE",
"150 100 CURVE",
"133 100 OFFCURVE",
"110 122 OFFCURVE",
"100 150 CURVE",
"100 85 OFFCURVE",
"58 23 OFFCURVE",
"0 0 CURVE"
);
}
);
width = 488;
},
{
associatedMasterId = "299DE00D-7BC2-4DFB-A399-2750234EE670";
layerId = "34145C23-9A00-4A6D-B910-69202CFAC217";
name = Short;
paths = (
{
closed = 1;
nodes = (
"406 0 LINE",
"358 19 OFFCURVE",
"323 71 OFFCURVE",
"323 125 CURVE",
"315 102 OFFCURVE",
"291 84 OFFCURVE",
"265 84 CURVE SMOOTH",
"231 84 OFFCURVE",
"202 112 OFFCURVE",
"202 146 CURVE SMOOTH",
"202 180 OFFCURVE",
"231 209 OFFCURVE",
"265 209 CURVE SMOOTH",
"286 209 OFFCURVE",
"306 197 OFFCURVE",
"317 180 CURVE",
"312 210 OFFCURVE",
"302 230 OFFCURVE",
"270 242 CURVE",
"283 270 OFFCURVE",
"281 305 OFFCURVE",
"265 334 CURVE",
"260 299 OFFCURVE",
"244 270 OFFCURVE",
"191 243 CURVE SMOOTH",
"129 212 OFFCURVE",
"104 150 OFFCURVE",
"125 84 CURVE",
"111 84 OFFCURVE",
"91 102 OFFCURVE",
"83 125 CURVE",
"83 71 OFFCURVE",
"48 19 OFFCURVE",
"0 0 CURVE"
);
}
);
width = 406;
}
);
},
{
glyphname = "hamza-ar.01.02";
layers = (
{
layerId = "299DE00D-7BC2-4DFB-A399-2750234EE670";
paths = (
{
closed = 1;
nodes = (
"186 67 LINE",
"176 24 OFFCURVE",
"129 15 OFFCURVE",
"77 23 CURVE",
"98 0 OFFCURVE",
"127 -14 OFFCURVE",
"161 -14 CURVE SMOOTH",
"224 -14 OFFCURVE",
"275 37 OFFCURVE",
"275 100 CURVE SMOOTH",
"275 133 LINE",
"139 133 LINE",
"149 176 OFFCURVE",
"196 185 OFFCURVE",
"248 177 CURVE",
"227 200 OFFCURVE",
"198 214 OFFCURVE",
"164 214 CURVE SMOOTH",
"101 214 OFFCURVE",
"50 163 OFFCURVE",
"50 100 CURVE SMOOTH",
"50 67 LINE"
);
}
);
width = 325;
}
);
},
{
glyphname = "alef-ar";
layers = (
{
anchors = (
{
name = bottom;
position = "{50, 0}";
},
{
name = top;
position = "{-70, 1066}";
}
);
components = (
{
name = _zuluf150;
transform = "{0, 1, 1, 0, 0, 1000}";
}
);
layerId = "299DE00D-7BC2-4DFB-A399-2750234EE670";
paths = (
{
closed = 1;
nodes = (
"100 0 LINE",
"100 1000 LINE",
"0 1000 LINE",
"0 0 LINE"
);
}
);
width = 100;
},
{
anchors = (
{
name = bottom;
position = "{50, 0}";
},
{
name = top;
position = "{-70, 666}";
}
);
associatedMasterId = "299DE00D-7BC2-4DFB-A399-2750234EE670";
components = (
{
name = _zuluf150;
transform = "{0, 1, 1, 0, 0, 600}";
}
);
layerId = "651FD329-8EE0-4515-A46D-7544EF3E1AE8";
name = Short;
paths = (
{
closed = 1;
nodes = (
"100 0 LINE",
"100 600 LINE",
"0 600 LINE",
"0 0 LINE"
);
}
);
visible = 1;
width = 100;
}
);
leftKerningGroup = "straight-l";
rightKerningGroup = "straight-r";
unicode = 0627;
},
{
glyphname = "alef-ar.01.01";
layers = (
{
anchors = (
{
name = bottom;
position = "{50, 0}";
},
{
name = top;
position = "{-70, 1066}";
}
);
components = (
{
name = _deco.09;
transform = "{1, 0, 0, 1, 0, 400}";
},
{
name = _zuluf150;
transform = "{0, 1, 1, 0, 0, 1000}";
}
);
layerId = "299DE00D-7BC2-4DFB-A399-2750234EE670";
paths = (
{
closed = 1;
nodes = (
"100 750 LINE",
"100 1000 LINE",
"0 1000 LINE",
"0 750 LINE"
);
},
{
closed = 1;
nodes = (
"100 0 LINE",
"100 350 LINE",
"0 350 LINE",
"0 0 LINE"
);
}
);
width = 100;
},
{
anchors = (
{
name = bottom;
position = "{50, 0}";
},
{
name = top;
position = "{-70, 666}";
}
);
associatedMasterId = "299DE00D-7BC2-4DFB-A399-2750234EE670";
components = (
{
name = _deco.09.short;
transform = "{1, 0, 0, 1, 0, 200}";
},
{
name = _zuluf150;
transform = "{0, 1, 1, 0, 0, 600}";
}
);
layerId = "651FD329-8EE0-4515-A46D-7544EF3E1AE8";
name = Short;
paths = (
{
closed = 1;
nodes = (
"100 0 LINE",
"100 180 LINE",
"0 180 LINE",
"0 0 LINE"
);
},
{
closed = 1;
nodes = (
"100 440 LINE",
"100 600 LINE",
"0 600 LINE",
"0 440 LINE"
);
}
);
width = 100;
}
);
leftKerningGroup = "straight-l";
rightKerningGroup = "straight-r";
},
{
glyphname = "alef-ar.01.02";
layers = (
{
anchors = (
{
name = bottom;
position = "{50, 0}";
},
{
name = top;
position = "{-70, 1066}";
}
);
components = (
{
name = _zuluf150;
transform = "{0, 1, 1, 0, 0, 1000}";
},
{
name = _deco.11;
transform = "{1, 0, 0, 1, 0, 400}";
}
);
layerId = "299DE00D-7BC2-4DFB-A399-2750234EE670";
paths = (
{
closed = 1;
nodes = (
"100 0 LINE",
"100 420 LINE",
"0 420 LINE",
"0 0 LINE"
);
},
{
closed = 1;
nodes = (
"100 730 LINE",
"100 1000 LINE",
"0 1000 LINE",
"0 730 LINE"
);
}
);
width = 100;
},
{
anchors = (
{
name = bottom;
position = "{50, 0}";
},
{
name = top;
position = "{-70, 666}";
}
);
associatedMasterId = "299DE00D-7BC2-4DFB-A399-2750234EE670";
components = (
{
name = _zuluf150;
transform = "{0, 1, 1, 0, 0, 600}";
},
{
name = _deco.11.short;
transform = "{1, 0, 0, 1, 0, 200}";
}
);
layerId = "651FD329-8EE0-4515-A46D-7544EF3E1AE8";
name = Short;
paths = (
{
closed = 1;
nodes = (
"100 0 LINE",
"100 220 LINE",
"0 220 LINE",
"0 0 LINE"
);
},
{
closed = 1;
nodes = (
"100 500 LINE",
"100 600 LINE",
"0 600 LINE",
"0 500 LINE"
);
}
);
width = 100;
}
);
leftKerningGroup = "straight-l";
rightKerningGroup = "straight-r";
},
{
glyphname = "alef-ar.01.03";
layers = (
{
anchors = (
{
name = bottom;
position = "{50, 0}";
},
{
name = top;
position = "{-70, 1066}";
}
);
components = (
{
name = _deco.17;
transform = "{1, 0, 0, 1, 0, 405}";
},
{
name = _zuluf150;
transform = "{0, 1, 1, 0, 0, 1000}";
}
);
layerId = "299DE00D-7BC2-4DFB-A399-2750234EE670";
paths = (
{
closed = 1;
nodes = (
"100 850 LINE",
"100 1000 LINE",
"0 1000 LINE",
"0 850 LINE"
);
},
{
closed = 1;
nodes = (
"100 0 LINE",
"100 300 LINE",
"0 300 LINE",
"0 0 LINE"
);
}
);
width = 100;
}
);
leftKerningGroup = "straight-l";
rightKerningGroup = "straight-r";
},
{
glyphname = "alef-ar.02.01";
layers = (
{
anchors = (
{
name = bottom;
position = "{170, 0}";
}
);
components = (
{
name = "alef-ar.02.02";
}
);
layerId = "299DE00D-7BC2-4DFB-A399-2750234EE670";
paths = (
{
closed = 1;
nodes = (
"0 50 LINE",
"0 -150 LINE",
"50 -150 OFFCURVE",
"100 -50 OFFCURVE",
"100 0 CURVE",
"100 50 LINE"
);
}
);
width = 250;
}
);
leftMetricsKey = "alef-ar";
rightKerningGroup = "straight-r";
},
{
glyphname = "alef-ar.02.03";
layers = (
{
components = (
{
name = "alef-ar";
},
{
name = _zuluf100;
transform = "{1, 0, 0, 1, 150, 0}";
}
);
layerId = "299DE00D-7BC2-4DFB-A399-2750234EE670";
paths = (
{
closed = 1;
nodes = (
"50 100 LINE",
"50 0 LINE",
"150 0 LINE",
"150 100 LINE"
);
}
);
width = 300;
}
);
leftKerningGroup = "alef-wide";
leftMetricsKey = "alef-ar";
rightKerningGroup = "straight-r";
},
{
glyphname = "alef-ar.02.04";
layers = (
{
components = (
{
name = "alef-ar";
},
{
name = _zuluf100;
transform = "{1, 0, 0, 1, 200, 0}";
}
);
layerId = "299DE00D-7BC2-4DFB-A399-2750234EE670";
paths = (
{
closed = 1;
nodes = (
"50 100 LINE",
"50 0 LINE",
"200 0 LINE",
"200 100 LINE"
);
}
);
width = 350;
}
);
leftKerningGroup = "alef-wide";
leftMetricsKey = "alef-ar";
rightKerningGroup = "straight-r";
},
{
glyphname = "alef-ar.02.06";
layers = (
{
anchors = (
{
name = bottom;
position = "{170, 0}";
}
);
components = (
{
name = "alef-ar.02.07";
}
);
layerId = "299DE00D-7BC2-4DFB-A399-2750234EE670";
paths = (
{
closed = 1;
nodes = (
"0 50 LINE",
"0 -150 LINE",
"50 -150 OFFCURVE",
"100 -50 OFFCURVE",
"100 0 CURVE",
"100 50 LINE"
);
}
);
width = 250;
}
);
leftMetricsKey = "alef-ar";
rightKerningGroup = "straight-r";
},
{
glyphname = "alef-ar.02.08";
layers = (
{
components = (
{
name = "alef-ar.01.01";
},
{
name = _zuluf100;
transform = "{1, 0, 0, 1, 150, 0}";
}
);
layerId = "299DE00D-7BC2-4DFB-A399-2750234EE670";
paths = (
{
closed = 1;
nodes = (
"50 100 LINE",
"50 0 LINE",
"150 0 LINE",
"150 100 LINE"
);
}
);
width = 300;
}
);
leftKerningGroup = "alef-wide";
leftMetricsKey = "alef-ar";
rightKerningGroup = "straight-r";
rightMetricsKey = "alef-ar.02.00";
},
{
glyphname = "alef-ar.02.09";
layers = (
{
components = (
{
name = "alef-ar.01.01";
},
{
name = _zuluf100;
transform = "{1, 0, 0, 1, 200, 0}";
}
);
layerId = "299DE00D-7BC2-4DFB-A399-2750234EE670";
paths = (
{
closed = 1;
nodes = (
"50 100 LINE",
"50 0 LINE",
"200 0 LINE",
"200 100 LINE"
);
}
);
width = 350;
}
);
leftKerningGroup = "alef-wide";
leftMetricsKey = "alef-ar";
rightKerningGroup = "straight-r";
rightMetricsKey = "alef-ar.02.03";
},
{
glyphname = "alef-ar.02.11";
layers = (
{
anchors = (
{
name = bottom;
position = "{170, 0}";
}
);
components = (
{
name = "alef-ar.02.12";
}
);
layerId = "299DE00D-7BC2-4DFB-A399-2750234EE670";
paths = (
{
closed = 1;
nodes = (
"0 50 LINE",
"0 -150 LINE",
"50 -150 OFFCURVE",
"100 -50 OFFCURVE",
"100 0 CURVE",
"100 50 LINE"
);
}
);
width = 250;
}
);
leftMetricsKey = "alef-ar";
rightKerningGroup = "straight-r";
},
{
glyphname = "alef-ar.02.13";
layers = (
{
components = (
{
name = "alef-ar.01.02";
},
{
name = _zuluf100;
transform = "{1, 0, 0, 1, 150, 0}";
}
);
layerId = "299DE00D-7BC2-4DFB-A399-2750234EE670";
paths = (
{
closed = 1;
nodes = (
"50 100 LINE",
"50 0 LINE",
"150 0 LINE",
"150 100 LINE"
);
}
);
width = 300;
}
);
leftKerningGroup = "alef-wide";
leftMetricsKey = "alef-ar";
rightKerningGroup = "straight-r";
rightMetricsKey = "alef-ar.02.00";
},
{
glyphname = "alef-ar.02.14";
layers = (
{
components = (
{
name = "alef-ar.01.02";
},
{
name = _zuluf100;
transform = "{1, 0, 0, 1, 200, 0}";
}
);
layerId = "299DE00D-7BC2-4DFB-A399-2750234EE670";
paths = (
{
closed = 1;
nodes = (
"50 100 LINE",
"50 0 LINE",
"200 0 LINE",
"200 100 LINE"
);
}
);
width = 350;
}
);
leftKerningGroup = "alef-wide";
leftMetricsKey = "alef-ar";
rightKerningGroup = "straight-r";
rightMetricsKey = "alef-ar.02.03";
},
{
glyphname = "alef-ar.02.16";
layers = (
{
anchors = (
{
name = bottom;
position = "{200, 0}";
}
);
components = (
{
name = "alef-ar.02.17";
}
);
layerId = "299DE00D-7BC2-4DFB-A399-2750234EE670";
paths = (
{
closed = 1;
nodes = (
"0 50 LINE",
"0 -150 LINE",
"50 -150 OFFCURVE",
"100 -50 OFFCURVE",
"100 0 CURVE",
"100 50 LINE"
);
}
);
width = 250;
}
);
leftMetricsKey = "alef-ar";
rightKerningGroup = "straight-r";
},
{
glyphname = "alef-ar.02.18";
layers = (
{
components = (
{
name = "alef-ar.01.03";
},
{
name = _zuluf100;
transform = "{1, 0, 0, 1, 150, 0}";
}
);
layerId = "299DE00D-7BC2-4DFB-A399-2750234EE670";
paths = (
{
closed = 1;
nodes = (
"50 100 LINE",
"50 0 LINE",
"150 0 LINE",
"150 100 LINE"
);
}
);
width = 300;
}
);
leftKerningGroup = "alef-wide";
leftMetricsKey = "alef-ar";
rightKerningGroup = "straight-r";
},
{
glyphname = "alef-ar.02.19";
layers = (
{
components = (
{
name = _zuluf100;
transform = "{1, 0, 0, 1, 200, 0}";
},
{
name = "alef-ar.01.03";
}
);
layerId = "299DE00D-7BC2-4DFB-A399-2750234EE670";
paths = (
{
closed = 1;
nodes = (
"50 100 LINE",
"50 0 LINE",
"200 0 LINE",
"200 100 LINE"
);
}
);
width = 350;
}
);
leftKerningGroup = "alef-wide";
leftMetricsKey = "alef-ar";
rightKerningGroup = "straight-r";
},
{
glyphname = "alef-ar.02.21";
layers = (
{
components = (
{
name = "alef-ar.01.04";
},
{
name = _zuluf100;
transform = "{1, 0, 0, 1, 150, 0}";
}
);
layerId = "299DE00D-7BC2-4DFB-A399-2750234EE670";
paths = (
{
closed = 1;
nodes = (
"50 100 LINE",
"50 0 LINE",
"150 0 LINE",
"150 100 LINE"
);
}
);
width = 300;
}
);
leftKerningGroup = "alef-wide";
leftMetricsKey = "alef-ar.01.04";
rightKerningGroup = "straight-r";
rightMetricsKey = "alef-ar.02.00";
},
{
glyphname = "alef-ar.02.22";
layers = (
{
components = (
{
name = "alef-ar.01.04";
},
{
name = _zuluf100;
transform = "{1, 0, 0, 1, 200, 0}";
}
);
layerId = "299DE00D-7BC2-4DFB-A399-2750234EE670";
paths = (
{
closed = 1;
nodes = (
"50 100 LINE",
"50 0 LINE",
"200 0 LINE",
"200 100 LINE"
);
}
);
width = 350;
}
);
leftKerningGroup = "alef-wide";
leftMetricsKey = "alef-ar.01.04";
rightKerningGroup = "straight-r";
rightMetricsKey = "alef-ar.02.03";
},
{
glyphname = "behDotless-ar";
layers = (
{
anchors = (
{
name = bottom;
position = "{450, -50}";
},
{
name = top;
position = "{450, 350}";
}
);
components = (
{
name = _zuluf100;
transform = "{-1, 0, 0, 1, 150, 0}";
},
{
name = _zuluf100;
transform = "{0, 1, -1, 0, 800, 250}";
}
);
layerId = "299DE00D-7BC2-4DFB-A399-2750234EE670";
paths = (
{
closed = 1;
nodes = (
"800 0 LINE",
"800 250 LINE",
"700 250 LINE",
"700 100 LINE",
"150 100 LINE",
"150 0 LINE"
);
}
);
width = 800;
}
);
leftKerningGroup = "straight-l";
unicode = 066E;
},
{
glyphname = "behDotless-ar.01.01";
layers = (
{
anchors = (
{
name = bottom;
position = "{350, -50}";
},
{
name = top;
position = "{450, 350}";
}
);
components = (
{
name = "behDotless-ar.init.01.01";
transform = "{1, 0, 0, 1, 650, 0}";
},
{
name = _zuluf100;
transform = "{-1, 0, 0, 1, 150, 0}";
}
);
layerId = "299DE00D-7BC2-4DFB-A399-2750234EE670";
paths = (
{
closed = 1;
nodes = (
"650 0 LINE",
"651 100 LINE",
"150 100 LINE",
"150 0 LINE"
);
}
);
width = 800;
}
);
leftKerningGroup = "straight-l";
},
{
glyphname = "behDotless-ar.01.02";
layers = (
{
anchors = (
{
name = bottom;
position = "{350, -50}";
},
{
name = top;
position = "{450, 350}";
}
);
components = (
{
name = "behDotless-ar.init.01.02";
transform = "{1, 0, 0, 1, 650, 0}";
},
{
name = _zuluf100;
transform = "{-1, 0, 0, 1, 150, 0}";
}
);
layerId = "299DE00D-7BC2-4DFB-A399-2750234EE670";
paths = (
{
closed = 1;
nodes = (
"650 0 LINE",
"651 100 LINE",
"150 100 LINE",
"150 0 LINE"
);
}
);
width = 800;
}
);
leftKerningGroup = "straight-l";
},
{
glyphname = "behDotless-ar.low";
layers = (
{
anchors = (
{
name = bottom;
position = "{450, -50}";
},
{
name = top;
position = "{450, 350}";
}
);
components = (
{
name = _zuluf100;
transform = "{-1, 0, 0, 1, 150, 0}";
},
{
name = _zuluf100;
transform = "{0, 1, -1, 0, 800, 200}";
}
);
layerId = "299DE00D-7BC2-4DFB-A399-2750234EE670";
paths = (
{
closed = 1;
nodes = (
"800 0 LINE",
"800 200 LINE",
"700 200 LINE",
"700 100 LINE",
"150 100 LINE",
"150 0 LINE"
);
}
);
width = 800;
}
);
leftKerningGroup = "straight-l";
},
{
glyphname = "behDotless-ar.low.01.01";
layers = (
{
anchors = (
{
name = bottom;
position = "{350, -50}";
},
{
name = top;
position = "{450, 350}";
}
);
components = (
{
name = "behDotless-ar.init.low.01.01";
transform = "{1, 0, 0, 1, 650, 0}";
},
{
name = _zuluf100;
transform = "{-1, 0, 0, 1, 150, 0}";
}
);
layerId = "299DE00D-7BC2-4DFB-A399-2750234EE670";
paths = (
{
closed = 1;
nodes = (
"650 0 LINE",
"651 100 LINE",
"150 100 LINE",
"150 0 LINE"
);
}
);
width = 800;
}
);
leftKerningGroup = "straight-l";
},
{
glyphname = "behDotless-ar.low.01.02";
layers = (
{
anchors = (
{
name = bottom;
position = "{350, -50}";
},
{
name = top;
position = "{450, 350}";
}
);
components = (
{
name = "behDotless-ar.init.low.01.02";
transform = "{1, 0, 0, 1, 650, 0}";
},
{
name = _zuluf100;
transform = "{-1, 0, 0, 1, 150, 0}";
}
);
layerId = "299DE00D-7BC2-4DFB-A399-2750234EE670";
paths = (
{
closed = 1;
nodes = (
"650 0 LINE",
"651 100 LINE",
"150 100 LINE",
"150 0 LINE"
);
}
);
width = 800;
}
);
leftKerningGroup = "straight-l";
},
{
glyphname = "behDotless-ar.init";
layers = (
{
anchors = (
{
name = bottom;
position = "{100, -50}";
},
{
name = exit;
position = "{-50, 0}";
},
{
name = top;
position = "{100, 450}";
},
{
name = topV;
position = "{100, 450}";
}
);
components = (
{
name = _zuluf100;
transform = "{0, 1, -1, 0, 150, 250}";
}
);
layerId = "299DE00D-7BC2-4DFB-A399-2750234EE670";
paths = (
{
closed = 1;
nodes = (
"150 0 LINE",
"150 250 LINE",
"50 250 LINE",
"50 100 LINE",
"-50 100 LINE",
"-50 0 LINE"
);
}
);
width = 150;
}
);
leftKerningGroup = "straight-l";
},
{
glyphname = "behDotless-ar.init.01.01";
layers = (
{
anchors = (
{
name = bottom;
position = "{200, -50}";
},
{
name = top;
position = "{100, 450}";
},
{
name = topV;
position = "{100, 450}";
}
);
components = (
{
name = _elbow.1;
transform = "{1, 0, 0, 1, -100, 0}";
},
{
name = _zuluf100;
transform = "{0, 1, -1, 0, 150, 250}";
}
);
layerId = "299DE00D-7BC2-4DFB-A399-2750234EE670";
paths = (
{
closed = 1;
nodes = (
"150 -10 LINE",
"150 0 LINE",
"150 250 LINE",
"50 250 LINE",
"50 -10 LINE"
);
}
);
width = 150;
}
);
leftKerningGroup = "straight-l";
},
{
glyphname = "behDotless-ar.init.01.02";
layers = (
{
anchors = (
{
name = bottom;
position = "{200, -50}";
},
{
name = top;
position = "{100, 450}";
},
{
name = topV;
position = "{100, 450}";
}
);
components = (
{
name = _elbow.2;
transform = "{1, 0, 0, 1, -100, 0}";
},
{
name = _zuluf100;
transform = "{0, 1, -1, 0, 150, 250}";
}
);
layerId = "299DE00D-7BC2-4DFB-A399-2750234EE670";
paths = (
{
closed = 1;
nodes = (
"150 -10 LINE",
"150 0 LINE",
"150 250 LINE",
"50 250 LINE",
"50 -10 LINE"
);
}
);
width = 150;
}
);
leftKerningGroup = "straight-l";
},
{
glyphname = "behDotless-ar.init.behHeh";
layers = (
{
anchors = (
{
name = bottom;
position = "{-125, -50}";
},
{
name = top;
position = "{-146, 666}";
},
{
name = topV;
position = "{-146, 666}";
}
);
components = (
{
name = _zuluf100;
transform = "{0, 1, -1, 0, -96, 466}";
}
);
layerId = "299DE00D-7BC2-4DFB-A399-2750234EE670";
paths = (
{
closed = 1;
nodes = (
"-96 246 LINE",
"-96 466 LINE",
"-196 466 LINE",
"-196 316 LINE"
);
}
);
width = 0;
}
);
leftKerningGroup = "straight-l";
},
{
glyphname = "behDotless-ar.init.low";
layers = (
{
anchors = (
{
name = bottom;
position = "{100, -50}";
},
{
name = top;
position = "{100, 400}";
},
{
name = topV;
position = "{100, 400}";
}
);
components = (
{
name = _zuluf100;
transform = "{0, 1, -1, 0, 150, 200}";
}
);
layerId = "299DE00D-7BC2-4DFB-A399-2750234EE670";
paths = (
{
closed = 1;
nodes = (
"150 0 LINE",
"150 200 LINE",
"50 200 LINE",
"50 100 LINE",
"-50 100 LINE",
"-50 0 LINE"
);
}
);
width = 150;
}
);
leftKerningGroup = "straight-l";
},
{
glyphname = "behDotless-ar.init.low.01.01";
layers = (
{
anchors = (
{
name = bottom;
position = "{200, -50}";
},
{
name = top;
position = "{100, 400}";
},
{
name = topV;
position = "{100, 400}";
}
);
components = (
{
name = _elbow.1;
transform = "{1, 0, 0, 1, -100, 0}";
},
{
name = _zuluf100;
transform = "{0, 1, -1, 0, 150, 200}";
}
);
layerId = "299DE00D-7BC2-4DFB-A399-2750234EE670";
paths = (
{
closed = 1;
nodes = (
"150 -10 LINE",
"150 200 LINE",
"50 200 LINE",
"50 -10 LINE"
);
}
);
width = 150;
}
);
leftKerningGroup = "straight-l";
},
{
glyphname = "behDotless-ar.init.low.01.02";
layers = (
{
anchors = (
{
name = bottom;
position = "{200, -50}";
},
{
name = top;
position = "{100, 400}";
},
{
name = topV;
position = "{100, 400}";
}
);
components = (
{
name = _elbow.2;
transform = "{1, 0, 0, 1, -100, 0}";
},
{
name = _zuluf100;
transform = "{0, 1, -1, 0, 150, 200}";
}
);
layerId = "299DE00D-7BC2-4DFB-A399-2750234EE670";
paths = (
{
closed = 1;
nodes = (
"150 -10 LINE",
"150 200 LINE",
"50 200 LINE",
"50 -10 LINE"
);
}
);
width = 150;
}
);
leftKerningGroup = "straight-l";
},
{
glyphname = "hah-ar";
layers = (
{
anchors = (
{
name = bottom;
position = "{500, -50}";
},
{
name = entry;
position = "{176, 150}";
},
{
name = top;
position = "{50, 500}";
}
);
components = (
{
name = _zuluf100;
transform = "{1, 0, 0, 1, 300, -150}";
}
);
layerId = "299DE00D-7BC2-4DFB-A399-2750234EE670";
paths = (
{
closed = 1;
nodes = (
"300 -150 LINE",
"300 -50 LINE",
"124 -50 LINE SMOOTH",
"111 -50 OFFCURVE",
"100 -39 OFFCURVE",
"100 -25 CURVE SMOOTH",
"100 -11 OFFCURVE",
"111 0 OFFCURVE",
"124 0 CURVE SMOOTH",
"250 0 LINE",
"250 100 LINE",
"126 100 LINE SMOOTH",
"57 100 OFFCURVE",
"0 45 OFFCURVE",
"0 -25 CURVE SMOOTH",
"0 -94 OFFCURVE",
"57 -150 OFFCURVE",
"126 -150 CURVE SMOOTH"
);
},
{
closed = 1;
nodes = (
"-28 398 OFFCURVE",
"-7 365 OFFCURVE",
"0 325 CURVE",
"10 342 OFFCURVE",
"25 350 OFFCURVE",
"39 350 CURVE SMOOTH",
"61 350 OFFCURVE",
"76 342 OFFCURVE",
"87 319 CURVE SMOOTH",
"93 307 OFFCURVE",
"118 237 OFFCURVE",
"125 219 CURVE SMOOTH",
"141 179 OFFCURVE",
"163 137 OFFCURVE",
"187 100 CURVE",
"180 100 LINE",
"180 0 LINE",
"550 0 LINE",
"492 23 OFFCURVE",
"450 85 OFFCURVE",
"450 150 CURVE",
"450 150 OFFCURVE",
"434 100 OFFCURVE",
"369 100 CURVE SMOOTH",
"290 100 OFFCURVE",
"237 208 OFFCURVE",
"219 255 CURVE SMOOTH",
"204 295 OFFCURVE",
"192 329 OFFCURVE",
"177 361 CURVE SMOOTH",
"150 419 OFFCURVE",
"104 449 OFFCURVE",
"44 449 CURVE SMOOTH",
"17 449 OFFCURVE",
"-28 438 OFFCURVE",
"-58 425 CURVE"
);
}
);
width = 550;
},
{
associatedMasterId = "299DE00D-7BC2-4DFB-A399-2750234EE670";
layerId = "14731871-79B7-49C2-81D6-77AE47098CE6";
name = "Oct 21 19, 23:20";
paths = (
{
closed = 0;
nodes = (
"-9 640 LINE",
"441 -140 LINE"
);
},
{
closed = 0;
nodes = (
"-124 640 LINE",
"326 -140 LINE"
);
},
{
closed = 0;
nodes = (
"-182 640 LINE",
"268 -140 LINE"
);
},
{
closed = 0;
nodes = (
"-200 450 LINE",
"650 450 LINE"
);
},
{
closed = 0;
nodes = (
"-200 425 LINE",
"650 425 LINE"
);
},
{
closed = 0;
nodes = (
"-200 350 LINE",
"650 350 LINE"
);
},
{
closed = 0;
nodes = (
"-200 325 LINE",
"650 325 LINE"
);
},
{
closed = 0;
nodes = (
"-99 640 LINE",
"351 -140 LINE"
);
},
{
closed = 0;
nodes = (
"250 92 LINE",
"219 131 OFFCURVE",
"188 185 OFFCURVE",
"168 237 CURVE SMOOTH",
"152 278 OFFCURVE",
"142 310 OFFCURVE",
"128 340 CURVE SMOOTH",
"109 380 OFFCURVE",
"82 399 OFFCURVE",
"40 399 CURVE SMOOTH",
"18 399 OFFCURVE",
"-3 393 OFFCURVE",
"-25 383 CURVE SMOOTH"
);
},
{
closed = 1;
nodes = (
"18 346 OFFCURVE",
"30 349 OFFCURVE",
"44 349 CURVE SMOOTH",
"66 349 OFFCURVE",
"76 342 OFFCURVE",
"87 319 CURVE SMOOTH",
"95 302 OFFCURVE",
"100 284 OFFCURVE",
"109 261 CURVE SMOOTH",
"114 248 OFFCURVE",
"119 234 OFFCURVE",
"125 219 CURVE SMOOTH",
"147 164 OFFCURVE",
"180 104 OFFCURVE",
"215 61 CURVE",
"293 123 LINE",
"264 160 OFFCURVE",
"237 208 OFFCURVE",
"219 255 CURVE SMOOTH",
"204 295 OFFCURVE",
"192 329 OFFCURVE",
"177 361 CURVE SMOOTH",
"150 419 OFFCURVE",
"104 449 OFFCURVE",
"44 449 CURVE SMOOTH",
"17 449 OFFCURVE",
"-12 442 OFFCURVE",
"-42 429 CURVE",
"-28 398 OFFCURVE",
"-14 368 OFFCURVE",
"0 337 CURVE"
);
}
);
visible = 1;
width = 550;
}
);
leftKerningGroup = hah;
rightKerningGroup = "straight-r";
unicode = 062D;
},
{
glyphname = "hah-ar.01.01";
layers = (
{
anchors = (
{
name = bottom;
position = "{500, -50}";
},
{
name = entry;
position = "{176, 150}";
},
{
name = top;
position = "{50, 500}";
}
);
components = (
{
name = _zuluf100;
transform = "{1, 0, 0, 1, 300, -150}";
}
);
layerId = "299DE00D-7BC2-4DFB-A399-2750234EE670";
paths = (
{
closed = 1;
nodes = (
"300 -150 LINE",
"300 -50 LINE",
"124 -50 LINE SMOOTH",
"111 -50 OFFCURVE",
"100 -39 OFFCURVE",
"100 -25 CURVE SMOOTH",
"100 -11 OFFCURVE",
"111 0 OFFCURVE",
"124 0 CURVE SMOOTH",
"250 0 LINE",
"250 100 LINE",
"126 100 LINE SMOOTH",
"57 100 OFFCURVE",
"0 45 OFFCURVE",
"0 -25 CURVE SMOOTH",
"0 -94 OFFCURVE",
"57 -150 OFFCURVE",
"126 -150 CURVE SMOOTH"
);
},
{
closed = 1;
nodes = (
"-28 398 OFFCURVE",
"-7 365 OFFCURVE",
"0 325 CURVE",
"10 342 OFFCURVE",
"25 350 OFFCURVE",
"39 350 CURVE SMOOTH",
"61 350 OFFCURVE",
"76 342 OFFCURVE",
"87 319 CURVE SMOOTH",
"93 307 OFFCURVE",
"118 237 OFFCURVE",
"125 219 CURVE SMOOTH",
"141 179 OFFCURVE",
"163 137 OFFCURVE",
"187 100 CURVE",
"180 100 LINE",
"180 0 LINE",
"695 0 LINE",
"637 23 OFFCURVE",
"595 85 OFFCURVE",
"595 150 CURVE",
"595 150 OFFCURVE",
"578 95 OFFCURVE",
"445 95 CURVE SMOOTH",
"271 95 OFFCURVE",
"237 208 OFFCURVE",
"219 255 CURVE SMOOTH",
"204 295 OFFCURVE",
"192 329 OFFCURVE",
"177 361 CURVE SMOOTH",
"150 419 OFFCURVE",
"104 449 OFFCURVE",
"44 449 CURVE SMOOTH",
"17 449 OFFCURVE",
"-28 438 OFFCURVE",
"-58 425 CURVE"
);
}
);
width = 695;
},
{
associatedMasterId = "299DE00D-7BC2-4DFB-A399-2750234EE670";
layerId = "C8D5D10F-5B8D-400F-8B5E-C2D5A0AF9A9C";
name = "Dec 14 19, 16:14";
paths = (
{
closed = 1;
nodes = (
"350 -1 LINE",
"350 -1 OFFCURVE",
"350 -50 OFFCURVE",
"300 -50 CURVE",
"124 -50 LINE",
"111 -50 OFFCURVE",
"100 -40 OFFCURVE",
"100 -25 CURVE",
"100 -11 OFFCURVE",
"111 -1 OFFCURVE",
"124 -1 CURVE",
"695 -1 LINE",
"637 23 OFFCURVE",
"595 84 OFFCURVE",
"595 149 CURVE",
"595 149 OFFCURVE",
"569 96 OFFCURVE",
"463 95 CURVE",
"301 94 OFFCURVE",
"258 154 OFFCURVE",
"219 254 CURVE",
"203 293 OFFCURVE",
"192 329 OFFCURVE",
"177 360 CURVE",
"149 418 OFFCURVE",
"104 448 OFFCURVE",
"44 448 CURVE",
"17 448 OFFCURVE",
"-29 438 OFFCURVE",
"-58 424 CURVE",
"-29 398 OFFCURVE",
"-7 365 OFFCURVE",
"0 324 CURVE",
"10 342 OFFCURVE",
"25 350 OFFCURVE",
"39 350 CURVE",
"61 350 OFFCURVE",
"76 342 OFFCURVE",
"86 318 CURVE",
"93 306 OFFCURVE",
"118 236 OFFCURVE",
"125 218 CURVE",
"141 178 OFFCURVE",
"163 136 OFFCURVE",
"187 100 CURVE",
"126 100 LINE",
"57 100 OFFCURVE",
"0 45 OFFCURVE",
"0 -25 CURVE",
"0 -94 OFFCURVE",
"57 -150 OFFCURVE",
"126 -150 CURVE",
"450 -150 LINE",
"392 -128 OFFCURVE",
"350 -66 OFFCURVE",
"350 -1 CURVE"
);
}
);
visible = 1;
width = 695;
}
);
leftKerningGroup = hah;
rightKerningGroup = "straight-r";
},
{
glyphname = "hah-ar.fina";
layers = (
{
anchors = (
{
name = bottom;
position = "{474, -50}";
},
{
name = top;
position = "{50, 500}";
}
);
components = (
{
name = _zuluf100;
transform = "{1, 0, 0, 1, 300, -150}";
}
);
layerId = "299DE00D-7BC2-4DFB-A399-2750234EE670";
paths = (
{
closed = 1;
nodes = (
"300 -150 LINE",
"300 -50 LINE",
"124 -50 LINE SMOOTH",
"111 -50 OFFCURVE",
"100 -39 OFFCURVE",
"100 -25 CURVE SMOOTH",
"100 -11 OFFCURVE",
"111 0 OFFCURVE",
"124 0 CURVE SMOOTH",
"250 0 LINE",
"250 100 LINE",
"126 100 LINE SMOOTH",
"57 100 OFFCURVE",
"0 45 OFFCURVE",
"0 -25 CURVE SMOOTH",
"0 -94 OFFCURVE",
"57 -150 OFFCURVE",
"126 -150 CURVE SMOOTH"
);
},
{
closed = 1;
nodes = (
"370 100 LINE",
"291 100 OFFCURVE",
"237 208 OFFCURVE",
"219 255 CURVE SMOOTH",
"204 295 OFFCURVE",
"192 329 OFFCURVE",
"177 361 CURVE SMOOTH",
"150 419 OFFCURVE",
"104 449 OFFCURVE",
"44 449 CURVE SMOOTH",
"17 449 OFFCURVE",
"-28 438 OFFCURVE",
"-58 425 CURVE",
"-28 398 OFFCURVE",
"-7 365 OFFCURVE",
"0 325 CURVE",
"10 342 OFFCURVE",
"25 350 OFFCURVE",
"39 350 CURVE SMOOTH",
"61 350 OFFCURVE",
"76 342 OFFCURVE",
"87 319 CURVE SMOOTH",
"93 307 OFFCURVE",
"118 237 OFFCURVE",
"125 219 CURVE SMOOTH",
"141 179 OFFCURVE",
"163 137 OFFCURVE",
"187 100 CURVE",
"180 100 LINE",
"180 0 LINE",
"370 0 LINE"
);
}
);
width = 370;
},
{
associatedMasterId = "299DE00D-7BC2-4DFB-A399-2750234EE670";
hints = (
{
origin = "{0, 8}";
scale = "{1, -1}";
type = Corner;
name = _corner.100;
options = 1;
}
);
layerId = "D68B5234-B2C5-4A0A-844C-707699F35AAD";
name = "Oct 21 19, 22:38";
paths = (
{
closed = 1;
nodes = (
"124 0 LINE SMOOTH",
"111 0 OFFCURVE",
"100 -11 OFFCURVE",
"100 -25 CURVE",
"100 -39 OFFCURVE",
"111 -50 OFFCURVE",
"124 -50 CURVE SMOOTH",
"300 -50 LINE",
"300 -150 LINE",
"126 -150 LINE SMOOTH",
"57 -150 OFFCURVE",
"0 -94 OFFCURVE",
"0 -25 CURVE",
"0 45 OFFCURVE",
"57 100 OFFCURVE",
"126 100 CURVE",
"250 100 LINE",
"250 0 LINE"
);
},
{
closed = 1;
nodes = (
"200 0 LINE",
"200 100 LINE",
"450 100 LINE",
"450 0 LINE"
);
},
{
closed = 0;
nodes = (
"-9 640 LINE",
"441 -140 LINE"
);
},
{
closed = 0;
nodes = (
"-124 640 LINE",
"326 -140 LINE"
);
},
{
closed = 0;
nodes = (
"-182 640 LINE",
"268 -140 LINE"
);
},
{
closed = 0;
nodes = (
"-200 450 LINE",
"650 450 LINE"
);
},
{
closed = 0;
nodes = (
"-200 425 LINE",
"650 425 LINE"
);
},
{
closed = 0;
nodes = (
"-200 350 LINE",
"650 350 LINE"
);
},
{
closed = 0;
nodes = (
"-200 325 LINE",
"650 325 LINE"
);
},
{
closed = 0;
nodes = (
"-99 640 LINE",
"351 -140 LINE"
);
},
{
closed = 0;
nodes = (
"250 92 LINE",
"219 131 OFFCURVE",
"188 185 OFFCURVE",
"168 237 CURVE SMOOTH",
"152 278 OFFCURVE",
"142 310 OFFCURVE",
"128 340 CURVE SMOOTH",
"109 380 OFFCURVE",
"82 399 OFFCURVE",
"40 399 CURVE SMOOTH",
"18 399 OFFCURVE",
"-3 393 OFFCURVE",
"-25 383 CURVE SMOOTH"
);
},
{
closed = 1;
nodes = (
"18 346 OFFCURVE",
"30 349 OFFCURVE",
"44 349 CURVE SMOOTH",
"66 349 OFFCURVE",
"76 342 OFFCURVE",
"87 319 CURVE SMOOTH",
"95 302 OFFCURVE",
"100 284 OFFCURVE",
"109 261 CURVE SMOOTH",
"114 248 OFFCURVE",
"119 234 OFFCURVE",
"125 219 CURVE SMOOTH",
"147 164 OFFCURVE",
"180 104 OFFCURVE",
"215 61 CURVE",
"293 123 LINE",
"264 160 OFFCURVE",
"237 208 OFFCURVE",
"219 255 CURVE SMOOTH",
"204 295 OFFCURVE",
"192 329 OFFCURVE",
"177 361 CURVE SMOOTH",
"150 419 OFFCURVE",
"104 449 OFFCURVE",
"44 449 CURVE SMOOTH",
"17 449 OFFCURVE",
"-12 442 OFFCURVE",
"-42 429 CURVE",
"-28 398 OFFCURVE",
"-14 368 OFFCURVE",
"0 337 CURVE"
);
}
);
visible = 1;
width = 370;
}
);
rightKerningGroup = "straight-r";
},
{
glyphname = "hah-ar.medi";
layers = (
{
anchors = (
{
name = bottom;
position = "{125, -50}";
},
{
name = top;
position = "{0, 600}";
}
);
layerId = "299DE00D-7BC2-4DFB-A399-2750234EE670";
paths = (
{
closed = 1;
nodes = (
"239 90 LINE",
"192 101 OFFCURVE",
"161 127 OFFCURVE",
"161 181 CURVE SMOOTH",
"161 236 OFFCURVE",
"200 300 OFFCURVE",
"200 377 CURVE SMOOTH",
"200 470 OFFCURVE",
"128 550 OFFCURVE",
"40 550 CURVE",
"-150 550 LINE",
"-113 500 OFFCURVE",
"-97 450 OFFCURVE",
"-100 400 CURVE",
"-92 416 OFFCURVE",
"-64 450 OFFCURVE",
"-25 450 CURVE SMOOTH",
"-12 450 OFFCURVE",
"-7 450 OFFCURVE",
"10 450 CURVE",
"53 450 OFFCURVE",
"100 419 OFFCURVE",
"100 376 CURVE SMOOTH",
"100 312 OFFCURVE",
"59 261 OFFCURVE",
"59 181 CURVE SMOOTH",
"59 136 OFFCURVE",
"71 108 OFFCURVE",
"88 90 CURVE"
);
},
{
closed = 1;
nodes = (
"200 0 LINE",
"200 100 LINE",
"-50 100 LINE",
"-50 0 LINE"
);
}
);
width = 200;
}
);
},
{
glyphname = "hah-ar.medi.01.01";
layers = (
{
anchors = (
{
name = bottom;
position = "{232, -50}";
},
{
name = top;
position = "{108, 500}";
}
);
layerId = "299DE00D-7BC2-4DFB-A399-2750234EE670";
paths = (
{
closed = 1;
nodes = (
"428 100 LINE",
"349 100 OFFCURVE",
"295 208 OFFCURVE",
"277 255 CURVE SMOOTH",
"262 295 OFFCURVE",
"250 329 OFFCURVE",
"235 361 CURVE SMOOTH",
"208 419 OFFCURVE",
"162 449 OFFCURVE",
"102 449 CURVE SMOOTH",
"75 449 OFFCURVE",
"30 438 OFFCURVE",
"0 425 CURVE",
"30 398 OFFCURVE",
"51 365 OFFCURVE",
"58 325 CURVE",
"68 342 OFFCURVE",
"83 350 OFFCURVE",
"97 350 CURVE SMOOTH",
"119 350 OFFCURVE",
"134 342 OFFCURVE",
"145 319 CURVE SMOOTH",
"151 307 OFFCURVE",
"176 237 OFFCURVE",
"183 219 CURVE SMOOTH",
"199 179 OFFCURVE",
"221 137 OFFCURVE",
"245 100 CURVE",
"-50 100 LINE",
"-50 0 LINE",
"428 0 LINE"
);
}
);
width = 428;
}
);
},
{
glyphname = "hah-ar.medi.01.02";
layers = (
{
anchors = (
{
name = bottom;
position = "{278, -50}";
},
{
name = top;
position = "{66, 500}";
}
);
layerId = "299DE00D-7BC2-4DFB-A399-2750234EE670";
paths = (
{
closed = 1;
nodes = (
"513 -150 LINE",
"233 334 LINE SMOOTH",
"167 447 OFFCURVE",
"96 467 OFFCURVE",
"0 439 CURVE",
"30 412 OFFCURVE",
"48 386 OFFCURVE",
"55 346 CURVE",
"72 354 OFFCURVE",
"105 357 OFFCURVE",
"122 327 CURVE SMOOTH",
"398 -150 LINE"
);
},
{
closed = 1;
nodes = (
"403 0 LINE",
"403 100 LINE",
"-50 100 LINE",
"-50 0 LINE"
);
}
);
width = 403;
},
{
associatedMasterId = "299DE00D-7BC2-4DFB-A399-2750234EE670";
layerId = "8F91894D-0163-416E-AADA-8EC1CBE9D10B";
name = "Oct 21 19, 23:31";
paths = (
{
closed = 0;
nodes = (
"-45 640 LINE",
"405 -140 LINE"
);
},
{
closed = 0;
nodes = (
"-218 640 LINE",
"232 -140 LINE"
);
},
{
closed = 0;
nodes = (
"-236 450 LINE",
"614 450 LINE"
);
},
{
closed = 0;
nodes = (
"-236 350 LINE",
"614 350 LINE"
);
},
{
closed = 0;
nodes = (
"-160 640 LINE",
"290 -140 LINE"
);
}
);
visible = 1;
width = 403;
}
);
},
{
glyphname = "hah-ar.medi.01.03";
layers = (
{
anchors = (
{
name = bottom;
position = "{75, -50}";
},
{
name = top;
position = "{-7, 983}";
}
);
layerId = "299DE00D-7BC2-4DFB-A399-2750234EE670";
paths = (
{
closed = 1;
nodes = (
"142 0 OFFCURVE",
"148 187 OFFCURVE",
"147 231 CURVE SMOOTH",
"142 464 OFFCURVE",
"236 766 OFFCURVE",
"213 967 CURVE SMOOTH",
"201 1072 OFFCURVE",
"119 1200 OFFCURVE",
"-10 1200 CURVE SMOOTH",
"-150 1200 LINE",
"-113 1150 OFFCURVE",
"-97 1100 OFFCURVE",
"-100 1050 CURVE",
"-92 1066 OFFCURVE",
"-64 1097 OFFCURVE",
"-25 1100 CURVE SMOOTH",
"59 1107 OFFCURVE",
"109 1025 OFFCURVE",
"117 966 CURVE SMOOTH",
"145 763 OFFCURVE",
"53 475 OFFCURVE",
"59 231 CURVE SMOOTH",
"63 68 OFFCURVE",
"119 -99 OFFCURVE",
"250 -150 CURVE"
);
},
{
closed = 1;
nodes = (
"240 0 LINE",
"240 100 LINE",
"-50 100 LINE",
"-50 0 LINE"
);
}
);
width = 240;
},
{
anchors = (
{
name = bottom;
position = "{75, -50}";
},
{
name = top;
position = "{-7, 583}";
}
);
associatedMasterId = "299DE00D-7BC2-4DFB-A399-2750234EE670";
layerId = "68A4F295-5F80-420F-9561-6A58F6704851";
name = Short;
paths = (
{
closed = 1;
nodes = (
"142 0 OFFCURVE",
"149 187 OFFCURVE",
"149 193 CURVE SMOOTH",
"146 335 OFFCURVE",
"186 440 OFFCURVE",
"192 568 CURVE SMOOTH",
"198 703 OFFCURVE",
"119 800 OFFCURVE",
"-10 800 CURVE SMOOTH",
"-150 800 LINE",
"-113 750 OFFCURVE",
"-97 700 OFFCURVE",
"-100 650 CURVE",
"-92 666 OFFCURVE",
"-64 697 OFFCURVE",
"-25 700 CURVE SMOOTH",
"59 706 OFFCURVE",
"98 656 OFFCURVE",
"97 562 CURVE SMOOTH",
"95 437 OFFCURVE",
"54 346 OFFCURVE",
"59 208 CURVE SMOOTH",
"65 68 OFFCURVE",
"119 -99 OFFCURVE",
"250 -150 CURVE"
);
},
{
closed = 1;
nodes = (
"240 0 LINE",
"240 100 LINE",
"-20 100 LINE",
"-20 0 LINE"
);
}
);
visible = 1;
width = 240;
}
);
},
{
glyphname = "hah-ar.init";
layers = (
{
anchors = (
{
name = entry;
position = "{150, 150}";
}
);
components = (
{
name = "hah-ar.medi";
},
{
name = _zuluf100;
transform = "{1, 0, 0, 1, 300, 0}";
}
);
layerId = "299DE00D-7BC2-4DFB-A399-2750234EE670";
paths = (
{
closed = 1;
nodes = (
"300 0 LINE",
"300 100 LINE",
"200 100 LINE",
"200 0 LINE"
);
}
);
width = 450;
}
);
leftKerningGroup = hah;
},
{
glyphname = "hah-ar.init.01.01";
layers = (
{
anchors = (
{
name = bottom;
position = "{308, -50}";
},
{
name = entry;
position = "{227, 150}";
},
{
name = top;
position = "{108, 500}";
}
);
layerId = "299DE00D-7BC2-4DFB-A399-2750234EE670";
paths = (
{
closed = 1;
nodes = (
"30 398 OFFCURVE",
"51 365 OFFCURVE",
"58 325 CURVE",
"68 342 OFFCURVE",
"83 350 OFFCURVE",
"97 350 CURVE SMOOTH",
"119 350 OFFCURVE",
"134 342 OFFCURVE",
"145 319 CURVE SMOOTH",
"151 307 OFFCURVE",
"176 237 OFFCURVE",
"183 219 CURVE SMOOTH",
"199 179 OFFCURVE",
"221 137 OFFCURVE",
"245 100 CURVE",
"-50 100 LINE",
"-50 0 LINE",
"608 0 LINE",
"550 23 OFFCURVE",
"508 85 OFFCURVE",
"508 150 CURVE",
"508 150 OFFCURVE",
"492 100 OFFCURVE",
"427 100 CURVE SMOOTH",
"348 100 OFFCURVE",
"295 208 OFFCURVE",
"277 255 CURVE SMOOTH",
"262 295 OFFCURVE",
"250 329 OFFCURVE",
"235 361 CURVE SMOOTH",
"208 419 OFFCURVE",
"162 449 OFFCURVE",
"102 449 CURVE SMOOTH",
"75 449 OFFCURVE",
"30 438 OFFCURVE",
"0 425 CURVE"
);
}
);
width = 608;
}
);
leftKerningGroup = hah;
},
{
glyphname = "hah-ar.init.01.02";
layers = (
{
anchors = (
{
name = entry;
position = "{225, 150}";
}
);
components = (
{
name = _zuluf100;
transform = "{1, 0, 0, 1, 476, 0}";
},
{
name = "hah-ar.medi.01.02";
}
);
layerId = "299DE00D-7BC2-4DFB-A399-2750234EE670";
paths = (
{
closed = 1;
nodes = (
"366 0 LINE",
"476 0 LINE",
"476 100 LINE",
"366 100 LINE"
);
}
);
width = 626;
}
);
leftKerningGroup = hah;
},
{
glyphname = "hah-ar.init.narrow";
layers = (
{
anchors = (
{
name = bottom;
position = "{125, -50}";
},
{
name = entry;
position = "{150, 150}";
},
{
name = top;
position = "{0, 600}";
}
);
components = (
{
name = _zuluf100;
transform = "{1, 0, 0, 1, 230, 0}";
}
);
layerId = "299DE00D-7BC2-4DFB-A399-2750234EE670";
paths = (
{
closed = 1;
nodes = (
"230 100 LINE",
"196 100 OFFCURVE",
"161 127 OFFCURVE",
"161 181 CURVE SMOOTH",
"161 236 OFFCURVE",
"200 300 OFFCURVE",
"200 377 CURVE SMOOTH",
"200 470 OFFCURVE",
"128 550 OFFCURVE",
"40 550 CURVE",
"-150 550 LINE",
"-113 500 OFFCURVE",
"-97 450 OFFCURVE",
"-100 400 CURVE",
"-92 416 OFFCURVE",
"-64 450 OFFCURVE",
"-25 450 CURVE SMOOTH",
"-12 450 OFFCURVE",
"-7 450 OFFCURVE",
"10 450 CURVE",
"53 450 OFFCURVE",
"100 419 OFFCURVE",
"100 376 CURVE SMOOTH",
"100 312 OFFCURVE",
"59 261 OFFCURVE",
"59 181 CURVE SMOOTH",
"59 136 OFFCURVE",
"71 108 OFFCURVE",
"88 90 CURVE"
);
},
{
closed = 1;
nodes = (
"230 0 LINE",
"230 100 LINE",
"-50 100 LINE",
"-50 0 LINE"
);
}
);
width = 380;
}
);
leftKerningGroup = hah;
},
{
glyphname = "dal-ar";
layers = (
{
components = (
{
name = "-dal";
},
{
name = _zuluf100;
transform = "{0, 1, 1, 0, 0, 400}";
}
);
layerId = "299DE00D-7BC2-4DFB-A399-2750234EE670";
paths = (
{
closed = 1;
nodes = (
"0 200 LINE",
"100 200 LINE",
"100 400 LINE",
"0 400 LINE"
);
}
);
width = 800;
}
);
leftKerningGroup = "straight-l";
rightKerningGroup = "straight-r";
unicode = 062F;
},
{
glyphname = "dal-ar.02.00";
layers = (
{
components = (
{
name = "-dal";
},
{
name = _zuluf100;
transform = "{0, -1, 1, 0, 0, 0}";
},
{
name = _zuluf100;
transform = "{0, 1, 1, 0, 0, 400}";
}
);
layerId = "299DE00D-7BC2-4DFB-A399-2750234EE670";
paths = (
{
closed = 1;
nodes = (
"0 200 LINE",
"100 200 LINE",
"100 400 LINE",
"0 400 LINE"
);
}
);
width = 800;
}
);
leftKerningGroup = "straight-l";
rightKerningGroup = "straight-r";
},
{
glyphname = "reh-ar";
layers = (
{
anchors = (
{
name = bottom;
position = "{100, -200}";
},
{
name = top;
position = "{100, 300}";
}
);
components = (
{
name = _zuluf100;
transform = "{0, 1, -1, 0, 150, 100}";
}
);
layerId = "299DE00D-7BC2-4DFB-A399-2750234EE670";
paths = (
{
closed = 1;
nodes = (
"101 -150 OFFCURVE",
"150 -101 OFFCURVE",
"150 -42 CURVE SMOOTH",
"150 100 LINE",
"50 100 LINE",
"50 -50 LINE SMOOTH",
"50 -85 OFFCURVE",
"23 -112 OFFCURVE",
"-12 -112 CURVE SMOOTH",
"-27 -112 OFFCURVE",
"-39 -108 OFFCURVE",
"-50 -100 CURVE",
"-30 -130 OFFCURVE",
"3 -150 OFFCURVE",
"41 -150 CURVE SMOOTH"
);
}
);
width = 150;
}
);
leftKerningGroup = "straight-l";
unicode = 0631;
},
{
glyphname = "reh-ar.01.01";
layers = (
{
anchors = (
{
name = bottom;
position = "{100, -200}";
},
{
name = top;
position = "{100, 300}";
}
);
layerId = "299DE00D-7BC2-4DFB-A399-2750234EE670";
paths = (
{
closed = 1;
nodes = (
"200 -123 OFFCURVE",
"200 -1 CURVE SMOOTH",
"200 95 OFFCURVE",
"159 150 OFFCURVE",
"100 250 CURVE",
"100 189 OFFCURVE",
"86 141 OFFCURVE",
"50 100 CURVE",
"81 68 OFFCURVE",
"95 30 OFFCURVE",
"100 0 CURVE SMOOTH",
"113 -72 OFFCURVE",
"63 -134 OFFCURVE",
"0 -135 CURVE",
"81 -178 OFFCURVE"
);
}
);
width = 200;
}
);
leftKerningGroup = "straight-l";
rightKerningGroup = "reh-alt";
},
{
glyphname = "reh-ar.fina.seen";
layers = (
{
anchors = (
{
name = top;
position = "{53, 300}";
}
);
components = (
{
name = _zuluf100;
transform = "{-0.61566, 0.78801, -0.78801, -0.61566, 146, 133}";
}
);
layerId = "299DE00D-7BC2-4DFB-A399-2750234EE670";
paths = (
{
closed = 1;
nodes = (
"23 -164 OFFCURVE",
"99 -165 OFFCURVE",
"154 -121 CURVE",
"220 -70 OFFCURVE",
"230 23 OFFCURVE",
"180 89 CURVE",
"125 160 LINE",
"46 99 LINE",
"101 28 LINE",
"135 -16 OFFCURVE",
"128 -79 OFFCURVE",
"84 -113 CURVE",
"52 -138 OFFCURVE",
"5 -140 OFFCURVE",
"-30 -123 CURVE"
);
}
);
width = 143;
}
);
leftKerningGroup = "straight-l";
},
{
glyphname = "seen-ar";
layers = (
{
anchors = (
{
name = top;
position = "{400, 450}";
}
);
components = (
{
name = _zuluf100;
transform = "{0, 1, -1, 0, 600, 250}";
},
{
name = _zuluf100;
transform = "{0, 1, -1, 0, 450, 200}";
},
{
name = _zuluf100;
transform = "{0, 1, -1, 0, 300, 150}";
}
);
layerId = "299DE00D-7BC2-4DFB-A399-2750234EE670";
paths = (
{
closed = 1;
nodes = (
"300 150 LINE",
"200 150 LINE",
"200 0 LINE",
"200 -55 OFFCURVE",
"155 -100 OFFCURVE",
"100 -100 CURVE",
"45 -100 OFFCURVE",
"0 -55 OFFCURVE",
"0 0 CURVE",
"0 -83 OFFCURVE",
"67 -150 OFFCURVE",
"150 -150 CURVE",
"233 -150 OFFCURVE",
"300 -83 OFFCURVE",
"300 0 CURVE"
);
},
{
closed = 1;
nodes = (
"600 0 LINE",
"600 100 LINE",
"200 100 LINE",
"200 0 LINE"
);
},
{
closed = 1;
nodes = (
"450 0 LINE",
"450 200 LINE",
"350 200 LINE",
"350 0 LINE"
);
},
{
closed = 1;
nodes = (
"600 0 LINE",
"600 250 LINE",
"500 250 LINE",
"500 0 LINE"
);
}
);
width = 600;
}
);
leftKerningGroup = "straight-l";
rightKerningGroup = bowel;
unicode = 0633;
},
{
glyphname = "seen-ar.01.01";
layers = (
{
anchors = (
{
name = top;
position = "{400, 450}";
}
);
components = (
{
name = _zuluf100;
transform = "{0, 1, -1, 0, 600, 250}";
},
{
name = _zuluf100;
transform = "{0, 1, -1, 0, 450, 250}";
},
{
name = _zuluf100;
transform = "{0, 1, -1, 0, 300, 250}";
}
);
layerId = "299DE00D-7BC2-4DFB-A399-2750234EE670";
paths = (
{
closed = 1;
nodes = (
"600 0 LINE",
"600 100 LINE",
"200 100 LINE",
"200 0 LINE"
);
},
{
closed = 1;
nodes = (
"450 0 LINE",
"450 250 LINE",
"350 250 LINE",
"350 0 LINE"
);
},
{
closed = 1;
nodes = (
"600 0 LINE",
"600 250 LINE",
"500 250 LINE",
"500 0 LINE"
);
},
{
closed = 1;
nodes = (
"300 250 LINE",
"200 250 LINE",
"200 0 LINE",
"200 -55 OFFCURVE",
"155 -100 OFFCURVE",
"100 -100 CURVE",
"45 -100 OFFCURVE",
"0 -55 OFFCURVE",
"0 0 CURVE",
"0 -83 OFFCURVE",
"67 -150 OFFCURVE",
"150 -150 CURVE",
"233 -150 OFFCURVE",
"300 -83 OFFCURVE",
"300 0 CURVE"
);
}
);
width = 600;
}
);
leftKerningGroup = "straight-l";
rightKerningGroup = bowel;
},
{
glyphname = "seen-ar.01.02";
layers = (
{
anchors = (
{
name = top;
position = "{400, 450}";
}
);
layerId = "299DE00D-7BC2-4DFB-A399-2750234EE670";
paths = (
{
closed = 1;
nodes = (
"300 249 LINE",
"300 316 LINE",
"300 316 OFFCURVE",
"350 316 OFFCURVE",
"350 266 CURVE",
"350 0 LINE",
"450 0 LINE",
"450 267 LINE",
"450 350 LINE",
"450 350 OFFCURVE",
"500 350 OFFCURVE",
"500 300 CURVE",
"500 0 LINE",
"600 0 LINE",
"600 250 LINE",
"600 400 LINE",
"464 346 OFFCURVE",
"283 303 OFFCURVE",
"150 300 CURVE",
"150 300 OFFCURVE",
"200 300 OFFCURVE",
"200 250 CURVE",
"200 0 LINE",
"200 -55 OFFCURVE",
"155 -100 OFFCURVE",
"100 -100 CURVE",
"45 -100 OFFCURVE",
"0 -55 OFFCURVE",
"0 0 CURVE",
"0 -83 OFFCURVE",
"67 -150 OFFCURVE",
"150 -150 CURVE",
"233 -150 OFFCURVE",
"300 -83 OFFCURVE",
"300 0 CURVE"
);
},
{
closed = 1;
nodes = (
"600 0 LINE",
"600 100 LINE",
"200 100 LINE",
"200 0 LINE"
);
}
);
width = 600;
}
);
leftKerningGroup = "straight-l";
rightKerningGroup = bowel;
},
{
glyphname = "seen-ar.01.3";
layers = (
{
anchors = (
{
name = top;
position = "{317, 550}";
}
);
layerId = "299DE00D-7BC2-4DFB-A399-2750234EE670";
paths = (
{
closed = 1;
nodes = (
"640 88 LINE",
"317 501 LINE",
"220 380 LINE",
"220 380 OFFCURVE",
"261 412 OFFCURVE",
"291 371 CURVE",
"513 87 LINE"
);
},
{
closed = 1;
nodes = (
"631 0 LINE",
"631 100 LINE",
"210 100 LINE",
"210 0 LINE"
);
},
{
closed = 1;
nodes = (
"448 88 LINE",
"220 380 LINE",
"125 258 LINE",
"125 258 OFFCURVE",
"165 289 OFFCURVE",
"195 250 CURVE",
"322 88 LINE"
);
},
{
closed = 1;
nodes = (
"300 90 LINE",
"200 90 LINE",
"200 0 LINE",
"200 -55 OFFCURVE",
"155 -100 OFFCURVE",
"100 -100 CURVE",
"45 -100 OFFCURVE",
"0 -55 OFFCURVE",
"0 0 CURVE",
"0 -83 OFFCURVE",
"67 -150 OFFCURVE",
"150 -150 CURVE",
"233 -150 OFFCURVE",
"300 -83 OFFCURVE",
"300 0 CURVE"
);
},
{
closed = 1;
nodes = (
"289 48 LINE",
"125 258 LINE",
"31 137 LINE",
"31 137 OFFCURVE",
"70 167 OFFCURVE",
"100 128 CURVE",
"195 7 LINE",
"199 2 OFFCURVE",
"200 -3 OFFCURVE",
"199 -14 CURVE",
"227 -34 LINE"
);
}
);
width = 632;
}
);
},
{
glyphname = "seen-ar.init";
layers = (
{
anchors = (
{
name = top;
position = "{250, 450}";
}
);
components = (
{
name = _zuluf100;
transform = "{0, 1, -1, 0, 450, 250}";
},
{
name = _zuluf100;
transform = "{0, 1, -1, 0, 300, 200}";
},
{
name = _zuluf100;
transform = "{0, 1, -1, 0, 150, 150}";
}
);
layerId = "299DE00D-7BC2-4DFB-A399-2750234EE670";
paths = (
{
closed = 1;
nodes = (
"450 0 LINE",
"450 250 LINE",
"350 250 LINE",
"350 0 LINE"
);
},
{
closed = 1;
nodes = (
"150 0 LINE",
"150 150 LINE",
"50 150 LINE",
"50 0 LINE"
);
},
{
closed = 1;
nodes = (
"450 0 LINE",
"450 100 LINE",
"-50 100 LINE",
"-50 0 LINE"
);
},
{
closed = 1;
nodes = (
"300 0 LINE",
"300 200 LINE",
"200 200 LINE",
"200 0 LINE"
);
}
);
width = 450;
}
);
leftKerningGroup = "straight-l";
},
{
glyphname = "seen-ar.init.01.01";
layers = (
{
anchors = (
{
name = top;
position = "{250, 450}";
}
);
components = (
{
name = _zuluf100;
transform = "{0, 1, -1, 0, 450, 250}";
},
{
name = _zuluf100;
transform = "{0, 1, -1, 0, 300, 250}";
},
{
name = _zuluf100;
transform = "{0, 1, -1, 0, 150, 250}";
}
);
layerId = "299DE00D-7BC2-4DFB-A399-2750234EE670";
paths = (
{
closed = 1;
nodes = (
"450 0 LINE",
"450 250 LINE",
"350 250 LINE",
"350 0 LINE"
);
},
{
closed = 1;
nodes = (
"150 0 LINE",
"150 250 LINE",
"50 250 LINE",
"50 0 LINE"
);
},
{
closed = 1;
nodes = (
"450 0 LINE",
"450 100 LINE",
"-50 100 LINE",
"-50 0 LINE"
);
},
{
closed = 1;
nodes = (
"300 0 LINE",
"300 250 LINE",
"200 250 LINE",
"200 0 LINE"
);
}
);
width = 450;
}
);
leftKerningGroup = "straight-l";
},
{
glyphname = "seen-ar.init.01.02";
layers = (
{
anchors = (
{
name = top;
position = "{250, 450}";
}
);
layerId = "299DE00D-7BC2-4DFB-A399-2750234EE670";
paths = (
{
closed = 1;
nodes = (
"150 0 LINE",
"150 249 LINE",
"150 316 LINE",
"150 316 OFFCURVE",
"200 316 OFFCURVE",
"200 266 CURVE",
"200 0 LINE",
"300 0 LINE",
"300 267 LINE",
"300 350 LINE",
"300 350 OFFCURVE",
"350 350 OFFCURVE",
"350 300 CURVE",
"350 0 LINE",
"450 0 LINE",
"450 250 LINE",
"450 400 LINE",
"314 346 OFFCURVE",
"133 303 OFFCURVE",
"0 300 CURVE",
"0 300 OFFCURVE",
"50 300 OFFCURVE",
"50 250 CURVE",
"50 0 LINE"
);
},
{
closed = 1;
nodes = (
"450 0 LINE",
"450 100 LINE",
"-50 100 LINE",
"-50 0 LINE"
);
}
);
width = 450;
}
);
leftKerningGroup = "straight-l";
},
{
glyphname = "seen-ar.init.01.03";
layers = (
{
anchors = (
{
name = top;
position = "{250, 450}";
}
);
components = (
{
name = _elbow.1;
transform = "{1, 0, 0, 1, 200, 0}";
},
{
name = _zuluf100;
transform = "{0, 1, -1, 0, 300, 200}";
},
{
name = _zuluf100;
transform = "{0, 1, -1, 0, 150, 150}";
},
{
name = _zuluf100;
transform = "{0, 1, -1, 0, 450, 250}";
}
);
layerId = "299DE00D-7BC2-4DFB-A399-2750234EE670";
paths = (
{
closed = 1;
nodes = (
"150 0 LINE",
"150 150 LINE",
"50 150 LINE",
"50 0 LINE"
);
},
{
closed = 1;
nodes = (
"300 0 LINE",
"300 200 LINE",
"200 200 LINE",
"200 0 LINE"
);
},
{
closed = 1;
nodes = (
"450 0 LINE",
"450 250 LINE",
"350 250 LINE",
"350 0 LINE"
);
},
{
closed = 1;
nodes = (
"250 0 LINE",
"250 100 LINE",
"-50 100 LINE",
"-50 0 LINE"
);
}
);
width = 450;
}
);
leftKerningGroup = "straight-l";
},
{
glyphname = "seen-ar.init.01.04";
layers = (
{
anchors = (
{
name = top;
position = "{250, 450}";
}
);
components = (
{
name = _elbow.1;
transform = "{1, 0, 0, 1, 200, 0}";
},
{
name = _zuluf100;
transform = "{0, 1, -1, 0, 300, 250}";
},
{
name = _zuluf100;
transform = "{0, 1, -1, 0, 150, 250}";
},
{
name = _zuluf100;
transform = "{0, 1, -1, 0, 450, 250}";
}
);
layerId = "299DE00D-7BC2-4DFB-A399-2750234EE670";
paths = (
{
closed = 1;
nodes = (
"150 0 LINE",
"150 250 LINE",
"50 250 LINE",
"50 0 LINE"
);
},
{
closed = 1;
nodes = (
"300 0 LINE",
"300 250 LINE",
"200 250 LINE",
"200 0 LINE"
);
},
{
closed = 1;
nodes = (
"450 0 LINE",
"450 250 LINE",
"350 250 LINE",
"350 0 LINE"
);
},
{
closed = 1;
nodes = (
"250 0 LINE",
"250 100 LINE",
"-50 100 LINE",
"-50 0 LINE"
);
}
);
width = 450;
}
);
leftKerningGroup = "straight-l";
},
{
glyphname = "seen-ar.init.01.05";
layers = (
{
anchors = (
{
name = top;
position = "{250, 450}";
}
);
components = (
{
name = _elbow.1;
transform = "{1, 0, 0, 1, 200, 0}";
}
);
layerId = "299DE00D-7BC2-4DFB-A399-2750234EE670";
paths = (
{
closed = 1;
nodes = (
"150 0 LINE",
"150 249 LINE",
"150 316 LINE",
"150 316 OFFCURVE",
"200 316 OFFCURVE",
"200 266 CURVE",
"200 0 LINE",
"300 0 LINE",
"300 267 LINE",
"300 350 LINE",
"300 350 OFFCURVE",
"350 350 OFFCURVE",
"350 300 CURVE",
"350 0 LINE",
"450 0 LINE",
"450 250 LINE",
"450 400 LINE",
"314 346 OFFCURVE",
"133 303 OFFCURVE",
"0 300 CURVE",
"0 300 OFFCURVE",
"50 300 OFFCURVE",
"50 250 CURVE",
"50 0 LINE"
);
},
{
closed = 1;
nodes = (
"250 0 LINE",
"250 100 LINE",
"-50 100 LINE",
"-50 0 LINE"
);
}
);
width = 450;
}
);
leftKerningGroup = "straight-l";
},
{
glyphname = "seen-ar.init.01.06";
layers = (
{
anchors = (
{
name = top;
position = "{250, 450}";
}
);
components = (
{
name = _elbow.1;
transform = "{1, 0, 0, 1, 50, 0}";
},
{
name = _zuluf100;
transform = "{0, 1, -1, 0, 300, 200}";
},
{
name = _zuluf100;
transform = "{0, 1, -1, 0, 150, 150}";
},
{
name = _zuluf100;
transform = "{0, 1, -1, 0, 450, 250}";
}
);
layerId = "299DE00D-7BC2-4DFB-A399-2750234EE670";
paths = (
{
closed = 1;
nodes = (
"150 0 LINE",
"150 150 LINE",
"50 150 LINE",
"50 0 LINE"
);
},
{
closed = 1;
nodes = (
"300 0 LINE",
"300 200 LINE",
"200 200 LINE",
"200 0 LINE"
);
},
{
closed = 1;
nodes = (
"450 0 LINE",
"450 250 LINE",
"350 250 LINE",
"350 0 LINE"
);
},
{
closed = 1;
nodes = (
"100 0 LINE",
"100 100 LINE",
"-50 100 LINE",
"-50 0 LINE"
);
},
{
closed = 1;
nodes = (
"450 0 LINE",
"450 100 LINE",
"230 100 LINE",
"230 0 LINE"
);
}
);
width = 450;
}
);
leftKerningGroup = "straight-l";
},
{
glyphname = "seen-ar.init.01.07";
layers = (
{
anchors = (
{
name = top;
position = "{250, 450}";
}
);
components = (
{
name = _elbow.1;
transform = "{1, 0, 0, 1, 50, 0}";
},
{
name = _zuluf100;
transform = "{0, 1, -1, 0, 300, 250}";
},
{
name = _zuluf100;
transform = "{0, 1, -1, 0, 150, 250}";
},
{
name = _zuluf100;
transform = "{0, 1, -1, 0, 450, 250}";
}
);
layerId = "299DE00D-7BC2-4DFB-A399-2750234EE670";
paths = (
{
closed = 1;
nodes = (
"150 0 LINE",
"150 250 LINE",
"50 250 LINE",
"50 0 LINE"
);
},
{
closed = 1;
nodes = (
"300 0 LINE",
"300 250 LINE",
"200 250 LINE",
"200 0 LINE"
);
},
{
closed = 1;
nodes = (
"450 0 LINE",
"450 250 LINE",
"350 250 LINE",
"350 0 LINE"
);
},
{
closed = 1;
nodes = (
"100 0 LINE",
"100 100 LINE",
"-50 100 LINE",
"-50 0 LINE"
);
},
{
closed = 1;
nodes = (
"450 0 LINE",
"450 100 LINE",
"230 100 LINE",
"230 0 LINE"
);
}
);
width = 450;
}
);
leftKerningGroup = "straight-l";
},
{
glyphname = "seen-ar.init.01.08";
layers = (
{
anchors = (
{
name = top;
position = "{250, 450}";
}
);
components = (
{
name = _elbow.1;
transform = "{1, 0, 0, 1, 50, 0}";
}
);
layerId = "299DE00D-7BC2-4DFB-A399-2750234EE670";
paths = (
{
closed = 1;
nodes = (
"150 0 LINE",
"150 249 LINE",
"150 316 LINE",
"150 316 OFFCURVE",
"200 316 OFFCURVE",
"200 266 CURVE",
"200 0 LINE",
"300 0 LINE",
"300 267 LINE",
"300 350 LINE",
"300 350 OFFCURVE",
"350 350 OFFCURVE",
"350 300 CURVE",
"350 0 LINE",
"450 0 LINE",
"450 250 LINE",
"450 400 LINE",
"314 346 OFFCURVE",
"133 303 OFFCURVE",
"0 300 CURVE",
"0 300 OFFCURVE",
"50 300 OFFCURVE",
"50 250 CURVE",
"50 0 LINE"
);
},
{
closed = 1;
nodes = (
"100 0 LINE",
"100 100 LINE",
"-50 100 LINE",
"-50 0 LINE"
);
},
{
closed = 1;
nodes = (
"450 0 LINE",
"450 100 LINE",
"230 100 LINE",
"230 0 LINE"
);
}
);
width = 450;
}
);
leftKerningGroup = "straight-l";
},
{
glyphname = "seen-ar.init.02.00";
layers = (
{
anchors = (
{
name = bottom;
position = "{287, -50}";
},
{
name = top;
position = "{287, 550}";
}
);
layerId = "299DE00D-7BC2-4DFB-A399-2750234EE670";
paths = (
{
closed = 1;
nodes = (
"610 88 LINE",
"287 501 LINE",
"190 380 LINE",
"190 380 OFFCURVE",
"231 412 OFFCURVE",
"261 371 CURVE",
"483 87 LINE"
);
},
{
closed = 1;
nodes = (
"228 88 LINE",
"95 258 LINE",
"1 136 LINE",
"1 136 OFFCURVE",
"40 166 OFFCURVE",
"71 127 CURVE",
"102 88 LINE"
);
},
{
closed = 1;
nodes = (
"601 0 LINE",
"601 100 LINE",
"0 100 LINE",
"0 0 LINE"
);
},
{
closed = 1;
nodes = (
"418 88 LINE",
"190 380 LINE",
"95 258 LINE",
"95 258 OFFCURVE",
"135 289 OFFCURVE",
"165 250 CURVE",
"292 88 LINE"
);
}
);
width = 601;
}
);
note = "Actually a medial-only form";
},
{
glyphname = "sad-ar";
layers = (
{
components = (
{
name = "-dal";
transform = "{1, 0, 0, 1, 200, 0}";
},
{
name = _zuluf100;
transform = "{0, 1, -1, 0, 300, 250}";
}
);
layerId = "299DE00D-7BC2-4DFB-A399-2750234EE670";
paths = (
{
closed = 1;
nodes = (
"300 250 LINE",
"200 250 LINE",
"200 0 LINE",
"200 -55 OFFCURVE",
"155 -100 OFFCURVE",
"100 -100 CURVE",
"45 -100 OFFCURVE",
"0 -55 OFFCURVE",
"0 0 CURVE",
"0 -83 OFFCURVE",
"67 -150 OFFCURVE",
"150 -150 CURVE",
"233 -150 OFFCURVE",
"300 -83 OFFCURVE",
"300 0 CURVE"
);
}
);
width = 1000;
}
);
leftKerningGroup = "straight-l";
rightKerningGroup = bowel;
unicode = 0635;
},
{
glyphname = "sad-ar.init";
layers = (
{
components = (
{
name = "kashida-ar";
},
{
name = "-dal";
transform = "{1, 0, 0, 1, 50, 0}";
},
{
name = _zuluf100;
transform = "{0, 1, -1, 0, 150, 250}";
}
);
layerId = "299DE00D-7BC2-4DFB-A399-2750234EE670";
paths = (
{
closed = 1;
nodes = (
"150 0 LINE",
"150 250 LINE",
"50 250 LINE",
"50 0 LINE"
);
}
);
width = 850;
}
);
leftKerningGroup = "straight-l";
},
{
glyphname = "ain-ar";
layers = (
{
anchors = (
{
name = top;
position = "{250, 400}";
}
);
components = (
{
name = _elbow.1;
transform = "{0, -1, 1, 0, 150, 100}";
},
{
name = _zuluf100;
transform = "{1, 0, 0, 1, 350, -150}";
}
);
layerId = "299DE00D-7BC2-4DFB-A399-2750234EE670";
paths = (
{
closed = 1;
nodes = (
"350 -150 LINE",
"350 -50 LINE",
"150 -50 LINE",
"150 -150 LINE"
);
},
{
closed = 1;
nodes = (
"387 252 OFFCURVE",
"375 275 OFFCURVE",
"336 290 CURVE",
"352 323 OFFCURVE",
"349 366 OFFCURVE",
"330 400 CURVE",
"324 358 OFFCURVE",
"305 323 OFFCURVE",
"241 291 CURVE SMOOTH",
"167 254 OFFCURVE",
"137 179 OFFCURVE",
"162 100 CURVE",
"150 100 LINE",
"150 0 LINE",
"500 0 LINE",
"442 23 OFFCURVE",
"400 85 OFFCURVE",
"400 150 CURVE",
"390 122 OFFCURVE",
"362 100 OFFCURVE",
"330 100 CURVE SMOOTH",
"289 100 OFFCURVE",
"255 134 OFFCURVE",
"255 175 CURVE SMOOTH",
"255 216 OFFCURVE",
"289 250 OFFCURVE",
"330 250 CURVE SMOOTH",
"356 250 OFFCURVE",
"380 236 OFFCURVE",
"393 215 CURVE"
);
}
);
width = 500;
}
);
rightKerningGroup = "straight-r";
unicode = 0639;
},
{
glyphname = "ain-ar.fina";
layers = (
{
anchors = (
{
name = top;
position = "{250, 550}";
}
);
layerId = "299DE00D-7BC2-4DFB-A399-2750234EE670";
paths = (
{
closed = 1;
nodes = (
"305 -150 OFFCURVE",
"354 -128 OFFCURVE",
"400 -100 CURVE",
"251 -132 OFFCURVE",
"183 -84 OFFCURVE",
"197 1 CURVE SMOOTH",
"214 107 OFFCURVE",
"351 200 OFFCURVE",
"500 200 CURVE",
"387 288 LINE",
"236 256 OFFCURVE",
"100 138 OFFCURVE",
"100 1 CURVE SMOOTH",
"100 -97 OFFCURVE",
"167 -150 OFFCURVE",
"250 -150 CURVE SMOOTH"
);
},
{
closed = 1;
nodes = (
"500 0 LINE",
"500 100 LINE",
"300 100 LINE",
"300 0 LINE"
);
},
{
closed = 1;
nodes = (
"160 250 LINE",
"181 268 OFFCURVE",
"201 282 OFFCURVE",
"230 287 CURVE",
"232 297 OFFCURVE",
"232 308 OFFCURVE",
"250 321 CURVE",
"268 308 OFFCURVE",
"268 297 OFFCURVE",
"270 287 CURVE",
"299 282 OFFCURVE",
"319 268 OFFCURVE",
"340 250 CURVE",
"500 200 LINE",
"473 308 OFFCURVE",
"367 388 OFFCURVE",
"250 388 CURVE SMOOTH",
"133 388 OFFCURVE",
"27 308 OFFCURVE",
"0 200 CURVE"
);
},
{
closed = 1;
nodes = (
"331 375 LINE",
"331 438 OFFCURVE",
"250 440 OFFCURVE",
"250 500 CURVE",
"250 440 OFFCURVE",
"169 438 OFFCURVE",
"169 375 CURVE"
);
},
{
closed = 1;
nodes = (
"47 200 OFFCURVE",
"105 193 OFFCURVE",
"159 169 CURVE",
"181 195 OFFCURVE",
"209 218 OFFCURVE",
"240 238 CURVE",
"200 263 OFFCURVE",
"154 281 OFFCURVE",
"103 291 CURVE",
"0 200 LINE"
);
},
{
closed = 1;
nodes = (
"274 67 OFFCURVE",
"289 37 OFFCURVE",
"300 0 CURVE",
"396 29 LINE",
"382 75 OFFCURVE",
"362 116 OFFCURVE",
"336 150 CURVE",
"305 134 OFFCURVE",
"277 114 OFFCURVE",
"256 91 CURVE"
);
}
);
width = 500;
},
{
anchors = (
{
name = top;
position = "{250, 550}";
}
);
associatedMasterId = "299DE00D-7BC2-4DFB-A399-2750234EE670";
layerId = "89267BDB-EF62-4A6A-9B39-D22764B76527";
name = "Oct 24 19, 22:07";
paths = (
{
closed = 1;
nodes = (
"305 -150 OFFCURVE",
"354 -128 OFFCURVE",
"400 -100 CURVE",
"251 -132 OFFCURVE",
"183 -84 OFFCURVE",
"197 1 CURVE SMOOTH",
"214 107 OFFCURVE",
"351 200 OFFCURVE",
"500 200 CURVE",
"387 288 LINE",
"236 256 OFFCURVE",
"100 138 OFFCURVE",
"100 1 CURVE SMOOTH",
"100 -97 OFFCURVE",
"167 -150 OFFCURVE",
"250 -150 CURVE SMOOTH"
);
},
{
closed = 1;
nodes = (
"396 29 LINE",
"353 171 OFFCURVE",
"249 262 OFFCURVE",
"103 291 CURVE",
"0 200 LINE",
"100 200 OFFCURVE",
"249 171 OFFCURVE",
"300 0 CURVE"
);
},
{
closed = 1;
nodes = (
"500 0 LINE",
"500 100 LINE",
"300 100 LINE",
"300 0 LINE"
);
},
{
closed = 1;
nodes = (
"160 250 LINE",
"181 268 OFFCURVE",
"201 282 OFFCURVE",
"230 287 CURVE",
"232 297 OFFCURVE",
"232 308 OFFCURVE",
"250 321 CURVE",
"268 308 OFFCURVE",
"268 297 OFFCURVE",
"270 287 CURVE",
"299 282 OFFCURVE",
"319 268 OFFCURVE",
"340 250 CURVE",
"500 200 LINE",
"473 308 OFFCURVE",
"367 388 OFFCURVE",
"250 388 CURVE SMOOTH",
"133 388 OFFCURVE",
"27 308 OFFCURVE",
"0 200 CURVE"
);
},
{
closed = 1;
nodes = (
"331 375 LINE",
"331 438 OFFCURVE",
"250 440 OFFCURVE",
"250 500 CURVE",
"250 440 OFFCURVE",
"169 438 OFFCURVE",
"169 375 CURVE"
);
},
{
closed = 1;
nodes = (
"90 1 LINE",
"90 134 OFFCURVE",
"218 262 OFFCURVE",
"385 298 CURVE",
"387 288 LINE",
"236 256 OFFCURVE",
"100 138 OFFCURVE",
"100 1 CURVE"
);
},
{
closed = 1;
nodes = (
"500 190 LINE",
"358 190 OFFCURVE",
"223 102 OFFCURVE",
"207 -1 CURVE",
"197 1 LINE",
"214 107 OFFCURVE",
"351 200 OFFCURVE",
"500 200 CURVE"
);
}
);
visible = 1;
width = 500;
}
);
},
{
glyphname = "ain-ar.fina.01.01";
layers = (
{
anchors = (
{
name = top;
position = "{225, 550}";
}
);
components = (
{
name = _elbow.1;
transform = "{0, -1, 1, 0, 150, 100}";
},
{
name = _zuluf100;
transform = "{1, 0, 0, 1, 350, -150}";
}
);
layerId = "299DE00D-7BC2-4DFB-A399-2750234EE670";
paths = (
{
closed = 1;
nodes = (
"450 389 LINE",
"334 389 LINE",
"150 70 LINE",
"236 19 LINE"
);
},
{
closed = 1;
nodes = (
"350 -150 LINE",
"350 -50 LINE",
"150 -50 LINE",
"150 -150 LINE"
);
},
{
closed = 1;
nodes = (
"300 70 LINE",
"116 389 LINE",
"0 389 LINE",
"214 19 LINE"
);
},
{
closed = 1;
nodes = (
"450 0 LINE",
"450 100 LINE",
"150 100 LINE",
"150 0 LINE"
);
},
{
closed = 1;
nodes = (
"392 289 LINE",
"450 389 LINE",
"0 389 LINE",
"58 289 LINE"
);
},
{
closed = 1;
nodes = (
"280 379 LINE",
"225 489 LINE",
"170 379 LINE"
);
}
);
width = 450;
},
{
associatedMasterId = "299DE00D-7BC2-4DFB-A399-2750234EE670";
layerId = "46E2105B-6858-45BC-97F3-B951BF1585C5";
name = "Oct 17 19, 22:35";
paths = (
{
closed = 1;
nodes = (
"396 29 LINE",
"353 171 OFFCURVE",
"249 262 OFFCURVE",
"103 291 CURVE",
"0 200 LINE",
"100 200 OFFCURVE",
"249 171 OFFCURVE",
"300 0 CURVE"
);
},
{
closed = 1;
nodes = (
"251 171 OFFCURVE",
"400 200 OFFCURVE",
"500 200 CURVE",
"387 288 LINE",
"246 258 OFFCURVE",
"146 168 OFFCURVE",
"104 29 CURVE",
"200 0 LINE"
);
},
{
closed = 1;
nodes = (
"500 0 LINE",
"500 100 LINE",
"300 100 LINE",
"300 0 LINE"
);
},
{
closed = 1;
nodes = (
"160 250 LINE",
"181 268 OFFCURVE",
"201 282 OFFCURVE",
"230 287 CURVE",
"232 297 OFFCURVE",
"232 308 OFFCURVE",
"250 321 CURVE",
"268 308 OFFCURVE",
"268 297 OFFCURVE",
"270 287 CURVE",
"299 282 OFFCURVE",
"319 268 OFFCURVE",
"340 250 CURVE",
"500 200 LINE",
"473 308 OFFCURVE",
"367 388 OFFCURVE",
"250 388 CURVE SMOOTH",
"133 388 OFFCURVE",
"27 308 OFFCURVE",
"0 200 CURVE"
);
},
{
closed = 1;
nodes = (
"331 375 LINE",
"331 438 OFFCURVE",
"250 440 OFFCURVE",
"250 500 CURVE",
"250 440 OFFCURVE",
"169 438 OFFCURVE",
"169 375 CURVE"
);
}
);
width = 600;
}
);
rightKerningGroup = "straight-r";
},
{
glyphname = "ain-ar.medi";
layers = (
{
anchors = (
{
name = top;
position = "{300, 550}";
}
);
layerId = "299DE00D-7BC2-4DFB-A399-2750234EE670";
paths = (
{
closed = 1;
nodes = (
"250 0 LINE",
"250 100 LINE",
"-50 100 LINE",
"-50 0 LINE"
);
},
{
closed = 1;
nodes = (
"301 171 OFFCURVE",
"450 200 OFFCURVE",
"550 200 CURVE",
"437 288 LINE",
"296 258 OFFCURVE",
"196 168 OFFCURVE",
"154 29 CURVE",
"250 0 LINE"
);
},
{
closed = 1;
nodes = (
"550 0 LINE",
"550 100 LINE",
"350 100 LINE",
"350 0 LINE"
);
},
{
closed = 1;
nodes = (
"210 250 LINE",
"231 268 OFFCURVE",
"250 281 OFFCURVE",
"275 286 CURVE",
"278 304 OFFCURVE",
"282 308 OFFCURVE",
"300 321 CURVE",
"318 308 OFFCURVE",
"322 304 OFFCURVE",
"325 286 CURVE",
"350 281 OFFCURVE",
"369 268 OFFCURVE",
"390 250 CURVE",
"550 200 LINE",
"523 308 OFFCURVE",
"417 388 OFFCURVE",
"300 388 CURVE SMOOTH",
"183 388 OFFCURVE",
"77 308 OFFCURVE",
"50 200 CURVE"
);
},
{
closed = 1;
nodes = (
"381 375 LINE",
"381 438 OFFCURVE",
"300 440 OFFCURVE",
"300 500 CURVE",
"300 440 OFFCURVE",
"219 438 OFFCURVE",
"219 375 CURVE"
);
},
{
closed = 1;
nodes = (
"98 200 OFFCURVE",
"159 193 OFFCURVE",
"214 167 CURVE",
"236 194 OFFCURVE",
"262 218 OFFCURVE",
"291 238 CURVE",
"251 263 OFFCURVE",
"204 281 OFFCURVE",
"153 291 CURVE",
"50 200 LINE"
);
},
{
closed = 1;
nodes = (
"324 66 OFFCURVE",
"339 36 OFFCURVE",
"350 0 CURVE",
"446 29 LINE",
"432 77 OFFCURVE",
"411 118 OFFCURVE",
"383 154 CURVE",
"353 138 OFFCURVE",
"327 116 OFFCURVE",
"306 90 CURVE"
);
}
);
width = 550;
},
{
anchors = (
{
name = top;
position = "{300, 550}";
}
);
associatedMasterId = "299DE00D-7BC2-4DFB-A399-2750234EE670";
layerId = "049DDF45-282C-44AA-9E56-D1DE82E102E5";
name = "Oct 24 19, 22:03";
paths = (
{
closed = 1;
nodes = (
"446 29 LINE",
"403 171 OFFCURVE",
"299 262 OFFCURVE",
"153 291 CURVE",
"50 200 LINE",
"150 200 OFFCURVE",
"299 171 OFFCURVE",
"350 0 CURVE"
);
},
{
closed = 1;
nodes = (
"250 0 LINE",
"250 100 LINE",
"-20 100 LINE",
"-20 0 LINE"
);
},
{
closed = 1;
nodes = (
"301 171 OFFCURVE",
"450 200 OFFCURVE",
"550 200 CURVE",
"437 288 LINE",
"296 258 OFFCURVE",
"196 168 OFFCURVE",
"154 29 CURVE",
"250 0 LINE"
);
},
{
closed = 1;
nodes = (
"550 0 LINE",
"550 100 LINE",
"350 100 LINE",
"350 0 LINE"
);
},
{
closed = 1;
nodes = (
"210 250 LINE",
"231 268 OFFCURVE",
"250 281 OFFCURVE",
"275 286 CURVE",
"278 304 OFFCURVE",
"282 308 OFFCURVE",
"300 321 CURVE",
"318 308 OFFCURVE",
"322 304 OFFCURVE",
"325 286 CURVE",
"350 281 OFFCURVE",
"369 268 OFFCURVE",
"390 250 CURVE",
"550 200 LINE",
"523 308 OFFCURVE",
"417 388 OFFCURVE",
"300 388 CURVE SMOOTH",
"183 388 OFFCURVE",
"77 308 OFFCURVE",
"50 200 CURVE"
);
},
{
closed = 1;
nodes = (
"381 375 LINE",
"381 438 OFFCURVE",
"300 440 OFFCURVE",
"300 500 CURVE",
"300 440 OFFCURVE",
"219 438 OFFCURVE",
"219 375 CURVE"
);
},
{
closed = 1;
nodes = (
"550 190 LINE",
"398 190 OFFCURVE",
"297 124 OFFCURVE",
"260 -3 CURVE",
"250 0 LINE",
"301 171 OFFCURVE",
"450 200 OFFCURVE",
"550 200 CURVE"
);
},
{
closed = 1;
nodes = (
"144 32 LINE",
"187 173 OFFCURVE",
"290 267 OFFCURVE",
"435 298 CURVE",
"437 288 LINE",
"296 258 OFFCURVE",
"196 168 OFFCURVE",
"154 29 CURVE"
);
}
);
visible = 1;
width = 550;
}
);
},
{
glyphname = "ain-ar.medi.01.01";
layers = (
{
anchors = (
{
name = top;
position = "{275, 550}";
}
);
layerId = "299DE00D-7BC2-4DFB-A399-2750234EE670";
paths = (
{
closed = 1;
nodes = (
"500 389 LINE",
"384 389 LINE",
"200 70 LINE",
"286 19 LINE"
);
},
{
closed = 1;
nodes = (
"500 0 LINE",
"500 100 LINE",
"-50 100 LINE",
"-50 0 LINE"
);
},
{
closed = 1;
nodes = (
"350 70 LINE",
"166 389 LINE",
"50 389 LINE",
"264 19 LINE"
);
},
{
closed = 1;
nodes = (
"442 289 LINE",
"500 389 LINE",
"50 389 LINE",
"108 289 LINE"
);
},
{
closed = 1;
nodes = (
"330 379 LINE",
"275 489 LINE",
"220 379 LINE"
);
}
);
width = 500;
},
{
associatedMasterId = "299DE00D-7BC2-4DFB-A399-2750234EE670";
layerId = "62966BE6-8DBA-4358-8BF6-B921E010B38B";
name = "Oct 17 19, 22:28";
paths = (
{
closed = 1;
nodes = (
"396 29 LINE",
"353 171 OFFCURVE",
"249 262 OFFCURVE",
"103 291 CURVE",
"0 200 LINE",
"100 200 OFFCURVE",
"249 171 OFFCURVE",
"300 0 CURVE"
);
},
{
closed = 1;
nodes = (
"200 0 LINE",
"200 100 LINE",
"0 100 LINE",
"0 0 LINE"
);
},
{
closed = 1;
nodes = (
"251 171 OFFCURVE",
"400 200 OFFCURVE",
"500 200 CURVE",
"387 288 LINE",
"246 258 OFFCURVE",
"146 168 OFFCURVE",
"104 29 CURVE",
"200 0 LINE"
);
},
{
closed = 1;
nodes = (
"500 0 LINE",
"500 100 LINE",
"300 100 LINE",
"300 0 LINE"
);
},
{
closed = 1;
nodes = (
"160 250 LINE",
"181 268 OFFCURVE",
"201 282 OFFCURVE",
"230 287 CURVE",
"232 297 OFFCURVE",
"232 308 OFFCURVE",
"250 321 CURVE",
"268 308 OFFCURVE",
"268 297 OFFCURVE",
"270 287 CURVE",
"299 282 OFFCURVE",
"319 268 OFFCURVE",
"340 250 CURVE",
"500 200 LINE",
"473 308 OFFCURVE",
"367 388 OFFCURVE",
"250 388 CURVE SMOOTH",
"133 388 OFFCURVE",
"27 308 OFFCURVE",
"0 200 CURVE"
);
},
{
closed = 1;
nodes = (
"331 375 LINE",
"331 438 OFFCURVE",
"250 440 OFFCURVE",
"250 500 CURVE",
"250 440 OFFCURVE",
"169 438 OFFCURVE",
"169 375 CURVE"
);
}
);
width = 500;
}
);
},
{
glyphname = "ain-ar.medi.01.02";
layers = (
{
anchors = (
{
name = top;
position = "{190, 600}";
}
);
layerId = "299DE00D-7BC2-4DFB-A399-2750234EE670";
paths = (
{
closed = 1;
nodes = (
"314 50 LINE",
"114 396 LINE",
"50 308 LINE",
"114 220 LINE",
"247 451 LINE",
"190 550 LINE",
"133 451 LINE",
"266 220 LINE",
"331 307 LINE",
"190 550 LINE",
"50 308 LINE",
"228 0 LINE"
);
},
{
closed = 1;
nodes = (
"153 0 LINE",
"190 100 LINE",
"228 0 LINE",
"331 0 LINE",
"331 100 LINE",
"-50 100 LINE",
"-50 0 LINE"
);
},
{
closed = 1;
nodes = (
"331 307 LINE",
"267 396 LINE",
"67 50 LINE",
"153 0 LINE"
);
}
);
width = 331;
}
);
},
{
glyphname = "ain-ar.medi.01.03";
layers = (
{
anchors = (
{
name = top;
position = "{225, 550}";
}
);
guideLines = (
{
angle = 270;
locked = 1;
position = "{400, 152}";
},
{
angle = 270;
locked = 1;
position = "{50, 152}";
},
{
locked = 1;
position = "{225, 500}";
},
{
angle = 270;
locked = 1;
position = "{225, 601}";
},
{
locked = 1;
position = "{194, 200}";
},
{
locked = 1;
position = "{225, 250}";
},
{
locked = 1;
position = "{225, 400}";
},
{
locked = 1;
position = "{225, 350}";
},
{
angle = 270;
locked = 1;
position = "{375, 152}";
},
{
angle = 270;
locked = 1;
position = "{75, 152}";
}
);
layerId = "299DE00D-7BC2-4DFB-A399-2750234EE670";
paths = (
{
closed = 1;
nodes = (
"125 0 LINE",
"125 100 LINE",
"-50 100 LINE",
"-50 0 LINE"
);
},
{
closed = 1;
nodes = (
"400 0 LINE",
"400 100 LINE",
"325 100 LINE",
"325 0 LINE"
);
},
{
closed = 1;
nodes = (
"76 250 OFFCURVE",
"99 248 OFFCURVE",
"120 245 CURVE",
"144 272 OFFCURVE",
"175 296 OFFCURVE",
"212 313 CURVE",
"198 319 OFFCURVE",
"183 324 OFFCURVE",
"168 328 CURVE",
"180 358 OFFCURVE",
"200 377 OFFCURVE",
"225 392 CURVE",
"250 377 OFFCURVE",
"269 358 OFFCURVE",
"282 328 CURVE",
"160 295 OFFCURVE",
"74 211 OFFCURVE",
"74 100 CURVE SMOOTH",
"74 -39 OFFCURVE",
"163 -118 OFFCURVE",
"214 -150 CURVE",
"188 -100 OFFCURVE",
"169 -11 OFFCURVE",
"169 51 CURVE SMOOTH",
"169 193 OFFCURVE",
"252 250 OFFCURVE",
"400 250 CURVE",
"401 362 OFFCURVE",
"333 466 OFFCURVE",
"225 500 CURVE",
"117 466 OFFCURVE",
"49 362 OFFCURVE",
"50 250 CURVE"
);
},
{
closed = 1;
nodes = (
"264 162 OFFCURVE",
"281 116 OFFCURVE",
"281 51 CURVE SMOOTH",
"281 -11 OFFCURVE",
"262 -100 OFFCURVE",
"236 -150 CURVE",
"287 -118 OFFCURVE",
"376 -39 OFFCURVE",
"376 100 CURVE SMOOTH",
"376 151 OFFCURVE",
"358 197 OFFCURVE",
"326 234 CURVE",
"284 227 OFFCURVE",
"253 213 OFFCURVE",
"233 193 CURVE"
);
}
);
width = 400;
},
{
associatedMasterId = "299DE00D-7BC2-4DFB-A399-2750234EE670";
layerId = "049DDF45-282C-44AA-9E56-D1DE82E102E5";
name = "Oct 24 19, 22:03";
paths = (
{
closed = 1;
nodes = (
"188 -100 OFFCURVE",
"169 -11 OFFCURVE",
"169 51 CURVE SMOOTH",
"169 112 OFFCURVE",
"182 157 OFFCURVE",
"225 200 CURVE SMOOTH",
"257 232 OFFCURVE",
"317 250 OFFCURVE",
"400 250 CURVE",
"380 342 LINE",
"208 336 OFFCURVE",
"74 239 OFFCURVE",
"74 100 CURVE SMOOTH",
"74 -39 OFFCURVE",
"163 -118 OFFCURVE",
"214 -150 CURVE"
);
},
{
closed = 1;
nodes = (
"125 0 LINE",
"125 100 LINE",
"-50 100 LINE",
"-50 0 LINE"
);
},
{
closed = 1;
nodes = (
"287 -118 OFFCURVE",
"376 -39 OFFCURVE",
"376 100 CURVE SMOOTH",
"376 239 OFFCURVE",
"242 336 OFFCURVE",
"70 342 CURVE",
"50 250 LINE",
"133 250 OFFCURVE",
"193 232 OFFCURVE",
"225 200 CURVE SMOOTH",
"268 157 OFFCURVE",
"281 112 OFFCURVE",
"281 51 CURVE SMOOTH",
"281 -11 OFFCURVE",
"262 -100 OFFCURVE",
"236 -150 CURVE"
);
},
{
closed = 1;
nodes = (
"400 0 LINE",
"400 100 LINE",
"325 100 LINE",
"325 0 LINE"
);
},
{
closed = 1;
nodes = (
"150 250 LINE",
"156 327 OFFCURVE",
"184 365 OFFCURVE",
"225 392 CURVE",
"266 365 OFFCURVE",
"294 327 OFFCURVE",
"300 250 CURVE",
"400 250 LINE",
"401 362 OFFCURVE",
"333 466 OFFCURVE",
"225 500 CURVE",
"117 466 OFFCURVE",
"49 362 OFFCURVE",
"50 250 CURVE"
);
}
);
width = 400;
}
);
},
{
glyphname = "ain-ar.medi.01.04";
layers = (
{
anchors = (
{
name = top;
position = "{300, 550}";
}
);
layerId = "299DE00D-7BC2-4DFB-A399-2750234EE670";
paths = (
{
closed = 1;
nodes = (
"240 0 LINE",
"240 100 LINE",
"-50 100 LINE",
"-50 0 LINE"
);
},
{
closed = 1;
nodes = (
"215 -26 OFFCURVE",
"256 72 OFFCURVE",
"333 132 CURVE SMOOTH",
"400 184 OFFCURVE",
"485 200 OFFCURVE",
"550 200 CURVE",
"437 288 LINE",
"314 262 OFFCURVE",
"242 194 OFFCURVE",
"204 136 CURVE SMOOTH",
"130 23 OFFCURVE",
"178 -119 OFFCURVE",
"280 -150 CURVE"
);
},
{
closed = 1;
nodes = (
"550 0 LINE",
"550 100 LINE",
"350 100 LINE",
"350 0 LINE"
);
},
{
closed = 1;
nodes = (
"210 250 LINE",
"231 268 OFFCURVE",
"250 281 OFFCURVE",
"275 286 CURVE",
"278 304 OFFCURVE",
"282 308 OFFCURVE",
"300 321 CURVE",
"318 308 OFFCURVE",
"322 304 OFFCURVE",
"325 286 CURVE",
"350 281 OFFCURVE",
"369 268 OFFCURVE",
"390 250 CURVE",
"550 200 LINE",
"523 308 OFFCURVE",
"417 388 OFFCURVE",
"300 388 CURVE SMOOTH",
"183 388 OFFCURVE",
"77 308 OFFCURVE",
"50 200 CURVE"
);
},
{
closed = 1;
nodes = (
"381 375 LINE",
"381 438 OFFCURVE",
"300 440 OFFCURVE",
"300 500 CURVE",
"300 440 OFFCURVE",
"219 438 OFFCURVE",
"219 375 CURVE"
);
},
{
closed = 1;
nodes = (
"98 200 OFFCURVE",
"159 193 OFFCURVE",
"214 167 CURVE",
"236 194 OFFCURVE",
"262 218 OFFCURVE",
"291 238 CURVE",
"251 263 OFFCURVE",
"204 281 OFFCURVE",
"153 291 CURVE",
"50 200 LINE"
);
},
{
closed = 1;
nodes = (
"356 34 OFFCURVE",
"373 -50 OFFCURVE",
"320 -150 CURVE",
"422 -119 OFFCURVE",
"470 23 OFFCURVE",
"396 136 CURVE SMOOTH",
"392 141 OFFCURVE",
"389 147 OFFCURVE",
"384 153 CURVE",
"357 138 OFFCURVE",
"330 120 OFFCURVE",
"307 94 CURVE"
);
}
);
width = 550;
},
{
anchors = (
{
name = top;
position = "{300, 550}";
}
);
associatedMasterId = "299DE00D-7BC2-4DFB-A399-2750234EE670";
layerId = "049DDF45-282C-44AA-9E56-D1DE82E102E5";
name = "Oct 24 19, 22:03";
paths = (
{
closed = 1;
nodes = (
"446 29 LINE",
"403 171 OFFCURVE",
"299 262 OFFCURVE",
"153 291 CURVE",
"50 200 LINE",
"150 200 OFFCURVE",
"299 171 OFFCURVE",
"350 0 CURVE"
);
},
{
closed = 1;
nodes = (
"250 0 LINE",
"250 100 LINE",
"-20 100 LINE",
"-20 0 LINE"
);
},
{
closed = 1;
nodes = (
"301 171 OFFCURVE",
"450 200 OFFCURVE",
"550 200 CURVE",
"437 288 LINE",
"296 258 OFFCURVE",
"196 168 OFFCURVE",
"154 29 CURVE",
"250 0 LINE"
);
},
{
closed = 1;
nodes = (
"550 0 LINE",
"550 100 LINE",
"350 100 LINE",
"350 0 LINE"
);
},
{
closed = 1;
nodes = (
"210 250 LINE",
"231 268 OFFCURVE",
"250 281 OFFCURVE",
"275 286 CURVE",
"278 304 OFFCURVE",
"282 308 OFFCURVE",
"300 321 CURVE",
"318 308 OFFCURVE",
"322 304 OFFCURVE",
"325 286 CURVE",
"350 281 OFFCURVE",
"369 268 OFFCURVE",
"390 250 CURVE",
"550 200 LINE",
"523 308 OFFCURVE",
"417 388 OFFCURVE",
"300 388 CURVE SMOOTH",
"183 388 OFFCURVE",
"77 308 OFFCURVE",
"50 200 CURVE"
);
},
{
closed = 1;
nodes = (
"381 375 LINE",
"381 438 OFFCURVE",
"300 440 OFFCURVE",
"300 500 CURVE",
"300 440 OFFCURVE",
"219 438 OFFCURVE",
"219 375 CURVE"
);
},
{
closed = 1;
nodes = (
"550 190 LINE",
"398 190 OFFCURVE",
"297 124 OFFCURVE",
"260 -3 CURVE",
"250 0 LINE",
"301 171 OFFCURVE",
"450 200 OFFCURVE",
"550 200 CURVE"
);
},
{
closed = 1;
nodes = (
"144 32 LINE",
"187 173 OFFCURVE",
"290 267 OFFCURVE",
"435 298 CURVE",
"437 288 LINE",
"296 258 OFFCURVE",
"196 168 OFFCURVE",
"154 29 CURVE"
);
},
{
closed = 1;
nodes = (
"292 158 OFFCURVE",
"321 118 OFFCURVE",
"339 55 CURVE SMOOTH",
"355 -3 OFFCURVE",
"361 -94 OFFCURVE",
"350 -150 CURVE",
"390 -105 OFFCURVE",
"456 -4 OFFCURVE",
"417 129 CURVE SMOOTH",
"403 178 OFFCURVE",
"374 217 OFFCURVE",
"333 245 CURVE",
"294 226 OFFCURVE",
"267 205 OFFCURVE",
"254 180 CURVE"
);
},
{
closed = 1;
nodes = (
"333 205 OFFCURVE",
"306 226 OFFCURVE",
"267 245 CURVE",
"226 217 OFFCURVE",
"197 178 OFFCURVE",
"183 129 CURVE SMOOTH",
"145 -4 OFFCURVE",
"210 -105 OFFCURVE",
"250 -150 CURVE",
"239 -94 OFFCURVE",
"245 -3 OFFCURVE",
"261 55 CURVE SMOOTH",
"278 118 OFFCURVE",
"308 158 OFFCURVE",
"346 180 CURVE"
);
}
);
width = 550;
}
);
},
{
glyphname = "ain-ar.medi.01.05";
layers = (
{
anchors = (
{
name = top;
position = "{200, 500}";
}
);
guideLines = (
{
position = "{550, 450}";
},
{
angle = 90;
position = "{325, 246}";
},
{
angle = 90;
position = "{75, 246}";
}
);
layerId = "299DE00D-7BC2-4DFB-A399-2750234EE670";
paths = (
{
closed = 1;
nodes = (
"143 284 OFFCURVE",
"169 299 OFFCURVE",
"191 315 CURVE",
"171 332 OFFCURVE",
"155 351 OFFCURVE",
"148 379 CURVE SMOOTH",
"141 407 OFFCURVE",
"147 436 OFFCURVE",
"175 450 CURVE",
"130 450 OFFCURVE",
"81 420 OFFCURVE",
"81 350 CURVE SMOOTH",
"81 315 OFFCURVE",
"97 288 OFFCURVE",
"119 265 CURVE"
);
},
{
closed = 1;
nodes = (
"350 0 LINE",
"350 100 LINE SMOOTH",
"350 178 OFFCURVE",
"319 220 OFFCURVE",
"281 251 CURVE",
"258 229 OFFCURVE",
"231 211 OFFCURVE",
"208 194 CURVE",
"237 169 OFFCURVE",
"250 146 OFFCURVE",
"250 100 CURVE",
"150 100 LINE",
"150 150 OFFCURVE",
"165 173 OFFCURVE",
"200 200 CURVE SMOOTH",
"252 240 OFFCURVE",
"319 279 OFFCURVE",
"319 350 CURVE SMOOTH",
"319 420 OFFCURVE",
"270 450 OFFCURVE",
"225 450 CURVE",
"253 436 OFFCURVE",
"259 407 OFFCURVE",
"252 379 CURVE SMOOTH",
"225 268 OFFCURVE",
"50 284 OFFCURVE",
"50 100 CURVE",
"-50 100 LINE",
"-50 0 LINE"
);
}
);
width = 350;
},
{
anchors = (
{
name = top;
position = "{200, 500}";
}
);
associatedMasterId = "299DE00D-7BC2-4DFB-A399-2750234EE670";
guideLines = (
{
position = "{550, 450}";
},
{
angle = 90;
position = "{325, 246}";
},
{
angle = 90;
position = "{75, 246}";
}
);
layerId = "C586681A-9086-4A33-8DB0-AF0180F7EA59";
name = "Jan 15 20, 23:07";
paths = (
{
closed = 1;
nodes = (
"350 0 LINE",
"350 100 LINE",
"-50 100 LINE",
"-50 0 LINE"
);
},
{
closed = 1;
nodes = (
"150 150 OFFCURVE",
"165 173 OFFCURVE",
"200 200 CURVE SMOOTH",
"252 240 OFFCURVE",
"319 279 OFFCURVE",
"319 350 CURVE SMOOTH",
"319 420 OFFCURVE",
"270 450 OFFCURVE",
"225 450 CURVE",
"253 436 OFFCURVE",
"259 407 OFFCURVE",
"252 379 CURVE SMOOTH",
"225 268 OFFCURVE",
"50 284 OFFCURVE",
"50 100 CURVE",
"150 100 LINE"
);
},
{
closed = 1;
nodes = (
"350 100 LINE",
"350 284 OFFCURVE",
"176 268 OFFCURVE",
"148 379 CURVE SMOOTH",
"141 407 OFFCURVE",
"147 436 OFFCURVE",
"175 450 CURVE",
"130 450 OFFCURVE",
"81 420 OFFCURVE",
"81 350 CURVE SMOOTH",
"81 279 OFFCURVE",
"148 240 OFFCURVE",
"200 200 CURVE SMOOTH",
"235 173 OFFCURVE",
"250 150 OFFCURVE",
"250 100 CURVE"
);
}
);
width = 350;
}
);
},
{
glyphname = "ain-ar.init";
layers = (
{
anchors = (
{
name = exit;
position = "{-50, 0}";
},
{
name = top;
position = "{150, 400}";
}
);
layerId = "299DE00D-7BC2-4DFB-A399-2750234EE670";
paths = (
{
closed = 1;
nodes = (
"278 122 OFFCURVE",
"250 100 OFFCURVE",
"218 100 CURVE SMOOTH",
"177 100 OFFCURVE",
"143 134 OFFCURVE",
"143 175 CURVE SMOOTH",
"143 216 OFFCURVE",
"177 250 OFFCURVE",
"218 250 CURVE SMOOTH",
"244 250 OFFCURVE",
"268 236 OFFCURVE",
"281 215 CURVE",
"275 252 OFFCURVE",
"263 275 OFFCURVE",
"224 290 CURVE",
"240 323 OFFCURVE",
"237 366 OFFCURVE",
"218 400 CURVE",
"212 358 OFFCURVE",
"193 323 OFFCURVE",
"129 291 CURVE SMOOTH",
"55 254 OFFCURVE",
"25 179 OFFCURVE",
"50 100 CURVE",
"-50 100 LINE",
"-50 0 LINE",
"388 0 LINE",
"330 23 OFFCURVE",
"288 85 OFFCURVE",
"288 150 CURVE"
);
}
);
width = 388;
},
{
associatedMasterId = "299DE00D-7BC2-4DFB-A399-2750234EE670";
layerId = "4ABA46D0-08BE-4426-888B-34CB4EFFAE46";
name = "Oct 17 19, 21:30";
paths = (
{
closed = 1;
nodes = (
"-50 0 LINE",
"300 0 LINE",
"450 0 LINE",
"392 23 OFFCURVE",
"350 85 OFFCURVE",
"350 150 CURVE",
"342 123 OFFCURVE",
"321 101 OFFCURVE",
"311 90 CURVE",
"173 99 LINE",
"-50 100 LINE"
);
},
{
closed = 1;
nodes = (
"705 106 OFFCURVE",
"761 50 OFFCURVE",
"830 50 CURVE SMOOTH",
"899 50 OFFCURVE",
"955 106 OFFCURVE",
"955 175 CURVE SMOOTH",
"955 244 OFFCURVE",
"899 300 OFFCURVE",
"830 300 CURVE SMOOTH",
"761 300 OFFCURVE",
"705 244 OFFCURVE",
"705 175 CURVE SMOOTH"
);
},
{
closed = 1;
nodes = (
"805 216 OFFCURVE",
"839 250 OFFCURVE",
"880 250 CURVE SMOOTH",
"921 250 OFFCURVE",
"955 216 OFFCURVE",
"955 175 CURVE SMOOTH",
"955 134 OFFCURVE",
"921 100 OFFCURVE",
"880 100 CURVE SMOOTH",
"839 100 OFFCURVE",
"805 134 OFFCURVE",
"805 175 CURVE SMOOTH"
);
},
{
closed = 1;
nodes = (
"105 712 OFFCURVE",
"161 656 OFFCURVE",
"230 656 CURVE SMOOTH",
"290 656 OFFCURVE",
"340 699 OFFCURVE",
"352 755 CURVE",
"342 727 OFFCURVE",
"314 706 OFFCURVE",
"282 706 CURVE SMOOTH",
"241 706 OFFCURVE",
"207 740 OFFCURVE",
"207 781 CURVE SMOOTH",
"207 822 OFFCURVE",
"241 856 OFFCURVE",
"282 856 CURVE SMOOTH",
"314 856 OFFCURVE",
"342 835 OFFCURVE",
"352 807 CURVE",
"340 863 OFFCURVE",
"290 906 OFFCURVE",
"230 906 CURVE SMOOTH",
"161 906 OFFCURVE",
"105 850 OFFCURVE",
"105 781 CURVE SMOOTH"
);
},
{
closed = 1;
nodes = (
"103 106 OFFCURVE",
"159 50 OFFCURVE",
"228 50 CURVE SMOOTH",
"288 50 OFFCURVE",
"338 93 OFFCURVE",
"350 150 CURVE",
"340 122 OFFCURVE",
"312 100 OFFCURVE",
"280 100 CURVE SMOOTH",
"239 100 OFFCURVE",
"205 134 OFFCURVE",
"205 175 CURVE SMOOTH",
"205 216 OFFCURVE",
"239 250 OFFCURVE",
"280 250 CURVE SMOOTH",
"312 250 OFFCURVE",
"340 229 OFFCURVE",
"350 201 CURVE",
"340 274 OFFCURVE",
"288 300 OFFCURVE",
"228 300 CURVE SMOOTH",
"159 300 OFFCURVE",
"103 244 OFFCURVE",
"103 175 CURVE SMOOTH"
);
},
{
closed = 1;
nodes = (
"272 348 OFFCURVE",
"239 311 OFFCURVE",
"181 290 CURVE",
"268 266 LINE",
"303 300 OFFCURVE",
"304 357 OFFCURVE",
"280 400 CURVE"
);
},
{
closed = 1;
nodes = (
"100 135 OFFCURVE",
"112 93 OFFCURVE",
"123 72 CURVE",
"181 80 LINE",
"103 175 LINE"
);
}
);
width = 500;
}
);
},
{
glyphname = "fehDotless-ar";
layers = (
{
components = (
{
alignment = -1;
name = "fehDotless-ar.init";
transform = "{1, 0, 0, 1, 500, 0}";
},
{
name = _zuluf100;
transform = "{-1, 0, 0, 1, 150, 0}";
}
);
layerId = "299DE00D-7BC2-4DFB-A399-2750234EE670";
paths = (
{
closed = 1;
nodes = (
"550 0 LINE",
"550 100 LINE",
"150 100 LINE",
"150 0 LINE"
);
}
);
width = 800;
}
);
leftKerningGroup = "straight-l";
unicode = 06A1;
},
{
glyphname = "fehDotless-ar.01.01";
layers = (
{
components = (
{
alignment = -1;
name = "fehDotless-ar.init.01.01";
transform = "{1, 0, 0, 1, 500, 0}";
},
{
name = _zuluf100;
transform = "{-1, 0, 0, 1, 150, 0}";
}
);
layerId = "299DE00D-7BC2-4DFB-A399-2750234EE670";
paths = (
{
closed = 1;
nodes = (
"600 0 LINE",
"600 100 LINE",
"150 100 LINE",
"150 0 LINE"
);
}
);
width = 800;
}
);
leftKerningGroup = "straight-l";
},
{
glyphname = "fehDotless-ar.01.02";
layers = (
{
components = (
{
alignment = -1;
name = "fehDotless-ar.init.01.02";
transform = "{1, 0, 0, 1, 500, 0}";
},
{
name = _zuluf100;
transform = "{-1, 0, 0, 1, 150, 0}";
}
);
layerId = "299DE00D-7BC2-4DFB-A399-2750234EE670";
paths = (
{
closed = 1;
nodes = (
"600 0 LINE",
"600 100 LINE",
"150 100 LINE",
"150 0 LINE"
);
}
);
width = 800;
}
);
leftKerningGroup = "straight-l";
},
{
glyphname = "fehDotless-ar.medi";
layers = (
{
components = (
{
name = _head;
transform = "{1, 0, 0, 1, 50, 150}";
}
);
layerId = "299DE00D-7BC2-4DFB-A399-2750234EE670";
paths = (
{
closed = 1;
nodes = (
"300 0 LINE",
"300 100 LINE",
"-50 100 LINE",
"-50 0 LINE"
);
},
{
closed = 1;
nodes = (
"300 0 LINE",
"300 200 LINE",
"200 200 LINE",
"200 0 LINE"
);
}
);
width = 300;
}
);
leftKerningGroup = "straight-l";
},
{
glyphname = "fehDotless-ar.medi.01.01";
layers = (
{
components = (
{
name = _elbow.1;
transform = "{1, 0, 0, 1, 50, 0}";
},
{
name = _head;
transform = "{1, 0, 0, 1, 50, 150}";
}
);
layerId = "299DE00D-7BC2-4DFB-A399-2750234EE670";
paths = (
{
closed = 1;
nodes = (
"300 0 LINE",
"300 200 LINE",
"200 200 LINE",
"200 0 LINE"
);
},
{
closed = 1;
nodes = (
"150 0 LINE",
"150 100 LINE",
"-50 100 LINE",
"-50 0 LINE"
);
}
);
width = 300;
}
);
leftKerningGroup = "straight-l";
},
{
glyphname = "fehDotless-ar.medi.01.02";
layers = (
{
components = (
{
name = _elbow.2;
transform = "{1, 0, 0, 1, 50, 0}";
},
{
name = _head;
transform = "{1, 0, 0, 1, 50, 150}";
}
);
layerId = "299DE00D-7BC2-4DFB-A399-2750234EE670";
paths = (
{
closed = 1;
nodes = (
"300 0 LINE",
"300 200 LINE",
"200 200 LINE",
"200 0 LINE"
);
},
{
closed = 1;
nodes = (
"150 0 LINE",
"150 100 LINE",
"-50 100 LINE",
"-50 0 LINE"
);
}
);
width = 300;
}
);
leftKerningGroup = "straight-l";
},
{
glyphname = "fehDotless-ar.medi.01.03";
layers = (
{
anchors = (
{
name = top;
position = "{183, 500}";
}
);
layerId = "299DE00D-7BC2-4DFB-A399-2750234EE670";
paths = (
{
closed = 1;
nodes = (
"315 0 LINE",
"315 100 LINE",
"-50 100 LINE",
"-50 0 LINE"
);
},
{
closed = 1;
nodes = (
"233 0 LINE",
"233 200 LINE",
"133 200 LINE",
"133 0 LINE"
);
},
{
closed = 1;
nodes = (
"171 267 OFFCURVE",
"161 277 OFFCURVE",
"161 289 CURVE SMOOTH",
"161 301 OFFCURVE",
"171 311 OFFCURVE",
"183 311 CURVE SMOOTH",
"195 311 OFFCURVE",
"205 301 OFFCURVE",
"205 289 CURVE SMOOTH",
"205 277 OFFCURVE",
"195 267 OFFCURVE",
"183 267 CURVE SMOOTH"
);
},
{
closed = 1;
nodes = (
"276 167 OFFCURVE",
"319 213 OFFCURVE",
"315 280 CURVE SMOOTH",
"309 373 OFFCURVE",
"205 382 OFFCURVE",
"183 445 CURVE",
"161 382 OFFCURVE",
"57 373 OFFCURVE",
"51 280 CURVE SMOOTH",
"47 213 OFFCURVE",
"90 167 OFFCURVE",
"183 167 CURVE SMOOTH"
);
}
);
width = 315;
},
{
associatedMasterId = "299DE00D-7BC2-4DFB-A399-2750234EE670";
layerId = "E4F7FDBA-1D4D-4113-A288-DCC5BB517E11";
name = "Feb 24 20, 23:34";
paths = (
{
closed = 1;
nodes = (
"333 0 LINE",
"333 100 LINE",
"-17 100 LINE",
"-17 0 LINE"
);
},
{
closed = 1;
nodes = (
"233 0 LINE",
"233 200 LINE",
"133 200 LINE",
"133 0 LINE"
);
},
{
closed = 1;
nodes = (
"195 267 OFFCURVE",
"205 277 OFFCURVE",
"205 289 CURVE SMOOTH",
"205 301 OFFCURVE",
"195 311 OFFCURVE",
"183 311 CURVE SMOOTH",
"171 311 OFFCURVE",
"161 301 OFFCURVE",
"161 289 CURVE SMOOTH",
"161 277 OFFCURVE",
"171 267 OFFCURVE",
"183 267 CURVE SMOOTH"
);
},
{
closed = 1;
nodes = (
"250 167 OFFCURVE",
"305 222 OFFCURVE",
"305 289 CURVE SMOOTH",
"305 356 OFFCURVE",
"250 411 OFFCURVE",
"183 411 CURVE SMOOTH",
"116 411 OFFCURVE",
"61 356 OFFCURVE",
"61 289 CURVE SMOOTH",
"61 222 OFFCURVE",
"116 167 OFFCURVE",
"183 167 CURVE SMOOTH"
);
}
);
visible = 1;
width = 315;
}
);
leftKerningGroup = "straight-l";
},
{
glyphname = "fehDotless-ar.medi.01.04";
layers = (
{
anchors = (
{
name = top;
position = "{183, 500}";
}
);
layerId = "299DE00D-7BC2-4DFB-A399-2750234EE670";
paths = (
{
closed = 1;
nodes = (
"315 0 LINE",
"315 100 LINE",
"-50 100 LINE",
"-50 0 LINE"
);
},
{
closed = 1;
nodes = (
"233 0 LINE",
"233 200 LINE",
"133 200 LINE",
"133 0 LINE"
);
},
{
closed = 1;
nodes = (
"171 267 OFFCURVE",
"161 277 OFFCURVE",
"161 289 CURVE SMOOTH",
"161 301 OFFCURVE",
"171 311 OFFCURVE",
"183 311 CURVE SMOOTH",
"195 311 OFFCURVE",
"205 301 OFFCURVE",
"205 289 CURVE SMOOTH",
"205 277 OFFCURVE",
"195 267 OFFCURVE",
"183 267 CURVE SMOOTH"
);
},
{
closed = 1;
nodes = (
"247 167 OFFCURVE",
"287 189 OFFCURVE",
"305 225 CURVE SMOOTH",
"315 245 OFFCURVE",
"311 279 OFFCURVE",
"290 289 CURVE",
"303 299 OFFCURVE",
"304 322 OFFCURVE",
"296 334 CURVE SMOOTH",
"264 381 OFFCURVE",
"200 397 OFFCURVE",
"183 445 CURVE",
"166 397 OFFCURVE",
"102 381 OFFCURVE",
"70 334 CURVE SMOOTH",
"62 322 OFFCURVE",
"63 299 OFFCURVE",
"76 289 CURVE",
"55 279 OFFCURVE",
"51 245 OFFCURVE",
"61 225 CURVE SMOOTH",
"79 189 OFFCURVE",
"119 167 OFFCURVE",
"183 167 CURVE SMOOTH"
);
}
);
width = 315;
},
{
annotations = (
{
position = "{863.016, 263.531}";
type = Text;
}
);
associatedMasterId = "299DE00D-7BC2-4DFB-A399-2750234EE670";
layerId = "89192E01-6409-4E70-B772-D032F6C6CB6F";
name = "Feb 25 20, 00:31";
paths = (
{
closed = 1;
nodes = (
"315 0 LINE",
"315 100 LINE",
"-50 100 LINE",
"-50 0 LINE"
);
},
{
closed = 1;
nodes = (
"233 0 LINE",
"233 200 LINE",
"133 200 LINE",
"133 0 LINE"
);
},
{
closed = 1;
nodes = (
"171 267 OFFCURVE",
"161 277 OFFCURVE",
"161 289 CURVE SMOOTH",
"161 301 OFFCURVE",
"171 311 OFFCURVE",
"183 311 CURVE SMOOTH",
"195 311 OFFCURVE",
"205 301 OFFCURVE",
"205 289 CURVE SMOOTH",
"205 277 OFFCURVE",
"195 267 OFFCURVE",
"183 267 CURVE SMOOTH"
);
},
{
closed = 1;
nodes = (
"276 167 OFFCURVE",
"319 213 OFFCURVE",
"315 280 CURVE SMOOTH",
"309 373 OFFCURVE",
"205 382 OFFCURVE",
"183 445 CURVE",
"161 382 OFFCURVE",
"57 373 OFFCURVE",
"51 280 CURVE SMOOTH",
"47 213 OFFCURVE",
"90 167 OFFCURVE",
"183 167 CURVE SMOOTH"
);
}
);
visible = 1;
width = 315;
}
);
leftKerningGroup = "straight-l";
},
{
glyphname = "fehDotless-ar.medi.01.05";
layers = (
{
anchors = (
{
name = top;
position = "{175, 550}";
}
);
guideLines = (
{
position = "{-156, 233}";
},
{
position = "{-156, 366}";
},
{
position = "{-156, 500}";
},
{
angle = 90;
position = "{175, 100}";
},
{
angle = 90;
position = "{50, 100}";
},
{
angle = 90;
position = "{300, 100}";
},
{
position = "{-156, 144}";
},
{
position = "{-156, 188}";
}
);
layerId = "299DE00D-7BC2-4DFB-A399-2750234EE670";
paths = (
{
closed = 1;
nodes = (
"300 0 LINE",
"300 100 LINE",
"-50 100 LINE",
"-50 0 LINE"
);
},
{
closed = 1;
nodes = (
"246 100 OFFCURVE",
"222 124 OFFCURVE",
"225 144 CURVE SMOOTH",
"230 179 OFFCURVE",
"273 223 OFFCURVE",
"300 233 CURVE",
"282 266 OFFCURVE",
"282 333 OFFCURVE",
"300 366 CURVE",
"175 500 LINE",
"50 366 LINE",
"68 333 OFFCURVE",
"68 266 OFFCURVE",
"50 233 CURVE",
"77 223 OFFCURVE",
"120 179 OFFCURVE",
"125 144 CURVE SMOOTH",
"128 124 OFFCURVE",
"104 100 OFFCURVE",
"100 100 CURVE",
"100 89 LINE",
"250 89 LINE",
"250 100 LINE"
);
},
{
closed = 1;
nodes = (
"161 256 OFFCURVE",
"150 275 OFFCURVE",
"150 300 CURVE SMOOTH",
"150 324 OFFCURVE",
"161 343 OFFCURVE",
"175 343 CURVE SMOOTH",
"189 343 OFFCURVE",
"200 324 OFFCURVE",
"200 300 CURVE SMOOTH",
"200 275 OFFCURVE",
"189 256 OFFCURVE",
"175 256 CURVE SMOOTH"
);
}
);
width = 300;
}
);
leftKerningGroup = "straight-l";
},
{
glyphname = "qafDotless-ar";
layers = (
{
components = (
{
name = _head;
}
);
layerId = "299DE00D-7BC2-4DFB-A399-2750234EE670";
paths = (
{
closed = 1;
nodes = (
"250 50 LINE",
"150 50 LINE",
"150 0 LINE",
"150 -55 OFFCURVE",
"105 -100 OFFCURVE",
"50 -100 CURVE",
"-5 -100 OFFCURVE",
"-50 -55 OFFCURVE",
"-50 0 CURVE",
"-50 -83 OFFCURVE",
"17 -150 OFFCURVE",
"100 -150 CURVE",
"183 -150 OFFCURVE",
"250 -83 OFFCURVE",
"250 0 CURVE"
);
}
);
width = 250;
}
);
leftKerningGroup = "straight-l";
rightKerningGroup = "straight-r";
unicode = 066F;
},
{
glyphname = "kaf-ar";
layers = (
{
components = (
{
alignment = -1;
name = _zuluf100;
transform = "{-1, 0, 0, 1, 150, 0}";
},
{
alignment = -1;
name = "-kaf";
transform = "{1, 0, 0, 1, 100, 0}";
},
{
alignment = -1;
name = _kaf.top1;
transform = "{1, 0, 0, 1, 475, 0}";
}
);
layerId = "299DE00D-7BC2-4DFB-A399-2750234EE670";
paths = (
{
closed = 1;
nodes = (
"290 150 LINE",
"575 435 LINE",
"513 513 LINE",
"150 150 LINE"
);
}
);
width = 900;
},
{
associatedMasterId = "299DE00D-7BC2-4DFB-A399-2750234EE670";
hints = (
{
origin = "{1, 3}";
scale = "{1, -1}";
type = Corner;
name = _corner.100;
options = 1;
},
{
origin = "{2, 1}";
type = Corner;
name = _corner.150;
}
);
layerId = "0509D8F6-DA17-423F-B871-97DCD1D62DB6";
name = "Oct 21 19, 11:12";
paths = (
{
closed = 1;
nodes = (
"290 150 LINE",
"892 752 LINE",
"822 822 LINE",
"150 150 LINE"
);
},
{
closed = 1;
nodes = (
"150 0 LINE",
"150 100 LINE",
"150 100 LINE",
"150 0 LINE"
);
},
{
closed = 1;
nodes = (
"575 435 LINE",
"575 1000 LINE",
"475 1000 LINE",
"475 435 LINE"
);
},
{
closed = 0;
nodes = (
"525 1200 LINE",
"525 -100 LINE"
);
}
);
visible = 1;
width = 900;
}
);
leftKerningGroup = "straight-l";
unicode = 0643;
},
{
glyphname = "kaf-ar.03.00";
layers = (
{
components = (
{
alignment = -1;
name = "-kaf";
transform = "{1, 0, 0, 1, 100, 0}";
},
{
alignment = -1;
name = _zuluf100;
transform = "{-0.71934, 0.69466, -0.69466, -0.71934, 392, 893}";
},
{
alignment = -1;
name = _zuluf100;
transform = "{-1, 0, 0, 1, 150, 0}";
}
);
layerId = "299DE00D-7BC2-4DFB-A399-2750234EE670";
paths = (
{
closed = 1;
nodes = (
"291 150 LINE",
"713 572 LINE",
"610 611 LINE",
"150 150 LINE"
);
},
{
closed = 1;
nodes = (
"713 572 LINE",
"392 893 LINE",
"321 823 LINE",
"604 539 LINE"
);
}
);
width = 900;
}
);
leftKerningGroup = "straight-l";
},
{
glyphname = "kaf-ar.04.00";
layers = (
{
components = (
{
alignment = -1;
name = "-kaf";
transform = "{1, 0, 0, 1, 100, 0}";
},
{
alignment = -1;
name = _kaf.top3;
transform = "{1, 0, 0, 1, 100, 0}";
},
{
alignment = -1;
name = _zuluf100;
transform = "{-1, 0, 0, 1, 150, 0}";
}
);
layerId = "299DE00D-7BC2-4DFB-A399-2750234EE670";
paths = (
{
closed = 1;
nodes = (
"350 150 LINE",
"350 250 LINE",
"150 250 LINE",
"150 150 LINE"
);
}
);
width = 900;
}
);
leftKerningGroup = "straight-l";
},
{
glyphname = "kaf-ar.05.00";
layers = (
{
components = (
{
alignment = -1;
name = "-kaf";
transform = "{1, 0, 0, 1, 100, 0}";
},
{
alignment = -1;
name = _zuluf100;
transform = "{-1, 0, 0, 1, 150, 0}";
}
);
layerId = "299DE00D-7BC2-4DFB-A399-2750234EE670";
paths = (
{
closed = 1;
nodes = (
"350 150 LINE",
"350 250 LINE",
"230 250 LINE",
"150 150 LINE"
);
},
{
closed = 1;
nodes = (
"636 1113 OFFCURVE",
"529 1200 OFFCURVE",
"351 1200 CURVE",
"150 1200 LINE",
"208 1161 OFFCURVE",
"244 1114 OFFCURVE",
"250 1050 CURVE",
"285 1083 OFFCURVE",
"304 1100 OFFCURVE",
"351 1100 CURVE SMOOTH",
"477 1100 OFFCURVE",
"541 1051 OFFCURVE",
"550 946 CURVE SMOOTH",
"566 757 OFFCURVE",
"433 574 OFFCURVE",
"305 399 CURVE SMOOTH",
"248 321 OFFCURVE",
"170 217 OFFCURVE",
"150 150 CURVE",
"257 150 LINE",
"349 330 OFFCURVE",
"678 632 OFFCURVE",
"650 954 CURVE SMOOTH"
);
}
);
width = 900;
}
);
leftKerningGroup = "straight-l";
},
{
glyphname = "kaf-ar.06.00";
layers = (
{
components = (
{
alignment = -1;
name = _zuluf100;
transform = "{-1, 0, 0, 1, 150, 0}";
},
{
alignment = -1;
name = "-kaf";
transform = "{1, 0, 0, 1, 100, 0}";
},
{
alignment = -1;
name = _kaf.top4;
transform = "{1, 0, 0, 1, 475, 0}";
}
);
layerId = "299DE00D-7BC2-4DFB-A399-2750234EE670";
paths = (
{
closed = 1;
nodes = (
"290 150 LINE",
"575 435 LINE",
"513 513 LINE",
"150 150 LINE"
);
}
);
width = 900;
},
{
associatedMasterId = "299DE00D-7BC2-4DFB-A399-2750234EE670";
hints = (
{
origin = "{1, 3}";
scale = "{1, -1}";
type = Corner;
name = _corner.100;
options = 1;
},
{
origin = "{2, 1}";
type = Corner;
name = _corner.150;
}
);
layerId = "0509D8F6-DA17-423F-B871-97DCD1D62DB6";
name = "Oct 21 19, 11:12";
paths = (
{
closed = 1;
nodes = (
"290 150 LINE",
"892 752 LINE",
"822 822 LINE",
"150 150 LINE"
);
},
{
closed = 1;
nodes = (
"150 0 LINE",
"150 100 LINE",
"150 100 LINE",
"150 0 LINE"
);
},
{
closed = 1;
nodes = (
"575 435 LINE",
"575 1000 LINE",
"475 1000 LINE",
"475 435 LINE"
);
},
{
closed = 0;
nodes = (
"525 1200 LINE",
"525 -100 LINE"
);
}
);
width = 900;
}
);
leftKerningGroup = "straight-l";
},
{
glyphname = "kaf-ar.init";
layers = (
{
components = (
{
name = "-kaf";
},
{
name = _kaf.top1;
transform = "{1, 0, 0, 1, 375, 0}";
}
);
layerId = "299DE00D-7BC2-4DFB-A399-2750234EE670";
paths = (
{
closed = 1;
nodes = (
"190 150 LINE",
"475 435 LINE",
"413 513 LINE",
"50 150 LINE"
);
},
{
closed = 1;
nodes = (
"-8 0 LINE",
"42 0 LINE",
"42 100 LINE",
"-8 100 LINE"
);
}
);
width = 800;
}
);
leftKerningGroup = "straight-l";
},
{
glyphname = "kaf-ar.init.02.00";
layers = (
{
components = (
{
name = "-kaf";
},
{
name = _kaf.top2;
}
);
layerId = "299DE00D-7BC2-4DFB-A399-2750234EE670";
paths = (
{
closed = 1;
nodes = (
"-8 0 LINE",
"42 0 LINE",
"42 100 LINE",
"-8 100 LINE"
);
}
);
width = 800;
}
);
leftKerningGroup = "straight-l";
},
{
glyphname = "kaf-ar.init.03.00";
layers = (
{
components = (
{
name = "-kaf";
},
{
name = _zuluf100;
transform = "{-0.71934, 0.69466, -0.69466, -0.71934, 292, 893}";
}
);
layerId = "299DE00D-7BC2-4DFB-A399-2750234EE670";
paths = (
{
closed = 1;
nodes = (
"191 150 LINE",
"613 572 LINE",
"510 611 LINE",
"50 150 LINE"
);
},
{
closed = 1;
nodes = (
"613 572 LINE",
"292 893 LINE",
"221 823 LINE",
"504 539 LINE"
);
},
{
closed = 1;
nodes = (
"-8 0 LINE",
"42 0 LINE",
"42 100 LINE",
"-8 100 LINE"
);
}
);
width = 800;
},
{
associatedMasterId = "299DE00D-7BC2-4DFB-A399-2750234EE670";
hints = (
{
origin = "{0, 2}";
type = Corner;
name = _corner.100;
}
);
layerId = "E07AAD0F-C18A-43C2-AC7F-200FA2BAAFFE";
name = "Oct 21 19, 15:07";
paths = (
{
closed = 1;
nodes = (
"631 412 LINE",
"702 483 LINE",
"292 893 LINE",
"221 823 LINE"
);
},
{
closed = 1;
nodes = (
"121 80 LINE",
"672 631 LINE",
"601 702 LINE",
"50 150 LINE"
);
}
);
visible = 1;
width = 800;
}
);
leftKerningGroup = "straight-l";
},
{
glyphname = "kaf-ar.init.04.00";
layers = (
{
components = (
{
name = "-kaf";
},
{
name = _kaf.top3;
}
);
layerId = "299DE00D-7BC2-4DFB-A399-2750234EE670";
paths = (
{
closed = 1;
nodes = (
"250 150 LINE",
"250 250 LINE",
"50 250 LINE",
"50 150 LINE"
);
},
{
closed = 1;
nodes = (
"-8 0 LINE",
"42 0 LINE",
"42 100 LINE",
"-8 100 LINE"
);
}
);
width = 800;
},
{
associatedMasterId = "299DE00D-7BC2-4DFB-A399-2750234EE670";
layerId = "F20E6E81-92CD-472E-829B-00859FB8F425";
name = "Oct 21 19, 16:22";
paths = (
{
closed = 1;
nodes = (
"828 886 LINE",
"757 957 LINE",
"50 250 LINE",
"121 179 LINE"
);
},
{
closed = 1;
nodes = (
"800 858 LINE",
"800 1200 LINE",
"700 1200 LINE",
"700 858 LINE"
);
}
);
visible = 1;
width = 800;
}
);
leftKerningGroup = "straight-l";
},
{
glyphname = "kaf-ar.init.05.00";
layers = (
{
components = (
{
name = "-kaf";
}
);
layerId = "299DE00D-7BC2-4DFB-A399-2750234EE670";
paths = (
{
closed = 1;
nodes = (
"250 150 LINE",
"250 250 LINE",
"130 250 LINE",
"50 150 LINE"
);
},
{
closed = 1;
nodes = (
"536 1113 OFFCURVE",
"429 1200 OFFCURVE",
"251 1200 CURVE",
"50 1200 LINE",
"108 1161 OFFCURVE",
"144 1114 OFFCURVE",
"150 1050 CURVE",
"185 1083 OFFCURVE",
"204 1100 OFFCURVE",
"251 1100 CURVE SMOOTH",
"377 1100 OFFCURVE",
"441 1051 OFFCURVE",
"450 946 CURVE SMOOTH",
"466 757 OFFCURVE",
"333 574 OFFCURVE",
"205 399 CURVE SMOOTH",
"148 321 OFFCURVE",
"70 217 OFFCURVE",
"50 150 CURVE",
"157 150 LINE",
"249 330 OFFCURVE",
"578 632 OFFCURVE",
"550 954 CURVE SMOOTH"
);
},
{
closed = 1;
nodes = (
"-8 0 LINE",
"42 0 LINE",
"42 100 LINE",
"-8 100 LINE"
);
}
);
width = 800;
},
{
associatedMasterId = "299DE00D-7BC2-4DFB-A399-2750234EE670";
layerId = "C37DDF31-BD40-4D20-BEB4-D0A0DA801428";
name = "Oct 21 19, 16:54";
paths = (
{
closed = 1;
nodes = (
"250 150 LINE",
"250 250 LINE",
"50 250 LINE",
"50 150 LINE"
);
},
{
closed = 1;
nodes = (
"378 1100 OFFCURVE",
"441 1051 OFFCURVE",
"450 946 CURVE SMOOTH",
"466 757 OFFCURVE",
"333 574 OFFCURVE",
"205 399 CURVE SMOOTH",
"148 321 OFFCURVE",
"92 244 OFFCURVE",
"55 173 CURVE",
"145 127 LINE",
"250 336 OFFCURVE",
"578 632 OFFCURVE",
"550 954 CURVE SMOOTH",
"536 1113 OFFCURVE",
"429 1200 OFFCURVE",
"250 1200 CURVE",
"250 1100 LINE"
);
},
{
closed = 0;
nodes = (
"100 150 LINE",
"211 369 OFFCURVE",
"527 650 OFFCURVE",
"500 950 CURVE SMOOTH",
"490 1061 OFFCURVE",
"426 1150 OFFCURVE",
"250 1150 CURVE"
);
}
);
width = 800;
}
);
leftKerningGroup = "straight-l";
},
{
glyphname = "kaf-ar.init.06.00";
layers = (
{
components = (
{
name = "-kaf";
},
{
name = _kaf.top4;
transform = "{1, 0, 0, 1, 375, 0}";
}
);
layerId = "299DE00D-7BC2-4DFB-A399-2750234EE670";
paths = (
{
closed = 1;
nodes = (
"190 150 LINE",
"475 435 LINE",
"413 513 LINE",
"50 150 LINE"
);
},
{
closed = 1;
nodes = (
"-8 0 LINE",
"42 0 LINE",
"42 100 LINE",
"-8 100 LINE"
);
}
);
width = 800;
}
);
leftKerningGroup = "straight-l";
},
{
glyphname = "lam-ar";
layers = (
{
components = (
{
alignment = -1;
name = "alef-ar.01.04";
transform = "{1, 0, 0, 1, 350, 0}";
},
{
name = _zuluf100;
transform = "{-1, 0, 0, 1, 150, -150}";
}
);
layerId = "299DE00D-7BC2-4DFB-A399-2750234EE670";
paths = (
{
closed = 1;
nodes = (
"450 -150 LINE",
"450 -50 LINE",
"150 -50 LINE",
"150 -150 LINE"
);
},
{
closed = 1;
nodes = (
"450 -100 LINE",
"450 50 LINE",
"350 50 LINE",
"350 -100 LINE"
);
}
);
width = 450;
}
);
leftKerningGroup = "straight-l";
unicode = 0644;
},
{
glyphname = "lam-ar.01.01";
layers = (
{
components = (
{
alignment = -1;
name = "alef-ar.01.05";
transform = "{1, 0, 0, 1, 350, 0}";
},
{
name = _zuluf100;
transform = "{-1, 0, 0, 1, 150, -150}";
}
);
layerId = "299DE00D-7BC2-4DFB-A399-2750234EE670";
paths = (
{
closed = 1;
nodes = (
"450 -150 LINE",
"450 -50 LINE",
"150 -50 LINE",
"150 -150 LINE"
);
},
{
closed = 1;
nodes = (
"450 -100 LINE",
"450 50 LINE",
"350 50 LINE",
"350 -100 LINE"
);
}
);
width = 450;
}
);
leftKerningGroup = "straight-l";
},
{
glyphname = "lam-ar.01.02";
layers = (
{
components = (
{
alignment = -1;
name = "alef-ar.01.06";
transform = "{1, 0, 0, 1, 350, 0}";
},
{
name = _zuluf100;
transform = "{-1, 0, 0, 1, 150, -150}";
}
);
layerId = "299DE00D-7BC2-4DFB-A399-2750234EE670";
paths = (
{
closed = 1;
nodes = (
"450 -150 LINE",
"450 -50 LINE",
"150 -50 LINE",
"150 -150 LINE"
);
},
{
closed = 1;
nodes = (
"450 -100 LINE",
"450 50 LINE",
"350 50 LINE",
"350 -100 LINE"
);
}
);
width = 450;
}
);
leftKerningGroup = "straight-l";
},
{
glyphname = "lam-ar.02.00";
layers = (
{
components = (
{
alignment = -1;
name = "lam-ar.init";
transform = "{1, 0, 0, 1, 300, 0}";
},
{
name = _zuluf100;
transform = "{-1, 0, 0, 1, 150, 0}";
}
);
layerId = "299DE00D-7BC2-4DFB-A399-2750234EE670";
paths = (
{
closed = 1;
nodes = (
"350 0 LINE",
"350 100 LINE",
"150 100 LINE",
"150 0 LINE"
);
}
);
width = 450;
}
);
leftKerningGroup = "straight-l";
},
{
glyphname = "lam-ar.02.01";
layers = (
{
components = (
{
alignment = -1;
name = "lam-ar.init.01.01";
transform = "{1, 0, 0, 1, 300, 0}";
},
{
name = _zuluf100;
transform = "{-1, 0, 0, 1, 150, 0}";
}
);
layerId = "299DE00D-7BC2-4DFB-A399-2750234EE670";
paths = (
{
closed = 1;
nodes = (
"350 0 LINE",
"350 100 LINE",
"150 100 LINE",
"150 0 LINE"
);
}
);
width = 450;
}
);
leftKerningGroup = "straight-l";
},
{
glyphname = "lam-ar.02.02";
layers = (
{
components = (
{
alignment = -1;
name = "lam-ar.init.01.02";
transform = "{1, 0, 0, 1, 300, 0}";
},
{
name = _zuluf100;
transform = "{-1, 0, 0, 1, 150, 0}";
}
);
layerId = "299DE00D-7BC2-4DFB-A399-2750234EE670";
paths = (
{
closed = 1;
nodes = (
"350 0 LINE",
"350 100 LINE",
"150 100 LINE",
"150 0 LINE"
);
}
);
width = 450;
}
);
leftKerningGroup = "straight-l";
},
{
glyphname = "lam-ar.03.00";
layers = (
{
components = (
{
alignment = -1;
name = "lam-ar.init.02.00";
transform = "{1, 0, 0, 1, 300, 0}";
},
{
name = _zuluf100;
transform = "{-1, 0, 0, 1, 150, 0}";
}
);
layerId = "299DE00D-7BC2-4DFB-A399-2750234EE670";
paths = (
{
closed = 1;
nodes = (
"300 0 LINE",
"300 100 LINE",
"150 100 LINE",
"150 0 LINE"
);
}
);
width = 450;
}
);
leftKerningGroup = "straight-l";
},
{
glyphname = "lam-ar.03.01";
layers = (
{
components = (
{
alignment = -1;
name = "lam-ar.init.02.01";
transform = "{1, 0, 0, 1, 300, 0}";
},
{
name = _zuluf100;
transform = "{-1, 0, 0, 1, 150, 0}";
}
);
layerId = "299DE00D-7BC2-4DFB-A399-2750234EE670";
paths = (
{
closed = 1;
nodes = (
"300 0 LINE",
"300 100 LINE",
"150 100 LINE",
"150 0 LINE"
);
}
);
width = 450;
}
);
leftKerningGroup = "straight-l";
},
{
glyphname = "lam-ar.03.03";
layers = (
{
components = (
{
alignment = -1;
name = "lam-ar.init.02.02";
transform = "{1, 0, 0, 1, 300, 0}";
},
{
name = _zuluf100;
transform = "{-1, 0, 0, 1, 150, 0}";
}
);
layerId = "299DE00D-7BC2-4DFB-A399-2750234EE670";
paths = (
{
closed = 1;
nodes = (
"300 0 LINE",
"300 100 LINE",
"150 100 LINE",
"150 0 LINE"
);
}
);
width = 450;
}
);
leftKerningGroup = "straight-l";
},
{
glyphname = "lam-ar.04.00";
layers = (
{
components = (
{
alignment = -1;
name = "lam-ar.init.03.00";
transform = "{1, 0, 0, 1, 300, 0}";
},
{
name = _zuluf100;
transform = "{-1, 0, 0, 1, 150, 0}";
}
);
layerId = "299DE00D-7BC2-4DFB-A399-2750234EE670";
paths = (
{
closed = 1;
nodes = (
"300 0 LINE",
"300 100 LINE",
"150 100 LINE",
"150 0 LINE"
);
}
);
width = 450;
}
);
leftKerningGroup = "straight-l";
},
{
glyphname = "lam-ar.04.01";
layers = (
{
components = (
{
alignment = -1;
name = "lam-ar.init.03.01";
transform = "{1, 0, 0, 1, 300, 0}";
},
{
name = _zuluf100;
transform = "{-1, 0, 0, 1, 150, 0}";
}
);
layerId = "299DE00D-7BC2-4DFB-A399-2750234EE670";
paths = (
{
closed = 1;
nodes = (
"300 0 LINE",
"300 100 LINE",
"150 100 LINE",
"150 0 LINE"
);
}
);
width = 450;
}
);
leftKerningGroup = "straight-l";
},
{
glyphname = "lam-ar.04.02";
layers = (
{
components = (
{
alignment = -1;
name = "lam-ar.init.03.02";
transform = "{1, 0, 0, 1, 300, 0}";
},
{
name = _zuluf100;
transform = "{-1, 0, 0, 1, 150, 0}";
}
);
layerId = "299DE00D-7BC2-4DFB-A399-2750234EE670";
paths = (
{
closed = 1;
nodes = (
"300 0 LINE",
"300 100 LINE",
"150 100 LINE",
"150 0 LINE"
);
}
);
width = 450;
}
);
leftKerningGroup = "straight-l";
},
{
glyphname = "lam-ar.init.01.03";
layers = (
{
components = (
{
alignment = -1;
name = "kashida-ar";
},
{
name = _deco.17;
transform = "{-1, 0, 0, -1, 150, 745}";
},
{
name = _zuluf150;
transform = "{0, 1, -1, 0, 150, 1000}";
}
);
layerId = "299DE00D-7BC2-4DFB-A399-2750234EE670";
paths = (
{
closed = 1;
nodes = (
"150 0 LINE",
"150 300 LINE",
"50 300 LINE",
"50 0 LINE"
);
},
{
closed = 1;
nodes = (
"150 850 LINE",
"150 1000 LINE",
"50 1000 LINE",
"50 850 LINE"
);
}
);
width = 150;
}
);
leftKerningGroup = "straight-l";
},
{
glyphname = "lam-ar.init.01.07";
layers = (
{
components = (
{
alignment = -1;
name = "kashida-ar";
},
{
name = _deco.17;
transform = "{1, 0, 0, -1, 50, 745}";
},
{
name = _zuluf150;
transform = "{0, 1, 1, 0, 50, 1000}";
}
);
layerId = "299DE00D-7BC2-4DFB-A399-2750234EE670";
paths = (
{
closed = 1;
nodes = (
"150 0 LINE",
"150 300 LINE",
"50 300 LINE",
"50 0 LINE"
);
},
{
closed = 1;
nodes = (
"150 850 LINE",
"150 1000 LINE",
"50 1000 LINE",
"50 850 LINE"
);
}
);
width = 150;
}
);
leftKerningGroup = "straight-l";
},
{
glyphname = "lam-ar.init.short";
layers = (
{
anchors = (
{
name = exit;
position = "{-50, 150}";
}
);
components = (
{
name = _zuluf150;
transform = "{0, 1, -1, 0, 150, 1000}";
}
);
layerId = "299DE00D-7BC2-4DFB-A399-2750234EE670";
paths = (
{
closed = 1;
nodes = (
"150 1000 LINE",
"50 1000 LINE",
"50 150 LINE",
"150 150 LINE"
);
},
{
closed = 1;
nodes = (
"-50 150 LINE",
"70 150 LINE",
"70 250 LINE",
"-50 250 LINE"
);
}
);
width = 150;
},
{
anchors = (
{
name = exit;
position = "{-50, 150}";
}
);
associatedMasterId = "299DE00D-7BC2-4DFB-A399-2750234EE670";
components = (
{
name = _zuluf150;
transform = "{0, 1, -1, 0, 150, 600}";
}
);
layerId = "1F6FB58B-DBFD-4424-8982-F4DC9A170198";
name = Short;
paths = (
{
closed = 1;
nodes = (
"150 600 LINE",
"50 600 LINE",
"50 150 LINE",
"150 150 LINE"
);
},
{
closed = 1;
nodes = (
"-50 150 LINE",
"70 150 LINE",
"70 250 LINE",
"-50 250 LINE"
);
}
);
width = 150;
}
);
leftKerningGroup = "straight-l";
},
{
glyphname = "lam-ar.init.short.01.01";
layers = (
{
anchors = (
{
name = exit;
position = "{-50, 150}";
}
);
components = (
{
name = _zuluf150;
transform = "{0, 1, 1, 0, 50, 1000}";
}
);
layerId = "299DE00D-7BC2-4DFB-A399-2750234EE670";
paths = (
{
closed = 1;
nodes = (
"150 150 LINE",
"150 1000 LINE",
"50 1000 LINE",
"50 150 LINE"
);
},
{
closed = 1;
nodes = (
"-50 150 LINE",
"70 150 LINE",
"70 250 LINE",
"-50 250 LINE"
);
}
);
width = 150;
},
{
anchors = (
{
name = exit;
position = "{-50, 150}";
}
);
associatedMasterId = "299DE00D-7BC2-4DFB-A399-2750234EE670";
components = (
{
name = _zuluf150;
transform = "{0, 1, 1, 0, 50, 600}";
}
);
layerId = "B7FFF309-50E5-4A5D-B473-609B345CAD7E";
name = Short;
paths = (
{
closed = 1;
nodes = (
"150 150 LINE",
"150 600 LINE",
"50 600 LINE",
"50 150 LINE"
);
},
{
closed = 1;
nodes = (
"-50 150 LINE",
"70 150 LINE",
"70 250 LINE",
"-50 250 LINE"
);
}
);
width = 150;
}
);
leftKerningGroup = "straight-l";
},
{
glyphname = "lam-ar.init.short.wide";
layers = (
{
anchors = (
{
name = exit;
position = "{0, 150}";
}
);
components = (
{
name = "lam-ar.init.short";
transform = "{1, 0, 0, 1, 160, 0}";
}
);
layerId = "299DE00D-7BC2-4DFB-A399-2750234EE670";
paths = (
{
closed = 1;
nodes = (
"0 150 LINE",
"230 150 LINE",
"230 250 LINE",
"0 250 LINE"
);
}
);
width = 310;
}
);
leftKerningGroup = "straight-l";
},
{
glyphname = "lam-ar.init.short.wide.01.01";
layers = (
{
anchors = (
{
name = exit;
position = "{0, 150}";
}
);
components = (
{
name = "lam-ar.init.short.01.01";
transform = "{1, 0, 0, 1, 160, 0}";
}
);
layerId = "299DE00D-7BC2-4DFB-A399-2750234EE670";
paths = (
{
closed = 1;
nodes = (
"0 150 LINE",
"230 150 LINE",
"230 250 LINE",
"0 250 LINE"
);
}
);
width = 310;
}
);
leftKerningGroup = "straight-l";
},
{
glyphname = "lam-ar.init.short.wide.01.02";
layers = (
{
anchors = (
{
name = exit;
position = "{0, 150}";
}
);
components = (
{
name = _deco.09;
transform = "{-1, 0, 0, 1, 310, 400}";
},
{
name = _zuluf150;
transform = "{0, 1, -1, 0, 310, 1000}";
}
);
layerId = "299DE00D-7BC2-4DFB-A399-2750234EE670";
paths = (
{
closed = 1;
nodes = (
"0 150 LINE",
"230 150 LINE",
"230 250 LINE",
"0 250 LINE"
);
},
{
closed = 1;
nodes = (
"310 1000 LINE",
"210 1000 LINE",
"210 750 LINE",
"310 750 LINE"
);
},
{
closed = 1;
nodes = (
"310 350 LINE",
"210 350 LINE",
"210 150 LINE",
"310 150 LINE"
);
}
);
width = 310;
}
);
leftKerningGroup = "straight-l";
},
{
glyphname = "lam-ar.init.short.wide.01.03";
layers = (
{
anchors = (
{
name = exit;
position = "{0, 150}";
}
);
components = (
{
name = _deco.11;
transform = "{-1, 0, 0, 1, 310, 400}";
},
{
name = _zuluf150;
transform = "{0, 1, -1, 0, 310, 1000}";
}
);
layerId = "299DE00D-7BC2-4DFB-A399-2750234EE670";
paths = (
{
closed = 1;
nodes = (
"0 150 LINE",
"230 150 LINE",
"230 250 LINE",
"0 250 LINE"
);
},
{
closed = 1;
nodes = (
"310 1000 LINE",
"210 1000 LINE",
"210 750 LINE",
"310 750 LINE"
);
},
{
closed = 1;
nodes = (
"310 350 LINE",
"210 350 LINE",
"210 150 LINE",
"310 150 LINE"
);
}
);
width = 310;
}
);
leftKerningGroup = "straight-l";
},
{
glyphname = "meem-ar";
layers = (
{
components = (
{
name = _head;
}
);
layerId = "299DE00D-7BC2-4DFB-A399-2750234EE670";
paths = (
{
closed = 1;
nodes = (
"78 -150 OFFCURVE",
"100 -79 OFFCURVE",
"100 0 CURVE",
"100 50 LINE",
"0 50 LINE",
"0 0 LINE",
"1 -42 OFFCURVE",
"1 -134 OFFCURVE",
"-100 -135 CURVE",
"-85 -144 OFFCURVE",
"-54 -150 OFFCURVE",
"-31 -150 CURVE SMOOTH"
);
}
);
width = 250;
}
);
leftKerningGroup = "straight-l";
rightKerningGroup = "straight-r";
unicode = 0645;
},
{
glyphname = "meem-ar.01.01";
layers = (
{
components = (
{
name = "meem-ar.init";
transform = "{1, 0, 0, 1, 200, 0}";
},
{
name = _zuluf100;
transform = "{-1, 0, 0, 1, 150, 0}";
}
);
layerId = "299DE00D-7BC2-4DFB-A399-2750234EE670";
paths = (
{
closed = 1;
nodes = (
"300 0 LINE",
"300 100 LINE",
"150 100 LINE",
"150 0 LINE"
);
}
);
width = 500;
}
);
leftKerningGroup = "straight-l";
},
{
glyphname = "meem-ar.01.02";
layers = (
{
components = (
{
name = "meem-ar.init.01.01";
transform = "{1, 0, 0, 1, 200, 0}";
},
{
name = _zuluf100;
transform = "{-1, 0, 0, 1, 150, 0}";
}
);
layerId = "299DE00D-7BC2-4DFB-A399-2750234EE670";
paths = (
{
closed = 1;
nodes = (
"300 0 LINE",
"300 100 LINE",
"150 100 LINE",
"150 0 LINE"
);
}
);
width = 550;
}
);
},
{
glyphname = "meem-ar.01.03";
layers = (
{
components = (
{
name = "meem-ar.init.01.02";
transform = "{1, 0, 0, 1, 200, 0}";
},
{
name = _zuluf100;
transform = "{-1, 0, 0, 1, 150, 0}";
}
);
layerId = "299DE00D-7BC2-4DFB-A399-2750234EE670";
paths = (
{
closed = 1;
nodes = (
"300 0 LINE",
"300 100 LINE",
"150 100 LINE",
"150 0 LINE"
);
}
);
width = 550;
}
);
},
{
glyphname = "meem-ar.01.04";
layers = (
{
components = (
{
name = "meem-ar.init.01.03";
transform = "{1, 0, 0, 1, 200, 0}";
},
{
name = _zuluf100;
transform = "{-1, 0, 0, 1, 150, 0}";
}
);
layerId = "299DE00D-7BC2-4DFB-A399-2750234EE670";
paths = (
{
closed = 1;
nodes = (
"300 0 LINE",
"300 100 LINE",
"150 100 LINE",
"150 0 LINE"
);
}
);
width = 500;
}
);
leftKerningGroup = "straight-l";
},
{
glyphname = "meem-ar.medi";
layers = (
{
components = (
{
name = _meem.01;
transform = "{1, 0, 0, 1, 50, -75}";
}
);
layerId = "299DE00D-7BC2-4DFB-A399-2750234EE670";
paths = (
{
closed = 1;
nodes = (
"76 0 LINE",
"76 100 LINE",
"-50 100 LINE",
"-50 0 LINE"
);
}
);
width = 300;
}
);
},
{
glyphname = "meem-ar.medi.01.01";
layers = (
{
components = (
{
name = _meem.02;
transform = "{1, 0, 0, 1, 50, -75}";
}
);
layerId = "299DE00D-7BC2-4DFB-A399-2750234EE670";
paths = (
{
closed = 1;
nodes = (
"76 0 LINE",
"76 100 LINE",
"-50 100 LINE",
"-50 0 LINE"
);
}
);
width = 300;
}
);
},
{
glyphname = "meem-ar.init";
layers = (
{
anchors = (
{
name = exit;
position = "{-50, -2}";
}
);
components = (
{
name = _head;
transform = "{1, 0, 0, 1, 50, 0}";
}
);
layerId = "299DE00D-7BC2-4DFB-A399-2750234EE670";
paths = (
{
closed = 1;
nodes = (
"300 0 LINE",
"300 100 LINE",
"-50 100 LINE",
"-50 0 LINE"
);
}
);
width = 300;
}
);
leftKerningGroup = "straight-l";
},
{
glyphname = "meem-ar.init.01.01";
layers = (
{
anchors = (
{
name = exit;
position = "{-50, -2}";
}
);
components = (
{
name = _meem.01;
transform = "{1, 0, 0, 1, 50, 0}";
}
);
layerId = "299DE00D-7BC2-4DFB-A399-2750234EE670";
paths = (
{
closed = 1;
nodes = (
"60 25 LINE",
"60 125 LINE",
"50 125 LINE",
"50 25 LINE"
);
},
{
closed = 1;
nodes = (
"300 0 LINE",
"300 100 LINE",
"-50 100 LINE",
"-50 0 LINE"
);
},
{
closed = 1;
nodes = (
"350 0 LINE",
"320 23 OFFCURVE",
"300 59 OFFCURVE",
"300 100 CURVE SMOOTH",
"300 125 LINE",
"290 125 LINE",
"290 0 LINE"
);
}
);
width = 350;
}
);
},
{
glyphname = "meem-ar.init.01.02";
layers = (
{
anchors = (
{
name = exit;
position = "{-50, -2}";
}
);
components = (
{
name = _meem.02;
transform = "{1, 0, 0, 1, 50, 0}";
}
);
layerId = "299DE00D-7BC2-4DFB-A399-2750234EE670";
paths = (
{
closed = 1;
nodes = (
"60 25 LINE",
"60 125 LINE",
"50 125 LINE",
"50 25 LINE"
);
},
{
closed = 1;
nodes = (
"300 0 LINE",
"300 100 LINE",
"-50 100 LINE",
"-50 0 LINE"
);
},
{
closed = 1;
nodes = (
"350 0 LINE",
"320 23 OFFCURVE",
"300 59 OFFCURVE",
"300 100 CURVE SMOOTH",
"300 125 LINE",
"290 125 LINE",
"290 0 LINE"
);
}
);
width = 350;
}
);
},
{
glyphname = "meem-ar.init.01.03";
layers = (
{
anchors = (
{
name = exit;
position = "{-50, -2}";
}
);
components = (
{
name = _elbow.2;
transform = "{1, 0, 0, -1, 50, 150}";
}
);
layerId = "299DE00D-7BC2-4DFB-A399-2750234EE670";
paths = (
{
closed = 1;
nodes = (
"300 0 LINE",
"300 100 LINE",
"-50 100 LINE",
"-50 0 LINE"
);
}
);
width = 300;
}
);
leftKerningGroup = "straight-l";
},
{
glyphname = "noonghunna-ar";
layers = (
{
anchors = (
{
name = top;
position = "{100, -50}";
}
);
layerId = "299DE00D-7BC2-4DFB-A399-2750234EE670";
paths = (
{
closed = 1;
nodes = (
"234 -150 OFFCURVE",
"300 -83 OFFCURVE",
"300 0 CURVE SMOOTH",
"300 96 OFFCURVE",
"259 150 OFFCURVE",
"200 250 CURVE",
"200 189 OFFCURVE",
"186 141 OFFCURVE",
"150 100 CURVE",
"181 68 OFFCURVE",
"200 35 OFFCURVE",
"200 0 CURVE SMOOTH",
"200 -55 OFFCURVE",
"155 -100 OFFCURVE",
"100 -100 CURVE SMOOTH",
"45 -100 OFFCURVE",
"0 -55 OFFCURVE",
"0 0 CURVE",
"0 -83 OFFCURVE",
"68 -150 OFFCURVE",
"151 -150 CURVE SMOOTH"
);
}
);
width = 300;
}
);
leftKerningGroup = "straight-l";
rightKerningGroup = "straight-r";
unicode = 06BA;
},
{
glyphname = "noonghunna-ar.01.01";
layers = (
{
anchors = (
{
name = top;
position = "{125, -38}";
}
);
layerId = "299DE00D-7BC2-4DFB-A399-2750234EE670";
paths = (
{
closed = 1;
nodes = (
"251 -150 OFFCURVE",
"326 -94 OFFCURVE",
"329 0 CURVE SMOOTH",
"332 96 OFFCURVE",
"290 166 OFFCURVE",
"230 250 CURVE",
"230 189 OFFCURVE",
"216 141 OFFCURVE",
"180 100 CURVE",
"211 82 OFFCURVE",
"231 48 OFFCURVE",
"231 9 CURVE SMOOTH",
"231 -50 OFFCURVE",
"184 -97 OFFCURVE",
"125 -97 CURVE SMOOTH",
"66 -97 OFFCURVE",
"19 -50 OFFCURVE",
"19 9 CURVE SMOOTH",
"18 43 OFFCURVE",
"30 87 OFFCURVE",
"81 118 CURVE SMOOTH",
"99 129 OFFCURVE",
"131 139 OFFCURVE",
"164 134 CURVE",
"160 150 OFFCURVE",
"144 161 OFFCURVE",
"129 161 CURVE",
"135 175 OFFCURVE",
"147 240 OFFCURVE",
"77 251 CURVE",
"121 225 OFFCURVE",
"113 179 OFFCURVE",
"87 153 CURVE SMOOTH",
"79 145 OFFCURVE",
"70 136 OFFCURVE",
"61 130 CURVE SMOOTH",
"16 99 OFFCURVE",
"0 55 OFFCURVE",
"0 15 CURVE",
"0 -76 OFFCURVE",
"74 -150 OFFCURVE",
"165 -150 CURVE SMOOTH"
);
}
);
width = 329;
},
{
anchors = (
{
name = top;
position = "{130, -50}";
}
);
associatedMasterId = "299DE00D-7BC2-4DFB-A399-2750234EE670";
layerId = "94C04E2C-974C-48B1-8CF0-BF1220662707";
name = "Oct 21 19, 00:58";
paths = (
{
closed = 1;
nodes = (
"216 141 OFFCURVE",
"230 189 OFFCURVE",
"230 250 CURVE",
"289 162 OFFCURVE",
"329 96 OFFCURVE",
"329 0 CURVE SMOOTH",
"329 -94 OFFCURVE",
"251 -150 OFFCURVE",
"165 -150 CURVE SMOOTH",
"74 -150 OFFCURVE",
"0 -76 OFFCURVE",
"0 15 CURVE",
"0 55 OFFCURVE",
"18 103 OFFCURVE",
"61 129 CURVE SMOOTH",
"70 135 OFFCURVE",
"78 141 OFFCURVE",
"85 149 CURVE SMOOTH",
"115 183 OFFCURVE",
"118 231 OFFCURVE",
"77 251 CURVE",
"142 241 OFFCURVE",
"142 179 OFFCURVE",
"118 153 CURVE",
"133 159 OFFCURVE",
"154 142 OFFCURVE",
"162 129 CURVE",
"129 134 OFFCURVE",
"99 128 OFFCURVE",
"76 114 CURVE SMOOTH",
"30 86 OFFCURVE",
"18 43 OFFCURVE",
"19 9 CURVE SMOOTH",
"19 -50 OFFCURVE",
"66 -97 OFFCURVE",
"125 -97 CURVE SMOOTH",
"184 -97 OFFCURVE",
"231 -50 OFFCURVE",
"231 9 CURVE SMOOTH",
"231 48 OFFCURVE",
"211 82 OFFCURVE",
"180 100 CURVE"
);
},
{
closed = 1;
nodes = (
"78 150 OFFCURVE",
"100 172 OFFCURVE",
"100 200 CURVE SMOOTH",
"100 228 OFFCURVE",
"78 250 OFFCURVE",
"50 250 CURVE SMOOTH",
"22 250 OFFCURVE",
"0 228 OFFCURVE",
"0 200 CURVE SMOOTH",
"0 172 OFFCURVE",
"22 150 OFFCURVE",
"50 150 CURVE SMOOTH"
);
}
);
visible = 1;
width = 329;
}
);
leftKerningGroup = "straight-l";
rightKerningGroup = "straight-r";
},
{
glyphname = "noonghunna-ar.01.02";
layers = (
{
anchors = (
{
name = top;
position = "{100, -50}";
}
);
components = (
{
name = _zuluf100;
transform = "{0, 1, -1, 0, 300, 100}";
}
);
layerId = "299DE00D-7BC2-4DFB-A399-2750234EE670";
paths = (
{
closed = 1;
nodes = (
"233 -150 OFFCURVE",
"300 -83 OFFCURVE",
"300 0 CURVE SMOOTH",
"300 100 LINE",
"200 100 LINE",
"200 0 LINE SMOOTH",
"200 -55 OFFCURVE",
"155 -100 OFFCURVE",
"100 -100 CURVE SMOOTH",
"45 -100 OFFCURVE",
"0 -55 OFFCURVE",
"0 0 CURVE",
"0 -83 OFFCURVE",
"67 -150 OFFCURVE",
"150 -150 CURVE SMOOTH"
);
}
);
width = 300;
}
);
leftKerningGroup = "straight-l";
rightKerningGroup = bowel;
},
{
glyphname = "noonghunna-ar.01.03";
layers = (
{
anchors = (
{
name = top;
position = "{78, -24}";
}
);
layerId = "299DE00D-7BC2-4DFB-A399-2750234EE670";
paths = (
{
closed = 1;
nodes = (
"250 100 LINE",
"250 166 OFFCURVE",
"177 226 OFFCURVE",
"125 250 CURVE",
"120 189 OFFCURVE",
"110 141 OFFCURVE",
"75 100 CURVE",
"133 100 OFFCURVE",
"150 73 OFFCURVE",
"150 51 CURVE"
);
},
{
closed = 1;
nodes = (
"250 -150 LINE",
"250 -50 LINE",
"50 -50 LINE",
"0 -50 OFFCURVE",
"0 0 OFFCURVE",
"0 0 CURVE",
"0 -38 OFFCURVE",
"-35 -124 OFFCURVE",
"-50 -150 CURVE",
"50 -150 LINE"
);
},
{
closed = 1;
nodes = (
"250 -100 LINE",
"250 100 LINE",
"150 100 LINE",
"150 -100 LINE"
);
}
);
width = 250;
}
);
leftKerningGroup = "straight-l";
rightKerningGroup = "straight-r";
},
{
glyphname = "noonghunna-ar.01.04";
layers = (
{
anchors = (
{
name = top;
position = "{75, -24}";
}
);
layerId = "299DE00D-7BC2-4DFB-A399-2750234EE670";
paths = (
{
closed = 1;
nodes = (
"250 121 OFFCURVE",
"209 150 OFFCURVE",
"150 250 CURVE",
"150 189 OFFCURVE",
"126 141 OFFCURVE",
"90 100 CURVE",
"124 93 OFFCURVE",
"150 61 OFFCURVE",
"150 25 CURVE SMOOTH",
"150 -16 OFFCURVE",
"116 -50 OFFCURVE",
"75 -50 CURVE SMOOTH",
"43 -50 OFFCURVE",
"11 -29 OFFCURVE",
"0 0 CURVE",
"-7 -56 OFFCURVE",
"-22 -106 OFFCURVE",
"-50 -150 CURVE",
"75 -150 LINE SMOOTH",
"172 -150 OFFCURVE",
"250 -72 OFFCURVE",
"250 25 CURVE SMOOTH"
);
}
);
width = 250;
}
);
leftKerningGroup = "straight-l";
rightKerningGroup = "straight-r";
},
{
glyphname = "heh-ar";
layers = (
{
anchors = (
{
name = top;
position = "{175, 450}";
}
);
components = (
{
name = _head;
transform = "{1, 0, 0, 1, 50, 0}";
}
);
layerId = "299DE00D-7BC2-4DFB-A399-2750234EE670";
paths = (
{
closed = 1;
nodes = (
"60 0 LINE",
"60 100 LINE",
"50 100 LINE",
"50 59 OFFCURVE",
"30 23 OFFCURVE",
"0 0 CURVE"
);
}
);
width = 300;
}
);
leftKerningGroup = "straight-l";
unicode = 0647;
},
{
glyphname = "heh-ar.01.01";
layers = (
{
anchors = (
{
name = top;
position = "{25, 300}";
},
{
name = topV;
position = "{100, 250}";
}
);
components = (
{
name = "heh-ar";
},
{
name = _zuluf100;
transform = "{0, 1, -1, 0, 300, 400}";
}
);
layerId = "299DE00D-7BC2-4DFB-A399-2750234EE670";
paths = (
{
closed = 1;
nodes = (
"300 0 LINE",
"300 400 LINE",
"200 400 LINE",
"200 0 LINE"
);
}
);
width = 300;
}
);
leftKerningGroup = "straight-l";
},
{
glyphname = "heh-ar.02.00";
layers = (
{
components = (
{
name = _zuluf100;
transform = "{-0.5, 0.86603, -0.86603, -0.5, 298, 396}";
}
);
layerId = "299DE00D-7BC2-4DFB-A399-2750234EE670";
paths = (
{
closed = 1;
nodes = (
"526 0 LINE",
"298 396 LINE",
"216 338 LINE",
"411 0 LINE"
);
},
{
closed = 1;
nodes = (
"130 0 LINE",
"526 0 LINE",
"417 100 LINE",
"130 100 LINE"
);
},
{
closed = 1;
nodes = (
"105 0 LINE",
"-45 -150 LINE",
"220 0 LINE",
"220 50 LINE",
"105 50 LINE"
);
},
{
closed = 1;
nodes = (
"296 331 LINE",
"105 0 LINE",
"220 0 LINE",
"355 233 LINE"
);
},
{
closed = 1;
nodes = (
"252 361 LINE",
"147 331 OFFCURVE",
"70 243 OFFCURVE",
"70 128 CURVE SMOOTH",
"70 64 OFFCURVE",
"94 6 OFFCURVE",
"134 -39 CURVE",
"212 14 LINE",
"180 41 OFFCURVE",
"160 82 OFFCURVE",
"160 128 CURVE SMOOTH",
"160 209 OFFCURVE",
"234 275 OFFCURVE",
"314 278 CURVE"
);
}
);
width = 526;
},
{
associatedMasterId = "299DE00D-7BC2-4DFB-A399-2750234EE670";
components = (
{
alignment = -1;
name = _zuluf100;
transform = "{-0.5, 0.86603, -0.86603, -0.5, 283, 420}";
}
);
layerId = "6119B598-8DCB-4491-9819-97009D4C9829";
name = "Feb 10 20, 18:52";
paths = (
{
closed = 1;
nodes = (
"526 0 LINE",
"283 420 LINE",
"197 370 LINE",
"411 0 LINE"
);
},
{
closed = 1;
nodes = (
"526 0 LINE",
"417 100 LINE",
"-50 100 LINE",
"-50 0 LINE"
);
},
{
closed = 1;
nodes = (
"169 71 LINE",
"151 93 OFFCURVE",
"140 121 OFFCURVE",
"140 151 CURVE SMOOTH",
"140 219 OFFCURVE",
"196 275 OFFCURVE",
"264 275 CURVE",
"274 365 LINE",
"150 365 OFFCURVE",
"50 265 OFFCURVE",
"50 141 CURVE SMOOTH",
"50 99 OFFCURVE",
"62 59 OFFCURVE",
"82 25 CURVE"
);
},
{
closed = 1;
nodes = (
"220 19 LINE",
"350 244 LINE",
"280 322 LINE",
"94 0 LINE"
);
}
);
width = 526;
}
);
},
{
glyphname = "heh-ar.medi";
layers = (
{
layerId = "299DE00D-7BC2-4DFB-A399-2750234EE670";
paths = (
{
closed = 1;
nodes = (
"-34 716 OFFCURVE",
"36 819 OFFCURVE",
"165 819 CURVE SMOOTH",
"362 819 OFFCURVE",
"379 649 OFFCURVE",
"321 548 CURVE SMOOTH",
"206 348 LINE",
"263 248 LINE",
"408 501 LINE SMOOTH",
"450 574 OFFCURVE",
"450 634 OFFCURVE",
"450 663 CURVE SMOOTH",
"450 801 OFFCURVE",
"338 913 OFFCURVE",
"200 913 CURVE SMOOTH",
"62 913 OFFCURVE",
"-50 788 OFFCURVE",
"-50 650 CURVE"
);
},
{
closed = 1;
nodes = (
"100 0 LINE",
"100 100 LINE",
"-50 100 LINE",
"-50 0 LINE"
);
},
{
closed = 0;
nodes = (
"154 39 LINE"
);
},
{
closed = 1;
nodes = (
"138 229 LINE",
"66 105 LINE",
"48 79 OFFCURVE",
"38 47 OFFCURVE",
"38 13 CURVE SMOOTH",
"38 -77 OFFCURVE",
"110 -150 OFFCURVE",
"200 -150 CURVE SMOOTH",
"290 -150 OFFCURVE",
"363 -77 OFFCURVE",
"363 13 CURVE SMOOTH",
"363 47 OFFCURVE",
"353 79 OFFCURVE",
"335 105 CURVE",
"154 417 LINE",
"74 358 LINE",
"256 44 LINE SMOOTH",
"261 35 OFFCURVE",
"264 24 OFFCURVE",
"264 13 CURVE SMOOTH",
"264 -22 OFFCURVE",
"236 -50 OFFCURVE",
"201 -50 CURVE SMOOTH",
"166 -50 OFFCURVE",
"138 -22 OFFCURVE",
"138 13 CURVE SMOOTH",
"138 24 OFFCURVE",
"141 35 OFFCURVE",
"146 44 CURVE SMOOTH",
"195 129 LINE"
);
},
{
closed = 1;
nodes = (
"510 0 LINE",
"510 100 LINE",
"300 100 LINE",
"300 0 LINE"
);
},
{
closed = 1;
nodes = (
"74 358 LINE",
"159 408 LINE",
"154 417 LINE SMOOTH",
"141 441 OFFCURVE",
"147 474 OFFCURVE",
"172 485 CURVE SMOOTH",
"183 490 LINE",
"133 577 LINE",
"124 572 LINE SMOOTH",
"52 530 OFFCURVE",
"29 439 OFFCURVE",
"69 367 CURVE SMOOTH"
);
},
{
closed = 1;
nodes = (
"427 44 LINE",
"510 100 LINE",
"349 378 LINE",
"292 279 LINE"
);
},
{
closed = 1;
nodes = (
"200 637 LINE",
"180 614 OFFCURVE",
"158 591 OFFCURVE",
"124 572 CURVE",
"223 399 LINE",
"280 498 LINE"
);
},
{
closed = 1;
nodes = (
"209 1049 OFFCURVE",
"97 993 OFFCURVE",
"149 899 CURVE",
"298 889 LINE",
"298 893 LINE",
"264 904 OFFCURVE",
"226 939 OFFCURVE",
"220 980 CURVE SMOOTH",
"213 1028 OFFCURVE",
"233 1089 OFFCURVE",
"234 1133 CURVE SMOOTH",
"236 1200 OFFCURVE",
"189 1203 OFFCURVE",
"174 1199 CURVE",
"203 1128 LINE"
);
},
{
closed = 1;
nodes = (
"202 1120 OFFCURVE",
"220 1138 OFFCURVE",
"220 1160 CURVE SMOOTH",
"220 1182 OFFCURVE",
"202 1200 OFFCURVE",
"180 1200 CURVE SMOOTH",
"158 1200 OFFCURVE",
"140 1182 OFFCURVE",
"140 1160 CURVE SMOOTH",
"140 1138 OFFCURVE",
"158 1120 OFFCURVE",
"180 1120 CURVE SMOOTH"
);
}
);
width = 510;
},
{
associatedMasterId = "299DE00D-7BC2-4DFB-A399-2750234EE670";
layerId = "5F8BE0DD-A25E-402F-A2A4-C6ED0FEF0DBA";
name = "Oct 22 19, 01:33";
paths = (
{
closed = 0;
nodes = (
"570 100 LINE",
"-130 100 LINE"
);
},
{
closed = 0;
nodes = (
"220 -150 LINE",
"220 1200 LINE"
);
},
{
closed = 0;
nodes = (
"570 650 LINE",
"-130 650 LINE"
);
},
{
closed = 0;
nodes = (
"-130 0 LINE",
"570 0 LINE"
);
},
{
closed = 0;
nodes = (
"570 900 LINE",
"-130 900 LINE"
);
},
{
closed = 0;
nodes = (
"57 -167 LINE",
"57 213 LINE"
);
},
{
closed = 1;
nodes = (
"-14 716 OFFCURVE",
"54 819 OFFCURVE",
"183 819 CURVE SMOOTH",
"337 819 OFFCURVE",
"420 684 OFFCURVE",
"377 610 CURVE SMOOTH",
"60 61 LINE",
"146 11 LINE",
"437 517 LINE SMOOTH",
"470 574 OFFCURVE",
"470 634 OFFCURVE",
"470 663 CURVE SMOOTH",
"470 801 OFFCURVE",
"358 913 OFFCURVE",
"220 913 CURVE SMOOTH",
"82 913 OFFCURVE",
"-30 788 OFFCURVE",
"-30 650 CURVE"
);
},
{
closed = 0;
nodes = (
"527 105 LINE",
"271 548 LINE",
"184 501 LINE",
"447 44 LINE SMOOTH"
);
},
{
closed = 0;
nodes = (
"382 -167 LINE",
"382 213 LINE"
);
},
{
closed = 1;
nodes = (
"266 39 LINE",
"83 357 LINE",
"92 362 LINE",
"275 44 LINE"
);
},
{
closed = 1;
nodes = (
"175 435 LINE",
"363 110 LINE",
"354 105 LINE",
"166 430 LINE"
);
},
{
closed = 1;
nodes = (
"76 110 LINE",
"332 553 LINE",
"341 548 LINE",
"85 105 LINE"
);
},
{
closed = 1;
nodes = (
"437 496 LINE",
"174 39 LINE",
"165 44 LINE",
"428 501 LINE"
);
}
);
width = 550;
}
);
},
{
glyphname = "heh-ar.medi.01.01";
layers = (
{
layerId = "299DE00D-7BC2-4DFB-A399-2750234EE670";
paths = (
{
closed = 1;
nodes = (
"237 0 LINE",
"237 100 LINE",
"-50 100 LINE",
"-50 0 LINE"
);
},
{
closed = 1;
nodes = (
"500 0 LINE",
"500 100 LINE",
"437 100 LINE",
"437 0 LINE"
);
},
{
closed = 1;
nodes = (
"274 229 LINE",
"202 105 LINE",
"184 79 OFFCURVE",
"174 47 OFFCURVE",
"174 13 CURVE SMOOTH",
"174 -77 OFFCURVE",
"246 -150 OFFCURVE",
"336 -150 CURVE SMOOTH",
"426 -150 OFFCURVE",
"499 -77 OFFCURVE",
"499 13 CURVE SMOOTH",
"499 47 OFFCURVE",
"489 79 OFFCURVE",
"471 105 CURVE",
"250 487 LINE",
"209 362 LINE",
"392 44 LINE SMOOTH",
"397 35 OFFCURVE",
"400 24 OFFCURVE",
"400 13 CURVE SMOOTH",
"400 -22 OFFCURVE",
"372 -50 OFFCURVE",
"337 -50 CURVE SMOOTH",
"302 -50 OFFCURVE",
"274 -22 OFFCURVE",
"274 13 CURVE SMOOTH",
"274 24 OFFCURVE",
"277 35 OFFCURVE",
"282 44 CURVE SMOOTH",
"331 129 LINE"
);
},
{
closed = 1;
nodes = (
"253 1120 OFFCURVE",
"271 1138 OFFCURVE",
"271 1160 CURVE SMOOTH",
"271 1182 OFFCURVE",
"253 1200 OFFCURVE",
"231 1200 CURVE SMOOTH",
"209 1200 OFFCURVE",
"191 1182 OFFCURVE",
"191 1160 CURVE SMOOTH",
"191 1138 OFFCURVE",
"209 1120 OFFCURVE",
"231 1120 CURVE SMOOTH"
);
},
{
closed = 1;
nodes = (
"258 1064 OFFCURVE",
"185 1015 OFFCURVE",
"185 949 CURVE SMOOTH",
"185 933 OFFCURVE",
"189 917 OFFCURVE",
"199 899 CURVE",
"348 886 LINE",
"348 892 LINE",
"314 903 OFFCURVE",
"276 939 OFFCURVE",
"270 980 CURVE SMOOTH",
"269 987 OFFCURVE",
"269 995 OFFCURVE",
"269 1002 CURVE SMOOTH",
"269 1048 OFFCURVE",
"284 1100 OFFCURVE",
"284 1138 CURVE SMOOTH",
"284 1190 OFFCURVE",
"253 1200 OFFCURVE",
"234 1200 CURVE SMOOTH",
"230 1200 OFFCURVE",
"227 1200 OFFCURVE",
"224 1199 CURVE",
"253 1128 LINE"
);
},
{
closed = 1;
nodes = (
"16 726 OFFCURVE",
"86 819 OFFCURVE",
"215 819 CURVE SMOOTH",
"348 819 OFFCURVE",
"400 719 OFFCURVE",
"400 595 CURVE SMOOTH",
"400 516 OFFCURVE",
"382 428 OFFCURVE",
"343 348 CURVE",
"400 248 LINE",
"471 369 OFFCURVE",
"500 493 OFFCURVE",
"500 601 CURVE SMOOTH",
"500 763 OFFCURVE",
"413 913 OFFCURVE",
"250 913 CURVE SMOOTH",
"112 913 OFFCURVE",
"0 808 OFFCURVE",
"0 600 CURVE"
);
},
{
closed = 0;
nodes = (
"291 39 LINE"
);
},
{
closed = 1;
nodes = (
"128 77 LINE",
"305 383 LINE",
"250 488 LINE",
"13 77 LINE"
);
}
);
width = 500;
},
{
associatedMasterId = "299DE00D-7BC2-4DFB-A399-2750234EE670";
layerId = "5F8BE0DD-A25E-402F-A2A4-C6ED0FEF0DBA";
name = "Oct 22 19, 01:33";
paths = (
{
closed = 0;
nodes = (
"600 100 LINE",
"-100 100 LINE"
);
},
{
closed = 0;
nodes = (
"250 -150 LINE",
"250 1200 LINE"
);
},
{
closed = 0;
nodes = (
"600 650 LINE",
"-100 650 LINE"
);
},
{
closed = 0;
nodes = (
"-100 0 LINE",
"600 0 LINE"
);
},
{
closed = 0;
nodes = (
"600 900 LINE",
"-100 900 LINE"
);
},
{
closed = 0;
nodes = (
"87 -167 LINE",
"87 213 LINE"
);
},
{
closed = 0;
nodes = (
"412 -167 LINE",
"412 213 LINE"
);
},
{
closed = 1;
nodes = (
"16 716 OFFCURVE",
"86 819 OFFCURVE",
"215 819 CURVE SMOOTH",
"352 819 OFFCURVE",
"400 733 OFFCURVE",
"400 648 CURVE SMOOTH",
"400 548 OFFCURVE",
"383 448 OFFCURVE",
"343 348 CURVE",
"400 248 LINE",
"495 422 OFFCURVE",
"500 645 OFFCURVE",
"500 659 CURVE SMOOTH",
"500 797 OFFCURVE",
"388 913 OFFCURVE",
"250 913 CURVE SMOOTH",
"112 913 OFFCURVE",
"0 788 OFFCURVE",
"0 650 CURVE"
);
}
);
visible = 1;
width = 500;
}
);
},
{
glyphname = "heh-ar.medi.01.02";
layers = (
{
layerId = "299DE00D-7BC2-4DFB-A399-2750234EE670";
paths = (
{
closed = 1;
nodes = (
"74 358 LINE",
"159 408 LINE",
"154 417 LINE SMOOTH",
"141 441 OFFCURVE",
"147 474 OFFCURVE",
"172 485 CURVE SMOOTH",
"183 490 LINE",
"133 577 LINE",
"124 572 LINE SMOOTH",
"52 530 OFFCURVE",
"29 439 OFFCURVE",
"69 367 CURVE SMOOTH"
);
},
{
closed = 1;
nodes = (
"510 0 LINE",
"510 100 LINE",
"-50 100 LINE",
"-50 0 LINE"
);
},
{
closed = 1;
nodes = (
"510 100 LINE",
"200 637 LINE",
"180 614 OFFCURVE",
"158 591 OFFCURVE",
"124 572 CURVE",
"427 44 LINE"
);
},
{
closed = 1;
nodes = (
"159 408 LINE",
"74 358 LINE",
"137 249 LINE",
"193 347 LINE"
);
},
{
closed = 1;
nodes = (
"33 50 LINE",
"366 50 LINE",
"262 228 LINE",
"206 129 LINE",
"248 56 LINE",
"152 56 LINE",
"280 280 LINE",
"223 378 LINE"
);
},
{
closed = 1;
nodes = (
"-34 1022 OFFCURVE",
"16 1111 OFFCURVE",
"138 1111 CURVE SMOOTH",
"277 1111 OFFCURVE",
"358 997 OFFCURVE",
"352 818 CURVE SMOOTH",
"349 715 OFFCURVE",
"329 607 OFFCURVE",
"288 505 CURVE",
"349 400 LINE",
"398 491 OFFCURVE",
"452 654 OFFCURVE",
"452 841 CURVE SMOOTH",
"452 1060 OFFCURVE",
"336 1200 OFFCURVE",
"180 1200 CURVE SMOOTH",
"42 1200 OFFCURVE",
"-50 1088 OFFCURVE",
"-50 950 CURVE"
);
}
);
width = 510;
},
{
associatedMasterId = "299DE00D-7BC2-4DFB-A399-2750234EE670";
layerId = "5F8BE0DD-A25E-402F-A2A4-C6ED0FEF0DBA";
name = "Oct 22 19, 01:33";
paths = (
{
closed = 0;
nodes = (
"570 100 LINE",
"-130 100 LINE"
);
},
{
closed = 0;
nodes = (
"220 -150 LINE",
"220 1200 LINE"
);
},
{
closed = 0;
nodes = (
"570 650 LINE",
"-130 650 LINE"
);
},
{
closed = 0;
nodes = (
"-130 0 LINE",
"570 0 LINE"
);
},
{
closed = 0;
nodes = (
"570 900 LINE",
"-130 900 LINE"
);
},
{
closed = 0;
nodes = (
"57 -167 LINE",
"57 213 LINE"
);
},
{
closed = 0;
nodes = (
"60 61 LINE",
"146 11 LINE"
);
},
{
closed = 0;
nodes = (
"527 105 LINE",
"271 548 LINE",
"184 501 LINE",
"447 44 LINE SMOOTH"
);
},
{
closed = 0;
nodes = (
"382 -167 LINE",
"382 213 LINE"
);
},
{
closed = 1;
nodes = (
"358 700 OFFCURVE",
"470 812 OFFCURVE",
"470 950 CURVE SMOOTH",
"470 1088 OFFCURVE",
"358 1200 OFFCURVE",
"220 1200 CURVE SMOOTH",
"82 1200 OFFCURVE",
"-30 1088 OFFCURVE",
"-30 950 CURVE SMOOTH",
"-30 812 OFFCURVE",
"82 700 OFFCURVE",
"220 700 CURVE SMOOTH"
);
},
{
closed = 1;
nodes = (
"280 700 OFFCURVE",
"370 790 OFFCURVE",
"370 900 CURVE SMOOTH",
"370 1010 OFFCURVE",
"280 1100 OFFCURVE",
"170 1100 CURVE SMOOTH",
"60 1100 OFFCURVE",
"-30 1010 OFFCURVE",
"-30 900 CURVE SMOOTH",
"-30 790 OFFCURVE",
"60 700 OFFCURVE",
"170 700 CURVE SMOOTH"
);
},
{
closed = 1;
nodes = (
"421 484 OFFCURVE",
"466 646 OFFCURVE",
"472 815 CURVE SMOOTH",
"480 1054 OFFCURVE",
"375 1211 OFFCURVE",
"178 1211 CURVE",
"178 1111 LINE",
"317 1111 OFFCURVE",
"378 997 OFFCURVE",
"372 818 CURVE SMOOTH",
"367 679 OFFCURVE",
"333 532 OFFCURVE",
"257 402 CURVE",
"343 352 LINE"
);
},
{
closed = 1;
nodes = (
"371 383 LINE",
"174 39 LINE",
"165 44 LINE",
"362 388 LINE"
);
},
{
closed = 1;
nodes = (
"76 110 LINE",
"248 407 LINE",
"257 402 LINE",
"85 105 LINE"
);
},
{
closed = 1;
nodes = (
"229 642 LINE",
"539 105 LINE",
"530 100 LINE",
"220 637 LINE"
);
},
{
closed = 1;
nodes = (
"438 39 LINE",
"135 567 LINE",
"144 572 LINE",
"447 44 LINE"
);
},
{
closed = 1;
nodes = (
"53 50 LINE",
"385 50 LINE",
"354 105 LINE",
"282 228 LINE",
"226 129 LINE",
"268 56 LINE",
"172 56 LINE",
"220 140 LINE",
"276 239 LINE",
"300 280 LINE",
"243 378 LINE"
);
}
);
visible = 1;
width = 550;
}
);
},
{
glyphname = "heh-ar.medi.01.03";
layers = (
{
layerId = "299DE00D-7BC2-4DFB-A399-2750234EE670";
paths = (
{
closed = 1;
nodes = (
"100 0 LINE",
"100 100 LINE",
"-50 100 LINE",
"-50 0 LINE"
);
},
{
closed = 1;
nodes = (
"74 358 LINE",
"159 408 LINE",
"154 417 LINE SMOOTH",
"141 441 OFFCURVE",
"147 474 OFFCURVE",
"172 485 CURVE SMOOTH",
"183 490 LINE",
"133 577 LINE",
"124 572 LINE SMOOTH",
"52 530 OFFCURVE",
"29 439 OFFCURVE",
"69 367 CURVE SMOOTH"
);
},
{
closed = 1;
nodes = (
"510 0 LINE",
"510 100 LINE",
"300 100 LINE",
"300 0 LINE"
);
},
{
closed = 1;
nodes = (
"510 100 LINE",
"200 637 LINE",
"180 614 OFFCURVE",
"158 591 OFFCURVE",
"124 572 CURVE",
"427 44 LINE"
);
},
{
closed = 1;
nodes = (
"146 430 LINE",
"72 362 LINE",
"137 249 LINE",
"193 347 LINE"
);
},
{
closed = 1;
nodes = (
"37 -77 OFFCURVE",
"109 -150 OFFCURVE",
"199 -150 CURVE SMOOTH",
"289 -150 OFFCURVE",
"362 -77 OFFCURVE",
"362 13 CURVE SMOOTH",
"362 47 OFFCURVE",
"352 79 OFFCURVE",
"334 105 CURVE",
"262 228 LINE",
"206 129 LINE",
"255 44 LINE SMOOTH",
"260 35 OFFCURVE",
"263 24 OFFCURVE",
"263 13 CURVE SMOOTH",
"263 -22 OFFCURVE",
"235 -50 OFFCURVE",
"200 -50 CURVE SMOOTH",
"165 -50 OFFCURVE",
"137 -22 OFFCURVE",
"137 13 CURVE SMOOTH",
"137 24 OFFCURVE",
"140 35 OFFCURVE",
"145 44 CURVE SMOOTH",
"200 140 LINE",
"256 239 LINE",
"280 280 LINE",
"223 378 LINE",
"65 105 LINE",
"47 79 OFFCURVE",
"37 47 OFFCURVE",
"37 13 CURVE SMOOTH"
);
},
{
closed = 1;
nodes = (
"-34 1022 OFFCURVE",
"16 1111 OFFCURVE",
"138 1111 CURVE SMOOTH",
"277 1111 OFFCURVE",
"358 997 OFFCURVE",
"352 818 CURVE SMOOTH",
"349 715 OFFCURVE",
"329 607 OFFCURVE",
"288 505 CURVE",
"349 400 LINE",
"398 491 OFFCURVE",
"452 654 OFFCURVE",
"452 841 CURVE SMOOTH",
"452 1060 OFFCURVE",
"336 1200 OFFCURVE",
"180 1200 CURVE SMOOTH",
"42 1200 OFFCURVE",
"-50 1088 OFFCURVE",
"-50 950 CURVE"
);
}
);
width = 510;
},
{
associatedMasterId = "299DE00D-7BC2-4DFB-A399-2750234EE670";
layerId = "5F8BE0DD-A25E-402F-A2A4-C6ED0FEF0DBA";
name = "Oct 22 19, 01:33";
paths = (
{
closed = 0;
nodes = (
"570 100 LINE",
"-130 100 LINE"
);
},
{
closed = 0;
nodes = (
"220 -150 LINE",
"220 1200 LINE"
);
},
{
closed = 0;
nodes = (
"570 650 LINE",
"-130 650 LINE"
);
},
{
closed = 0;
nodes = (
"-130 0 LINE",
"570 0 LINE"
);
},
{
closed = 0;
nodes = (
"570 900 LINE",
"-130 900 LINE"
);
},
{
closed = 0;
nodes = (
"57 -167 LINE",
"57 213 LINE"
);
},
{
closed = 0;
nodes = (
"60 61 LINE",
"146 11 LINE"
);
},
{
closed = 0;
nodes = (
"527 105 LINE",
"271 548 LINE",
"184 501 LINE",
"447 44 LINE SMOOTH"
);
},
{
closed = 0;
nodes = (
"382 -167 LINE",
"382 213 LINE"
);
},
{
closed = 1;
nodes = (
"358 700 OFFCURVE",
"470 812 OFFCURVE",
"470 950 CURVE SMOOTH",
"470 1088 OFFCURVE",
"358 1200 OFFCURVE",
"220 1200 CURVE SMOOTH",
"82 1200 OFFCURVE",
"-30 1088 OFFCURVE",
"-30 950 CURVE SMOOTH",
"-30 812 OFFCURVE",
"82 700 OFFCURVE",
"220 700 CURVE SMOOTH"
);
},
{
closed = 1;
nodes = (
"280 700 OFFCURVE",
"370 790 OFFCURVE",
"370 900 CURVE SMOOTH",
"370 1010 OFFCURVE",
"280 1100 OFFCURVE",
"170 1100 CURVE SMOOTH",
"60 1100 OFFCURVE",
"-30 1010 OFFCURVE",
"-30 900 CURVE SMOOTH",
"-30 790 OFFCURVE",
"60 700 OFFCURVE",
"170 700 CURVE SMOOTH"
);
},
{
closed = 1;
nodes = (
"421 484 OFFCURVE",
"466 646 OFFCURVE",
"472 815 CURVE SMOOTH",
"480 1054 OFFCURVE",
"375 1211 OFFCURVE",
"178 1211 CURVE",
"178 1111 LINE",
"317 1111 OFFCURVE",
"378 997 OFFCURVE",
"372 818 CURVE SMOOTH",
"367 679 OFFCURVE",
"333 532 OFFCURVE",
"257 402 CURVE",
"343 352 LINE"
);
},
{
closed = 1;
nodes = (
"371 383 LINE",
"174 39 LINE",
"165 44 LINE",
"362 388 LINE"
);
},
{
closed = 1;
nodes = (
"76 110 LINE",
"248 407 LINE",
"257 402 LINE",
"85 105 LINE"
);
},
{
closed = 1;
nodes = (
"229 642 LINE",
"539 105 LINE",
"530 100 LINE",
"220 637 LINE"
);
},
{
closed = 1;
nodes = (
"438 39 LINE",
"135 567 LINE",
"144 572 LINE",
"447 44 LINE"
);
}
);
visible = 1;
width = 550;
}
);
},
{
glyphname = "heh-ar.medi.02.03";
layers = (
{
layerId = "299DE00D-7BC2-4DFB-A399-2750234EE670";
paths = (
{
closed = 1;
nodes = (
"447 298 LINE",
"330 415 LINE SMOOTH",
"321 424 OFFCURVE",
"321 440 OFFCURVE",
"331 450 CURVE SMOOTH",
"341 460 OFFCURVE",
"355 459 OFFCURVE",
"365 450 CURVE SMOOTH",
"376 440 LINE",
"447 510 LINE",
"437 520 LINE SMOOTH",
"389 568 OFFCURVE",
"309 570 OFFCURVE",
"260 520 CURVE SMOOTH",
"212 471 OFFCURVE",
"212 392 OFFCURVE",
"261 343 CURVE SMOOTH",
"376 228 LINE"
);
},
{
closed = 1;
nodes = (
"543 451 LINE SMOOTH",
"552 460 OFFCURVE",
"567 460 OFFCURVE",
"577 450 CURVE SMOOTH",
"587 440 OFFCURVE",
"587 425 OFFCURVE",
"578 416 CURVE SMOOTH",
"567 404 LINE",
"637 334 LINE",
"647 344 LINE SMOOTH",
"696 393 OFFCURVE",
"698 471 OFFCURVE",
"648 521 CURVE SMOOTH",
"599 570 OFFCURVE",
"520 569 OFFCURVE",
"471 520 CURVE SMOOTH",
"355 404 LINE",
"425 334 LINE"
);
},
{
closed = 1;
nodes = (
"461 355 LINE",
"750 66 LINE",
"857 100 LINE",
"552 100 LINE",
"554 0 LINE",
"857 0 LINE",
"857 100 LINE",
"531 426 LINE"
);
},
{
closed = 1;
nodes = (
"162 70 LINE",
"341 249 LINE",
"270 320 LINE",
"21 71 LINE"
);
},
{
closed = 1;
nodes = (
"519 0 LINE",
"535 33 OFFCURVE",
"524 72 OFFCURVE",
"490 100 CURVE",
"-50 100 LINE",
"-50 0 LINE"
);
},
{
closed = 1;
nodes = (
"414 110 LINE",
"553 249 LINE",
"482 320 LINE",
"325 163 LINE SMOOTH",
"310 148 OFFCURVE",
"297 130 OFFCURVE",
"288 110 CURVE"
);
},
{
closed = 1;
nodes = (
"295 -90 OFFCURVE",
"368 -150 OFFCURVE",
"454 -150 CURVE SMOOTH",
"554 -150 OFFCURVE",
"636 -68 OFFCURVE",
"636 33 CURVE SMOOTH",
"636 84 OFFCURVE",
"615 130 OFFCURVE",
"581 163 CURVE SMOOTH",
"531 213 LINE",
"461 143 LINE",
"513 91 LINE",
"524 78 OFFCURVE",
"536 56 OFFCURVE",
"536 32 CURVE SMOOTH",
"536 -13 OFFCURVE",
"499 -50 OFFCURVE",
"454 -50 CURVE SMOOTH",
"424 -50 OFFCURVE",
"397 -34 OFFCURVE",
"383 -10 CURVE",
"276 -10 LINE"
);
}
);
width = 857;
},
{
associatedMasterId = "299DE00D-7BC2-4DFB-A399-2750234EE670";
layerId = "95F886DD-7128-4DD8-80EA-7EC6A1A3DD0D";
name = "Feb 10 20, 21:09";
paths = (
{
closed = 1;
nodes = (
"190 250 LINE",
"190 350 LINE",
"-200 350 LINE",
"-200 250 LINE"
);
},
{
closed = 1;
nodes = (
"300 -300 LINE",
"300 90 LINE",
"200 90 LINE",
"200 -300 LINE"
);
},
{
closed = 1;
nodes = (
"340 100 LINE",
"340 200 LINE",
"-200 200 LINE",
"-200 100 LINE"
);
},
{
closed = 1;
nodes = (
"450 -300 LINE",
"450 240 LINE",
"350 240 LINE",
"350 -300 LINE"
);
},
{
closed = 1;
nodes = (
"300 210 LINE",
"300 375 LINE SMOOTH",
"300 388 OFFCURVE",
"311 399 OFFCURVE",
"325 399 CURVE SMOOTH",
"339 399 OFFCURVE",
"350 388 OFFCURVE",
"350 375 CURVE SMOOTH",
"350 360 LINE",
"450 360 LINE",
"450 373 LINE SMOOTH",
"450 442 OFFCURVE",
"395 499 OFFCURVE",
"325 499 CURVE SMOOTH",
"256 499 OFFCURVE",
"200 442 OFFCURVE",
"200 373 CURVE SMOOTH",
"200 210 LINE"
);
},
{
closed = 1;
nodes = (
"476 250 LINE SMOOTH",
"489 250 OFFCURVE",
"500 239 OFFCURVE",
"500 225 CURVE SMOOTH",
"500 211 OFFCURVE",
"489 200 OFFCURVE",
"476 200 CURVE SMOOTH",
"460 200 LINE",
"460 100 LINE",
"474 100 LINE SMOOTH",
"543 100 OFFCURVE",
"600 155 OFFCURVE",
"600 225 CURVE SMOOTH",
"600 294 OFFCURVE",
"543 350 OFFCURVE",
"474 350 CURVE SMOOTH",
"310 350 LINE",
"310 250 LINE"
);
}
);
width = 450;
},
{
associatedMasterId = "299DE00D-7BC2-4DFB-A399-2750234EE670";
layerId = "57D9BDDE-DBB8-49DB-B75C-1B5EA3DBAE73";
name = "Feb 10 20, 21:12";
paths = (
{
closed = 1;
nodes = (
"250 504 LINE",
"179 433 LINE",
"639 -27 LINE",
"710 44 LINE"
);
},
{
closed = 1;
nodes = (
"144 398 LINE",
"73 327 LINE",
"533 -133 LINE",
"604 -62 LINE"
);
},
{
closed = 1;
nodes = (
"427 327 LINE",
"356 398 LINE",
"-104 -62 LINE",
"-33 -133 LINE"
);
},
{
closed = 1;
nodes = (
"321 433 LINE",
"250 504 LINE",
"-210 44 LINE",
"-139 -27 LINE"
);
}
);
width = 450;
},
{
associatedMasterId = "299DE00D-7BC2-4DFB-A399-2750234EE670";
layerId = "436160EA-397E-48C3-8EE2-DF90F54EACCE";
name = "Feb 10 20, 21:13";
paths = (
{
closed = 1;
nodes = (
"190 250 LINE",
"190 350 LINE",
"-200 350 LINE",
"-200 250 LINE"
);
},
{
closed = 1;
nodes = (
"300 -300 LINE",
"300 90 LINE",
"200 90 LINE",
"200 -300 LINE"
);
},
{
closed = 1;
nodes = (
"340 100 LINE",
"340 200 LINE",
"-200 200 LINE",
"-200 100 LINE"
);
},
{
closed = 1;
nodes = (
"450 -300 LINE",
"450 240 LINE",
"350 240 LINE",
"350 -300 LINE"
);
},
{
closed = 1;
nodes = (
"300 210 LINE",
"300 375 LINE SMOOTH",
"300 388 OFFCURVE",
"311 399 OFFCURVE",
"325 399 CURVE SMOOTH",
"339 399 OFFCURVE",
"350 388 OFFCURVE",
"350 375 CURVE SMOOTH",
"350 360 LINE",
"450 360 LINE",
"450 373 LINE SMOOTH",
"450 442 OFFCURVE",
"395 499 OFFCURVE",
"325 499 CURVE SMOOTH",
"256 499 OFFCURVE",
"200 442 OFFCURVE",
"200 373 CURVE SMOOTH",
"200 210 LINE"
);
},
{
closed = 1;
nodes = (
"476 250 LINE SMOOTH",
"489 250 OFFCURVE",
"500 239 OFFCURVE",
"500 225 CURVE SMOOTH",
"500 211 OFFCURVE",
"489 200 OFFCURVE",
"476 200 CURVE SMOOTH",
"460 200 LINE",
"460 100 LINE",
"474 100 LINE SMOOTH",
"543 100 OFFCURVE",
"600 155 OFFCURVE",
"600 225 CURVE SMOOTH",
"600 294 OFFCURVE",
"543 350 OFFCURVE",
"474 350 CURVE SMOOTH",
"310 350 LINE",
"310 250 LINE"
);
}
);
width = 450;
},
{
associatedMasterId = "299DE00D-7BC2-4DFB-A399-2750234EE670";
layerId = "307D0D6E-22EC-42EE-B7FB-BF7C80963931";
name = "Feb 10 20, 22:00";
paths = (
{
closed = 1;
nodes = (
"447 298 LINE",
"330 415 LINE SMOOTH",
"321 424 OFFCURVE",
"321 440 OFFCURVE",
"331 450 CURVE SMOOTH",
"341 460 OFFCURVE",
"355 459 OFFCURVE",
"365 450 CURVE SMOOTH",
"376 440 LINE",
"447 510 LINE",
"437 520 LINE SMOOTH",
"389 568 OFFCURVE",
"309 570 OFFCURVE",
"260 520 CURVE SMOOTH",
"212 471 OFFCURVE",
"212 392 OFFCURVE",
"261 343 CURVE SMOOTH",
"376 228 LINE"
);
},
{
closed = 1;
nodes = (
"543 451 LINE SMOOTH",
"552 460 OFFCURVE",
"567 460 OFFCURVE",
"577 450 CURVE SMOOTH",
"587 440 OFFCURVE",
"587 425 OFFCURVE",
"578 416 CURVE SMOOTH",
"567 404 LINE",
"637 334 LINE",
"647 344 LINE SMOOTH",
"696 393 OFFCURVE",
"698 471 OFFCURVE",
"648 521 CURVE SMOOTH",
"599 570 OFFCURVE",
"520 569 OFFCURVE",
"471 520 CURVE SMOOTH",
"355 404 LINE",
"425 334 LINE"
);
},
{
closed = 1;
nodes = (
"461 355 LINE",
"750 66 LINE",
"857 100 LINE",
"552 100 LINE",
"554 0 LINE",
"857 0 LINE",
"857 100 LINE",
"531 426 LINE"
);
},
{
closed = 1;
nodes = (
"162 70 LINE",
"341 249 LINE",
"270 320 LINE",
"21 71 LINE"
);
},
{
closed = 1;
nodes = (
"519 0 LINE",
"523 10 OFFCURVE",
"526 20 OFFCURVE",
"526 32 CURVE SMOOTH",
"526 50 OFFCURVE",
"518 70 OFFCURVE",
"506 84 CURVE SMOOTH",
"490 100 LINE",
"-50 100 LINE",
"-50 0 LINE"
);
},
{
closed = 1;
nodes = (
"414 110 LINE",
"553 249 LINE",
"482 320 LINE",
"325 163 LINE SMOOTH",
"310 148 OFFCURVE",
"297 130 OFFCURVE",
"288 110 CURVE"
);
},
{
closed = 1;
nodes = (
"295 -90 OFFCURVE",
"368 -150 OFFCURVE",
"454 -150 CURVE SMOOTH",
"554 -150 OFFCURVE",
"636 -68 OFFCURVE",
"636 33 CURVE SMOOTH",
"636 84 OFFCURVE",
"615 130 OFFCURVE",
"581 163 CURVE SMOOTH",
"531 213 LINE",
"461 143 LINE",
"513 91 LINE",
"524 78 OFFCURVE",
"536 56 OFFCURVE",
"536 32 CURVE SMOOTH",
"536 -13 OFFCURVE",
"499 -50 OFFCURVE",
"454 -50 CURVE SMOOTH",
"424 -50 OFFCURVE",
"397 -34 OFFCURVE",
"383 -10 CURVE",
"276 -10 LINE"
);
}
);
visible = 1;
width = 857;
}
);
},
{
glyphname = "heh-ar.medi.02.04";
layers = (
{
layerId = "299DE00D-7BC2-4DFB-A399-2750234EE670";
paths = (
{
closed = 1;
nodes = (
"-50 0 LINE",
"54 0 LINE",
"54 100 LINE",
"-50 100 LINE"
);
},
{
closed = 1;
nodes = (
"383 349 OFFCURVE",
"419 334 OFFCURVE",
"450 312 CURVE",
"446 419 OFFCURVE",
"395 500 OFFCURVE",
"300 500 CURVE",
"300 400 LINE",
"322 400 OFFCURVE",
"337 386 OFFCURVE",
"344 356 CURVE"
);
},
{
closed = 1;
nodes = (
"170 0 LINE SMOOTH",
"271 0 OFFCURVE",
"370 77 OFFCURVE",
"419 175 CURVE",
"400 204 OFFCURVE",
"371 226 OFFCURVE",
"336 235 CURVE",
"310 169 OFFCURVE",
"245 100 OFFCURVE",
"150 100 CURVE SMOOTH",
"50 100 LINE",
"50 0 LINE"
);
},
{
closed = 1;
nodes = (
"347 13 OFFCURVE",
"388 0 OFFCURVE",
"430 0 CURVE SMOOTH",
"550 0 LINE",
"550 100 LINE",
"450 100 LINE SMOOTH",
"428 100 OFFCURVE",
"408 104 OFFCURVE",
"389 110 CURVE",
"366 80 OFFCURVE",
"339 55 OFFCURVE",
"310 35 CURVE"
);
},
{
closed = 1;
nodes = (
"265 220 OFFCURVE",
"250 265 OFFCURVE",
"250 300 CURVE SMOOTH",
"250 370 OFFCURVE",
"268 400 OFFCURVE",
"300 400 CURVE",
"300 500 LINE",
"201 500 OFFCURVE",
"150 413 OFFCURVE",
"150 300 CURVE SMOOTH",
"150 238 OFFCURVE",
"175 175 OFFCURVE",
"214 122 CURVE",
"245 134 OFFCURVE",
"272 155 OFFCURVE",
"294 182 CURVE"
);
},
{
closed = 1;
nodes = (
"261 335 OFFCURVE",
"260 319 OFFCURVE",
"260 300 CURVE SMOOTH",
"260 284 OFFCURVE",
"264 265 OFFCURVE",
"270 247 CURVE",
"280 249 OFFCURVE",
"290 250 OFFCURVE",
"300 250 CURVE SMOOTH",
"383 250 OFFCURVE",
"450 183 OFFCURVE",
"450 100 CURVE",
"550 100 LINE",
"550 238 OFFCURVE",
"438 350 OFFCURVE",
"300 350 CURVE SMOOTH",
"288 350 OFFCURVE",
"276 349 OFFCURVE",
"264 347 CURVE"
);
},
{
closed = 1;
nodes = (
"150 100 LINE",
"150 127 OFFCURVE",
"157 153 OFFCURVE",
"170 175 CURVE",
"152 214 OFFCURVE",
"141 254 OFFCURVE",
"140 292 CURVE",
"85 246 OFFCURVE",
"50 177 OFFCURVE",
"50 100 CURVE"
);
}
);
width = 550;
},
{
associatedMasterId = "299DE00D-7BC2-4DFB-A399-2750234EE670";
layerId = "099D44B5-4488-4EC7-A609-87E78B86283F";
name = "Feb 19 20, 09:12";
paths = (
{
closed = 1;
nodes = (
"0 0 LINE",
"54 0 LINE",
"54 100 LINE",
"0 100 LINE"
);
},
{
closed = 1;
nodes = (
"150 183 OFFCURVE",
"217 250 OFFCURVE",
"300 250 CURVE SMOOTH",
"383 250 OFFCURVE",
"450 183 OFFCURVE",
"450 100 CURVE",
"550 100 LINE",
"550 238 OFFCURVE",
"438 350 OFFCURVE",
"300 350 CURVE SMOOTH",
"162 350 OFFCURVE",
"50 238 OFFCURVE",
"50 100 CURVE",
"150 100 LINE"
);
},
{
closed = 1;
nodes = (
"332 400 OFFCURVE",
"350 370 OFFCURVE",
"350 300 CURVE SMOOTH",
"350 223 OFFCURVE",
"277 100 OFFCURVE",
"150 100 CURVE SMOOTH",
"50 100 LINE",
"50 0 LINE",
"170 0 LINE SMOOTH",
"312 0 OFFCURVE",
"450 153 OFFCURVE",
"450 300 CURVE SMOOTH",
"450 413 OFFCURVE",
"399 500 OFFCURVE",
"300 500 CURVE",
"300 400 LINE"
);
},
{
closed = 1;
nodes = (
"300 500 LINE",
"201 500 OFFCURVE",
"150 413 OFFCURVE",
"150 300 CURVE SMOOTH",
"150 153 OFFCURVE",
"288 0 OFFCURVE",
"430 0 CURVE SMOOTH",
"550 0 LINE",
"550 100 LINE",
"450 100 LINE SMOOTH",
"323 100 OFFCURVE",
"250 223 OFFCURVE",
"250 300 CURVE SMOOTH",
"250 370 OFFCURVE",
"268 400 OFFCURVE",
"300 400 CURVE"
);
}
);
visible = 1;
width = 550;
}
);
},
{
glyphname = "heh-ar.medi.behHeh";
layers = (
{
anchors = (
{
name = entry;
position = "{410, 246}";
}
);
layerId = "299DE00D-7BC2-4DFB-A399-2750234EE670";
paths = (
{
closed = 1;
nodes = (
"506 0 LINE",
"302 354 LINE",
"196 338 LINE",
"391 0 LINE"
);
},
{
closed = 1;
nodes = (
"-50 0 LINE",
"506 0 LINE",
"397 100 LINE",
"-50 100 LINE"
);
},
{
closed = 1;
nodes = (
"276 331 LINE",
"85 0 LINE",
"200 0 LINE",
"335 233 LINE"
);
},
{
closed = 1;
nodes = (
"385 349 LINE",
"356 361 OFFCURVE",
"325 367 OFFCURVE",
"292 367 CURVE SMOOTH",
"156 367 OFFCURVE",
"50 263 OFFCURVE",
"50 127 CURVE SMOOTH",
"50 96 OFFCURVE",
"55 67 OFFCURVE",
"66 40 CURVE",
"165 43 LINE",
"149 67 OFFCURVE",
"140 97 OFFCURVE",
"140 129 CURVE SMOOTH",
"140 214 OFFCURVE",
"206 274 OFFCURVE",
"292 274 CURVE SMOOTH",
"326 274 OFFCURVE",
"380 258 OFFCURVE",
"410 246 CURVE"
);
}
);
width = 506;
}
);
},
{
glyphname = "heh-ar.init";
layers = (
{
components = (
{
alignment = -1;
name = "heh-ar.medi";
}
);
layerId = "299DE00D-7BC2-4DFB-A399-2750234EE670";
paths = (
{
closed = 1;
nodes = (
"626 0 LINE",
"539 150 LINE",
"452 0 LINE"
);
}
);
width = 626;
}
);
},
{
glyphname = "heh-ar.init.01.01";
layers = (
{
components = (
{
alignment = -1;
name = "heh-ar.medi.01.01";
}
);
layerId = "299DE00D-7BC2-4DFB-A399-2750234EE670";
paths = (
{
closed = 1;
nodes = (
"626 0 LINE",
"539 150 LINE",
"452 0 LINE"
);
}
);
width = 626;
}
);
},
{
glyphname = "heh-ar.init.01.02";
layers = (
{
components = (
{
alignment = -1;
name = "heh-ar.medi.01.02";
}
);
layerId = "299DE00D-7BC2-4DFB-A399-2750234EE670";
paths = (
{
closed = 1;
nodes = (
"626 0 LINE",
"539 150 LINE",
"452 0 LINE"
);
}
);
width = 626;
}
);
},
{
glyphname = "heh-ar.init.01.03";
layers = (
{
components = (
{
alignment = -1;
name = "heh-ar.medi.01.03";
}
);
layerId = "299DE00D-7BC2-4DFB-A399-2750234EE670";
paths = (
{
closed = 1;
nodes = (
"626 0 LINE",
"539 150 LINE",
"452 0 LINE"
);
}
);
width = 626;
}
);
},
{
glyphname = "heh-ar.init.02.00";
layers = (
{
components = (
{
name = _zuluf100;
transform = "{-0.5, 0.86603, -0.86603, -0.5, 298, 396}";
}
);
layerId = "299DE00D-7BC2-4DFB-A399-2750234EE670";
paths = (
{
closed = 1;
nodes = (
"526 0 LINE",
"298 396 LINE",
"216 338 LINE",
"411 0 LINE"
);
},
{
closed = 1;
nodes = (
"-50 0 LINE",
"526 0 LINE",
"417 100 LINE",
"-50 100 LINE"
);
},
{
closed = 1;
nodes = (
"296 331 LINE",
"105 0 LINE",
"220 0 LINE",
"355 233 LINE"
);
},
{
closed = 1;
nodes = (
"252 361 LINE",
"147 331 OFFCURVE",
"70 243 OFFCURVE",
"70 128 CURVE SMOOTH",
"70 95 OFFCURVE",
"76 64 OFFCURVE",
"88 35 CURVE",
"212 14 LINE",
"180 41 OFFCURVE",
"160 82 OFFCURVE",
"160 128 CURVE SMOOTH",
"160 209 OFFCURVE",
"234 275 OFFCURVE",
"314 278 CURVE"
);
}
);
width = 526;
},
{
associatedMasterId = "299DE00D-7BC2-4DFB-A399-2750234EE670";
layerId = "1DF5D933-E5BD-4802-ADC8-8610F8AD6C8C";
name = "Oct 22 19, 15:09";
paths = (
{
closed = 1;
nodes = (
"150 692 LINE",
"64 642 LINE",
"426 16 LINE",
"550 0 LINE"
);
},
{
closed = 1;
nodes = (
"550 0 LINE",
"441 100 LINE",
"-20 100 LINE",
"-20 0 LINE"
);
},
{
closed = 1;
nodes = (
"244 19 LINE",
"374 244 LINE",
"304 322 LINE",
"118 0 LINE"
);
},
{
closed = 1;
nodes = (
"288 375 LINE",
"164 375 OFFCURVE",
"64 275 OFFCURVE",
"64 151 CURVE SMOOTH",
"64 109 OFFCURVE",
"76 69 OFFCURVE",
"96 35 CURVE",
"193 71 LINE",
"175 93 OFFCURVE",
"164 121 OFFCURVE",
"164 151 CURVE SMOOTH",
"164 219 OFFCURVE",
"220 275 OFFCURVE",
"288 275 CURVE"
);
}
);
width = 550;
}
);
},
{
glyphname = "heh-ar.init.02.01";
layers = (
{
components = (
{
name = _elbow.1;
transform = "{1, 0, 0, 1, 50, 0}";
},
{
name = _zuluf100;
transform = "{0, 1, -1, 0, 300, 350}";
}
);
layerId = "299DE00D-7BC2-4DFB-A399-2750234EE670";
paths = (
{
closed = 1;
nodes = (
"150 0 LINE",
"150 100 LINE",
"160 100 LINE",
"160 0 LINE"
);
},
{
closed = 1;
nodes = (
"300 0 LINE",
"300 350 LINE",
"200 350 LINE",
"200 0 LINE"
);
},
{
closed = 1;
nodes = (
"470 23 OFFCURVE",
"450 59 OFFCURVE",
"450 100 CURVE",
"440 100 LINE",
"440 0 LINE",
"500 0 LINE"
);
},
{
closed = 1;
nodes = (
"450 0 LINE",
"450 100 LINE",
"-50 100 LINE",
"-50 0 LINE"
);
},
{
closed = 1;
nodes = (
"200 110 LINE",
"300 110 LINE",
"300 100 LINE",
"200 100 LINE"
);
},
{
closed = 1;
nodes = (
"300 -10 LINE",
"200 -10 LINE",
"200 0 LINE",
"300 0 LINE"
);
},
{
closed = 1;
nodes = (
"334 162 OFFCURVE",
"350 133 OFFCURVE",
"350 100 CURVE SMOOTH",
"350 85 OFFCURVE",
"347 72 OFFCURVE",
"341 59 CURVE",
"446 61 LINE",
"449 74 OFFCURVE",
"450 87 OFFCURVE",
"450 100 CURVE SMOOTH",
"450 189 OFFCURVE",
"391 265 OFFCURVE",
"310 291 CURVE",
"310 180 LINE"
);
},
{
closed = 1;
nodes = (
"150 0 LINE",
"150 100 LINE SMOOTH",
"150 133 OFFCURVE",
"166 162 OFFCURVE",
"190 180 CURVE",
"190 291 LINE",
"109 265 OFFCURVE",
"50 189 OFFCURVE",
"50 100 CURVE SMOOTH",
"50 0 LINE"
);
}
);
width = 500;
},
{
associatedMasterId = "299DE00D-7BC2-4DFB-A399-2750234EE670";
components = (
{
name = _elbow.1;
transform = "{1, 0, 0, 1, 50, 0}";
}
);
hints = (
{
origin = "{2, 1}";
type = Corner;
name = _corner.100;
}
);
layerId = "2092749E-15F7-4FC3-949A-2D3F232604A1";
name = "Oct 25 19, 10:58";
paths = (
{
closed = 1;
nodes = (
"450 0 LINE",
"450 100 LINE",
"-20 100 LINE",
"-20 0 LINE"
);
},
{
closed = 1;
nodes = (
"446 61 LINE",
"449 74 OFFCURVE",
"450 87 OFFCURVE",
"450 100 CURVE SMOOTH",
"450 210 OFFCURVE",
"360 300 OFFCURVE",
"250 300 CURVE SMOOTH",
"140 300 OFFCURVE",
"50 210 OFFCURVE",
"50 100 CURVE",
"50 0 LINE",
"150 0 LINE",
"150 100 LINE",
"150 155 OFFCURVE",
"195 200 OFFCURVE",
"250 200 CURVE SMOOTH",
"305 200 OFFCURVE",
"350 155 OFFCURVE",
"350 100 CURVE SMOOTH",
"350 85 OFFCURVE",
"347 72 OFFCURVE",
"341 59 CURVE"
);
},
{
closed = 1;
nodes = (
"300 0 LINE",
"300 350 LINE",
"200 350 LINE",
"200 0 LINE"
);
},
{
closed = 1;
nodes = (
"470 23 OFFCURVE",
"450 59 OFFCURVE",
"450 100 CURVE",
"440 100 LINE",
"440 0 LINE",
"500 0 LINE"
);
}
);
width = 500;
}
);
},
{
glyphname = "heh-ar.init.02.02";
layers = (
{
components = (
{
name = _elbow.1;
transform = "{1, 0, 0, 1, 50, 0}";
}
);
layerId = "299DE00D-7BC2-4DFB-A399-2750234EE670";
paths = (
{
closed = 1;
nodes = (
"150 0 LINE",
"150 100 LINE",
"160 100 LINE",
"160 0 LINE"
);
},
{
closed = 1;
nodes = (
"300 0 LINE",
"300 313 LINE",
"200 313 LINE",
"200 0 LINE"
);
},
{
closed = 1;
nodes = (
"470 23 OFFCURVE",
"450 59 OFFCURVE",
"450 100 CURVE",
"440 100 LINE",
"440 0 LINE",
"500 0 LINE"
);
},
{
closed = 1;
nodes = (
"450 0 LINE",
"450 100 LINE",
"-50 100 LINE",
"-50 0 LINE"
);
},
{
closed = 1;
nodes = (
"200 110 LINE",
"300 110 LINE",
"300 100 LINE",
"200 100 LINE"
);
},
{
closed = 1;
nodes = (
"300 -10 LINE",
"200 -10 LINE",
"200 0 LINE",
"300 0 LINE"
);
},
{
closed = 1;
nodes = (
"334 162 OFFCURVE",
"350 133 OFFCURVE",
"350 100 CURVE SMOOTH",
"350 85 OFFCURVE",
"347 72 OFFCURVE",
"341 59 CURVE",
"446 61 LINE",
"449 74 OFFCURVE",
"450 87 OFFCURVE",
"450 100 CURVE SMOOTH",
"450 189 OFFCURVE",
"391 265 OFFCURVE",
"310 291 CURVE",
"310 180 LINE"
);
},
{
closed = 1;
nodes = (
"150 0 LINE",
"150 100 LINE SMOOTH",
"150 133 OFFCURVE",
"166 162 OFFCURVE",
"190 180 CURVE",
"190 291 LINE",
"109 265 OFFCURVE",
"50 189 OFFCURVE",
"50 100 CURVE SMOOTH",
"50 0 LINE"
);
},
{
closed = 1;
nodes = (
"300 400 LINE",
"300 442 OFFCURVE",
"279 462 OFFCURVE",
"239 462 CURVE",
"160 462 LINE",
"167 437 OFFCURVE",
"167 387 OFFCURVE",
"160 362 CURVE",
"190 362 OFFCURVE",
"200 352 OFFCURVE",
"200 323 CURVE",
"200 296 LINE",
"300 296 LINE"
);
}
);
width = 500;
},
{
associatedMasterId = "299DE00D-7BC2-4DFB-A399-2750234EE670";
components = (
{
name = _elbow.1;
transform = "{1, 0, 0, 1, 50, 0}";
}
);
hints = (
{
origin = "{2, 1}";
type = Corner;
name = _corner.100;
}
);
layerId = "2092749E-15F7-4FC3-949A-2D3F232604A1";
name = "Oct 25 19, 10:58";
paths = (
{
closed = 1;
nodes = (
"450 0 LINE",
"450 100 LINE",
"-20 100 LINE",
"-20 0 LINE"
);
},
{
closed = 1;
nodes = (
"446 61 LINE",
"449 74 OFFCURVE",
"450 87 OFFCURVE",
"450 100 CURVE SMOOTH",
"450 210 OFFCURVE",
"360 300 OFFCURVE",
"250 300 CURVE SMOOTH",
"140 300 OFFCURVE",
"50 210 OFFCURVE",
"50 100 CURVE",
"50 0 LINE",
"150 0 LINE",
"150 100 LINE",
"150 155 OFFCURVE",
"195 200 OFFCURVE",
"250 200 CURVE SMOOTH",
"305 200 OFFCURVE",
"350 155 OFFCURVE",
"350 100 CURVE SMOOTH",
"350 85 OFFCURVE",
"347 72 OFFCURVE",
"341 59 CURVE"
);
},
{
closed = 1;
nodes = (
"300 0 LINE",
"300 350 LINE",
"200 350 LINE",
"200 0 LINE"
);
},
{
closed = 1;
nodes = (
"470 23 OFFCURVE",
"450 59 OFFCURVE",
"450 100 CURVE",
"440 100 LINE",
"440 0 LINE",
"500 0 LINE"
);
}
);
width = 500;
},
{
associatedMasterId = "299DE00D-7BC2-4DFB-A399-2750234EE670";
components = (
{
name = _elbow.1;
transform = "{1, 0, 0, 1, 50, 0}";
}
);
layerId = "075B5F6A-40B4-468B-91CE-9819626F1638";
name = "Feb 10 20, 20:30";
paths = (
{
closed = 1;
nodes = (
"150 0 LINE",
"150 100 LINE",
"160 100 LINE",
"160 0 LINE"
);
},
{
closed = 1;
nodes = (
"300 0 LINE",
"300 350 LINE",
"200 350 LINE",
"200 0 LINE"
);
},
{
closed = 1;
nodes = (
"470 23 OFFCURVE",
"450 59 OFFCURVE",
"450 100 CURVE",
"440 100 LINE",
"440 0 LINE",
"500 0 LINE"
);
},
{
closed = 1;
nodes = (
"450 0 LINE",
"450 100 LINE",
"-50 100 LINE",
"-50 0 LINE"
);
},
{
closed = 1;
nodes = (
"200 110 LINE",
"300 110 LINE",
"300 100 LINE",
"200 100 LINE"
);
},
{
closed = 1;
nodes = (
"300 -10 LINE",
"200 -10 LINE",
"200 0 LINE",
"300 0 LINE"
);
},
{
closed = 1;
nodes = (
"334 162 OFFCURVE",
"350 133 OFFCURVE",
"350 100 CURVE SMOOTH",
"350 85 OFFCURVE",
"347 72 OFFCURVE",
"341 59 CURVE",
"446 61 LINE",
"449 74 OFFCURVE",
"450 87 OFFCURVE",
"450 100 CURVE SMOOTH",
"450 189 OFFCURVE",
"391 265 OFFCURVE",
"310 291 CURVE",
"310 180 LINE"
);
},
{
closed = 1;
nodes = (
"150 0 LINE",
"150 100 LINE SMOOTH",
"150 133 OFFCURVE",
"166 162 OFFCURVE",
"190 180 CURVE",
"190 291 LINE",
"109 265 OFFCURVE",
"50 189 OFFCURVE",
"50 100 CURVE SMOOTH",
"50 0 LINE"
);
},
{
closed = 1;
nodes = (
"300 500 LINE",
"277 442 OFFCURVE",
"215 400 OFFCURVE",
"150 400 CURVE",
"150 400 OFFCURVE",
"200 400 OFFCURVE",
"200 350 CURVE SMOOTH",
"200 330 LINE",
"300 330 LINE"
);
}
);
visible = 1;
width = 500;
}
);
},
{
glyphname = "waw-ar";
layers = (
{
anchors = (
{
name = top;
position = "{125, 300}";
}
);
components = (
{
name = _elbow.3;
transform = "{-1, 0, 0, 1, 150, 100}";
}
);
layerId = "299DE00D-7BC2-4DFB-A399-2750234EE670";
paths = (
{
closed = 1;
nodes = (
"240 -150 OFFCURVE",
"250 -40 OFFCURVE",
"250 10 CURVE",
"150 10 LINE",
"150 -28 OFFCURVE",
"137 -114 OFFCURVE",
"0 -113 CURVE",
"41 -144 OFFCURVE",
"81 -150 OFFCURVE",
"120 -150 CURVE SMOOTH"
);
},
{
closed = 1;
nodes = (
"250 0 LINE",
"250 100 LINE",
"0 100 LINE",
"0 0 LINE"
);
},
{
closed = 1;
nodes = (
"250 40 LINE",
"250 250 LINE",
"150 250 LINE",
"150 40 LINE"
);
},
{
closed = 1;
nodes = (
"250 240 LINE",
"250 300 LINE",
"227 270 OFFCURVE",
"191 250 OFFCURVE",
"150 250 CURVE",
"150 240 LINE"
);
}
);
width = 250;
}
);
leftKerningGroup = "straight-l";
rightKerningGroup = "straight-r";
unicode = 0648;
},
{
glyphname = "waw-ar.01.01";
layers = (
{
anchors = (
{
name = top;
position = "{75, 300}";
}
);
layerId = "299DE00D-7BC2-4DFB-A399-2750234EE670";
paths = (
{
closed = 1;
nodes = (
"-9 -142 OFFCURVE",
"30 -150 OFFCURVE",
"69 -150 CURVE SMOOTH",
"195 -150 OFFCURVE",
"250 -44 OFFCURVE",
"250 79 CURVE SMOOTH",
"250 182 OFFCURVE",
"205 238 OFFCURVE",
"125 300 CURVE",
"125 274 OFFCURVE",
"97 249 OFFCURVE",
"83 243 CURVE SMOOTH",
"35 226 OFFCURVE",
"0 179 OFFCURVE",
"0 125 CURVE SMOOTH",
"0 56 OFFCURVE",
"56 0 OFFCURVE",
"125 0 CURVE SMOOTH",
"138 0 LINE",
"130 -41 OFFCURVE",
"76 -114 OFFCURVE",
"-50 -113 CURVE"
);
},
{
closed = 1;
nodes = (
"100 139 OFFCURVE",
"111 150 OFFCURVE",
"125 150 CURVE SMOOTH",
"139 150 OFFCURVE",
"150 139 OFFCURVE",
"150 125 CURVE SMOOTH",
"150 111 OFFCURVE",
"139 100 OFFCURVE",
"125 100 CURVE SMOOTH",
"111 100 OFFCURVE",
"100 111 OFFCURVE",
"100 125 CURVE SMOOTH"
);
}
);
width = 250;
},
{
anchors = (
{
name = top;
position = "{88, 300}";
}
);
annotations = (
{
position = "{481.575, 288.433}";
type = Text;
}
);
associatedMasterId = "299DE00D-7BC2-4DFB-A399-2750234EE670";
layerId = "BE705947-3390-4BD7-98E2-A50F1111F3E5";
name = "Oct 21 19, 22:02";
paths = (
{
closed = 1;
nodes = (
"190 -150 OFFCURVE",
"200 -40 OFFCURVE",
"200 10 CURVE",
"100 10 LINE",
"100 -28 OFFCURVE",
"87 -114 OFFCURVE",
"-50 -113 CURVE",
"-9 -144 OFFCURVE",
"31 -150 OFFCURVE",
"70 -150 CURVE SMOOTH"
);
},
{
closed = 1;
nodes = (
"194 0 OFFCURVE",
"250 56 OFFCURVE",
"250 125 CURVE SMOOTH",
"250 194 OFFCURVE",
"194 250 OFFCURVE",
"125 250 CURVE SMOOTH",
"56 250 OFFCURVE",
"0 194 OFFCURVE",
"0 125 CURVE SMOOTH",
"0 56 OFFCURVE",
"56 0 OFFCURVE",
"125 0 CURVE SMOOTH"
);
},
{
closed = 1;
nodes = (
"111 100 OFFCURVE",
"100 111 OFFCURVE",
"100 125 CURVE SMOOTH",
"100 139 OFFCURVE",
"111 150 OFFCURVE",
"125 150 CURVE SMOOTH",
"139 150 OFFCURVE",
"150 139 OFFCURVE",
"150 125 CURVE SMOOTH",
"150 111 OFFCURVE",
"139 100 OFFCURVE",
"125 100 CURVE SMOOTH"
);
},
{
closed = 1;
nodes = (
"169 232 LINE",
"169 242 LINE",
"156 246 OFFCURVE",
"125 273 OFFCURVE",
"125 300 CURVE",
"125 273 OFFCURVE",
"94 246 OFFCURVE",
"81 242 CURVE",
"81 232 LINE"
);
}
);
visible = 1;
width = 250;
}
);
leftKerningGroup = "straight-l";
rightKerningGroup = "straight-r";
},
{
glyphname = "waw-ar.01.02";
layers = (
{
anchors = (
{
name = top;
position = "{75, 300}";
}
);
layerId = "299DE00D-7BC2-4DFB-A399-2750234EE670";
paths = (
{
closed = 1;
nodes = (
"101 139 OFFCURVE",
"112 150 OFFCURVE",
"126 150 CURVE SMOOTH",
"140 150 OFFCURVE",
"151 139 OFFCURVE",
"151 125 CURVE SMOOTH",
"151 111 OFFCURVE",
"140 100 OFFCURVE",
"126 100 CURVE SMOOTH",
"112 100 OFFCURVE",
"101 111 OFFCURVE",
"101 125 CURVE SMOOTH"
);
},
{
closed = 1;
nodes = (
"76 -150 LINE SMOOTH",
"153 -150 OFFCURVE",
"217 -101 OFFCURVE",
"242 -32 CURVE SMOOTH",
"254 1 OFFCURVE",
"261 38 OFFCURVE",
"261 78 CURVE SMOOTH",
"261 181 OFFCURVE",
"206 238 OFFCURVE",
"126 300 CURVE",
"126 274 OFFCURVE",
"98 249 OFFCURVE",
"84 243 CURVE SMOOTH",
"37 223 OFFCURVE",
"1 179 OFFCURVE",
"1 125 CURVE SMOOTH",
"1 56 OFFCURVE",
"57 0 OFFCURVE",
"126 0 CURVE SMOOTH",
"135 0 OFFCURVE",
"144 1 OFFCURVE",
"153 3 CURVE",
"143 -27 OFFCURVE",
"110 -50 OFFCURVE",
"77 -50 CURVE SMOOTH",
"41 -50 OFFCURVE",
"12 -29 OFFCURVE",
"0 0 CURVE",
"-7 -56 OFFCURVE",
"-22 -106 OFFCURVE",
"-50 -150 CURVE"
);
}
);
width = 250;
},
{
anchors = (
{
name = top;
position = "{138, 300}";
}
);
annotations = (
{
position = "{481.575, 288.433}";
type = Text;
}
);
associatedMasterId = "299DE00D-7BC2-4DFB-A399-2750234EE670";
layerId = "BE705947-3390-4BD7-98E2-A50F1111F3E5";
name = "Oct 21 19, 22:02";
paths = (
{
closed = 1;
nodes = (
"241 -150 OFFCURVE",
"251 -40 OFFCURVE",
"251 10 CURVE",
"151 10 LINE",
"151 -28 OFFCURVE",
"138 -114 OFFCURVE",
"1 -113 CURVE",
"42 -144 OFFCURVE",
"82 -150 OFFCURVE",
"121 -150 CURVE SMOOTH"
);
},
{
closed = 1;
nodes = (
"245 0 OFFCURVE",
"301 56 OFFCURVE",
"301 125 CURVE SMOOTH",
"301 194 OFFCURVE",
"245 250 OFFCURVE",
"176 250 CURVE SMOOTH",
"107 250 OFFCURVE",
"51 194 OFFCURVE",
"51 125 CURVE SMOOTH",
"51 56 OFFCURVE",
"107 0 OFFCURVE",
"176 0 CURVE SMOOTH"
);
},
{
closed = 1;
nodes = (
"162 100 OFFCURVE",
"151 111 OFFCURVE",
"151 125 CURVE SMOOTH",
"151 139 OFFCURVE",
"162 150 OFFCURVE",
"176 150 CURVE SMOOTH",
"190 150 OFFCURVE",
"201 139 OFFCURVE",
"201 125 CURVE SMOOTH",
"201 111 OFFCURVE",
"190 100 OFFCURVE",
"176 100 CURVE SMOOTH"
);
},
{
closed = 1;
nodes = (
"220 232 LINE",
"220 242 LINE",
"207 246 OFFCURVE",
"176 273 OFFCURVE",
"176 300 CURVE",
"176 273 OFFCURVE",
"145 246 OFFCURVE",
"132 242 CURVE",
"132 232 LINE"
);
},
{
closed = 1;
nodes = (
"171 -50 OFFCURVE",
"208 -13 OFFCURVE",
"208 33 CURVE SMOOTH",
"208 78 OFFCURVE",
"171 115 OFFCURVE",
"126 115 CURVE SMOOTH",
"80 115 OFFCURVE",
"43 78 OFFCURVE",
"43 33 CURVE SMOOTH",
"43 -13 OFFCURVE",
"80 -50 OFFCURVE",
"126 -50 CURVE SMOOTH"
);
}
);
width = 300;
}
);
leftKerningGroup = "straight-l";
rightKerningGroup = "straight-r";
},
{
glyphname = "alefMaksura-ar";
layers = (
{
components = (
{
name = "alefMaksura-ar.fina";
}
);
layerId = "299DE00D-7BC2-4DFB-A399-2750234EE670";
paths = (
{
closed = 1;
nodes = (
"800 0 LINE",
"713 150 LINE",
"626 0 LINE"
);
}
);
width = 800;
}
);
unicode = 0649;
},
{
glyphname = "alefMaksura-ar.01.01";
layers = (
{
components = (
{
name = "alefMaksura-ar.fina.01.01";
}
);
layerId = "299DE00D-7BC2-4DFB-A399-2750234EE670";
paths = (
{
closed = 1;
nodes = (
"700 0 LINE",
"613 150 LINE",
"526 0 LINE"
);
}
);
width = 700;
}
);
},
{
glyphname = "alefMaksura-ar.01.02";
layers = (
{
components = (
{
name = "alefMaksura-ar.fina.01.02";
}
);
layerId = "299DE00D-7BC2-4DFB-A399-2750234EE670";
paths = (
{
closed = 1;
nodes = (
"700 0 LINE",
"613 150 LINE",
"526 0 LINE"
);
}
);
width = 700;
}
);
},
{
glyphname = "alefMaksura-ar.01.03";
layers = (
{
components = (
{
name = "alefMaksura-ar.fina.01.03";
}
);
layerId = "299DE00D-7BC2-4DFB-A399-2750234EE670";
paths = (
{
closed = 1;
nodes = (
"800 0 LINE",
"713 150 LINE",
"626 0 LINE"
);
}
);
width = 800;
}
);
},
{
glyphname = "alefMaksura-ar.01.04";
layers = (
{
components = (
{
name = "alefMaksura-ar.fina.01.04";
}
);
layerId = "299DE00D-7BC2-4DFB-A399-2750234EE670";
paths = (
{
closed = 1;
nodes = (
"700 0 LINE",
"613 150 LINE",
"526 0 LINE"
);
}
);
width = 700;
}
);
},
{
glyphname = "alefMaksura-ar.01.05";
layers = (
{
components = (
{
name = "alefMaksura-ar.fina.01.05";
}
);
layerId = "299DE00D-7BC2-4DFB-A399-2750234EE670";
paths = (
{
closed = 1;
nodes = (
"700 0 LINE",
"613 150 LINE",
"526 0 LINE"
);
}
);
width = 700;
}
);
},
{
glyphname = "alefMaksura-ar.01.06";
layers = (
{
components = (
{
name = "alefMaksura-ar.fina.01.06";
}
);
layerId = "299DE00D-7BC2-4DFB-A399-2750234EE670";
paths = (
{
closed = 1;
nodes = (
"350 0 LINE",
"350 150 LINE",
"201 0 LINE"
);
}
);
width = 350;
}
);
leftKerningGroup = "straight-l";
},
{
glyphname = "alefMaksura-ar.01.07";
layers = (
{
components = (
{
name = "alefMaksura-ar.fina.01.07";
}
);
layerId = "299DE00D-7BC2-4DFB-A399-2750234EE670";
paths = (
{
closed = 1;
nodes = (
"350 0 LINE",
"350 150 LINE",
"201 0 LINE"
);
}
);
width = 350;
}
);
leftKerningGroup = "straight-l";
},
{
glyphname = "alefMaksura-ar.01.08";
layers = (
{
components = (
{
name = "alefMaksura-ar.fina.01.08";
}
);
layerId = "299DE00D-7BC2-4DFB-A399-2750234EE670";
paths = (
{
closed = 1;
nodes = (
"498 0 LINE",
"411 150 LINE",
"324 0 LINE"
);
}
);
width = 498;
}
);
rightKerningGroup = "straight-r";
},
{
glyphname = "alefMaksura-ar.01.09";
layers = (
{
components = (
{
name = "alefMaksura-ar.fina.01.09";
}
);
layerId = "299DE00D-7BC2-4DFB-A399-2750234EE670";
paths = (
{
closed = 1;
nodes = (
"498 0 LINE",
"411 150 LINE",
"324 0 LINE"
);
}
);
width = 498;
}
);
rightKerningGroup = "straight-r";
},
{
glyphname = "alefMaksura-ar.01.10";
layers = (
{
components = (
{
name = "alefMaksura-ar.fina.01.10";
}
);
layerId = "299DE00D-7BC2-4DFB-A399-2750234EE670";
paths = (
{
closed = 1;
nodes = (
"606 0 LINE",
"519 150 LINE",
"432 0 LINE"
);
}
);
width = 606;
}
);
},
{
glyphname = "alefMaksura-ar.01.11";
layers = (
{
components = (
{
name = "alefMaksura-ar.fina.01.11";
}
);
layerId = "299DE00D-7BC2-4DFB-A399-2750234EE670";
paths = (
{
closed = 1;
nodes = (
"556 0 LINE",
"469 150 LINE",
"382 0 LINE"
);
}
);
width = 556;
}
);
rightKerningGroup = "straight-r";
},
{
glyphname = "alefMaksura-ar.01.12";
layers = (
{
components = (
{
name = "alefMaksura-ar.fina.01.13";
}
);
layerId = "299DE00D-7BC2-4DFB-A399-2750234EE670";
paths = (
{
closed = 1;
nodes = (
"586 0 LINE",
"499 150 LINE",
"412 0 LINE"
);
}
);
width = 586;
}
);
rightKerningGroup = "straight-r";
},
{
glyphname = "alefMaksura-ar.01.13";
layers = (
{
components = (
{
name = "alefMaksura-ar.fina.01.12";
}
);
layerId = "299DE00D-7BC2-4DFB-A399-2750234EE670";
paths = (
{
closed = 1;
nodes = (
"586 0 LINE",
"499 150 LINE",
"412 0 LINE"
);
}
);
width = 586;
}
);
rightKerningGroup = "straight-r";
},
{
glyphname = "alefMaksura-ar.fina";
layers = (
{
anchors = (
{
name = bottom;
position = "{300, -50}";
},
{
name = top;
position = "{200, 200}";
}
);
components = (
{
name = _zuluf100;
transform = "{-1, 0, 0, 1, 150, 0}";
}
);
layerId = "299DE00D-7BC2-4DFB-A399-2750234EE670";
paths = (
{
closed = 1;
nodes = (
"500 0 LINE",
"500 100 LINE",
"150 100 LINE",
"150 0 LINE"
);
},
{
closed = 1;
nodes = (
"684 100 LINE",
"395 600 LINE",
"375 577 OFFCURVE",
"352 554 OFFCURVE",
"318 535 CURVE",
"626 0 LINE"
);
},
{
closed = 1;
nodes = (
"269 321 LINE",
"354 371 LINE",
"349 380 LINE SMOOTH",
"336 404 OFFCURVE",
"342 437 OFFCURVE",
"367 448 CURVE SMOOTH",
"378 453 LINE",
"328 540 LINE",
"318 535 LINE SMOOTH",
"244 498 OFFCURVE",
"224 402 OFFCURVE",
"264 330 CURVE SMOOTH"
);
},
{
closed = 1;
nodes = (
"569 0 LINE",
"341 393 LINE",
"267 325 LINE",
"454 0 LINE"
);
},
{
closed = 1;
nodes = (
"684 0 LINE",
"684 100 LINE",
"626 100 LINE",
"626 0 LINE"
);
},
{
closed = 1;
nodes = (
"409 576 LINE",
"379 628 LINE",
"374 591 OFFCURVE",
"353 555 OFFCURVE",
"318 535 CURVE",
"323 526 LINE"
);
}
);
width = 684;
}
);
},
{
glyphname = "alefMaksura-ar.fina.01.01";
layers = (
{
anchors = (
{
name = bottom;
position = "{200, -50}";
},
{
name = top;
position = "{100, 200}";
}
);
components = (
{
name = _zuluf100;
transform = "{-1, 0, 0, 1, 150, 0}";
}
);
layerId = "299DE00D-7BC2-4DFB-A399-2750234EE670";
paths = (
{
closed = 1;
nodes = (
"400 0 LINE",
"400 100 LINE",
"150 100 LINE",
"150 0 LINE"
);
},
{
closed = 1;
nodes = (
"584 100 LINE",
"295 600 LINE",
"275 577 OFFCURVE",
"252 554 OFFCURVE",
"218 535 CURVE",
"526 0 LINE"
);
},
{
closed = 1;
nodes = (
"169 321 LINE",
"254 371 LINE",
"249 380 LINE SMOOTH",
"236 404 OFFCURVE",
"242 437 OFFCURVE",
"267 448 CURVE SMOOTH",
"278 453 LINE",
"228 540 LINE",
"218 535 LINE SMOOTH",
"144 498 OFFCURVE",
"124 402 OFFCURVE",
"164 330 CURVE SMOOTH"
);
},
{
closed = 1;
nodes = (
"469 0 LINE",
"241 393 LINE",
"167 325 LINE",
"354 0 LINE"
);
},
{
closed = 1;
nodes = (
"584 0 LINE",
"584 100 LINE",
"526 100 LINE",
"526 0 LINE"
);
},
{
closed = 1;
nodes = (
"309 576 LINE",
"279 628 LINE",
"274 591 OFFCURVE",
"253 555 OFFCURVE",
"218 535 CURVE",
"223 526 LINE"
);
}
);
width = 584;
}
);
},
{
glyphname = "alefMaksura-ar.fina.01.02";
layers = (
{
anchors = (
{
name = bottom;
position = "{200, -50}";
},
{
name = top;
position = "{100, 200}";
}
);
components = (
{
name = _zuluf100;
transform = "{-1, 0, 0, 1, 150, 0}";
}
);
layerId = "299DE00D-7BC2-4DFB-A399-2750234EE670";
paths = (
{
closed = 1;
nodes = (
"400 0 LINE",
"400 100 LINE",
"150 100 LINE",
"150 0 LINE"
);
},
{
closed = 1;
nodes = (
"584 100 LINE",
"351 500 LINE",
"331 477 OFFCURVE",
"308 454 OFFCURVE",
"274 435 CURVE",
"526 0 LINE"
);
},
{
closed = 1;
nodes = (
"225 221 LINE",
"310 271 LINE",
"305 280 LINE SMOOTH",
"292 304 OFFCURVE",
"298 337 OFFCURVE",
"323 348 CURVE SMOOTH",
"334 353 LINE",
"284 440 LINE",
"274 435 LINE SMOOTH",
"200 398 OFFCURVE",
"180 302 OFFCURVE",
"220 230 CURVE SMOOTH"
);
},
{
closed = 1;
nodes = (
"467 0 LINE",
"297 293 LINE",
"223 225 LINE",
"352 0 LINE"
);
},
{
closed = 1;
nodes = (
"584 0 LINE",
"584 100 LINE",
"526 100 LINE",
"526 0 LINE"
);
},
{
closed = 1;
nodes = (
"365 476 LINE",
"335 528 LINE",
"330 491 OFFCURVE",
"309 455 OFFCURVE",
"274 435 CURVE",
"279 426 LINE"
);
}
);
width = 584;
}
);
},
{
glyphname = "alefMaksura-ar.fina.01.03";
layers = (
{
anchors = (
{
name = bottom;
position = "{300, -50}";
},
{
name = top;
position = "{200, 200}";
}
);
components = (
{
name = _zuluf100;
transform = "{-1, 0, 0, 1, 150, 0}";
}
);
layerId = "299DE00D-7BC2-4DFB-A399-2750234EE670";
paths = (
{
closed = 1;
nodes = (
"567 0 LINE",
"272 508 LINE",
"264 424 LINE",
"337 550 LINE",
"250 500 LINE",
"395 500 LINE",
"319 535 LINE",
"626 0 LINE",
"684 100 LINE",
"395 600 LINE",
"250 600 LINE",
"177 474 LINE",
"451 0 LINE"
);
},
{
closed = 1;
nodes = (
"500 0 LINE",
"500 100 LINE",
"150 100 LINE",
"150 0 LINE"
);
},
{
closed = 1;
nodes = (
"684 0 LINE",
"684 100 LINE",
"626 100 LINE",
"626 0 LINE"
);
}
);
width = 684;
},
{
anchors = (
{
name = bottom;
position = "{300, -50}";
},
{
name = top;
position = "{200, 200}";
}
);
associatedMasterId = "299DE00D-7BC2-4DFB-A399-2750234EE670";
hints = (
{
origin = "{0, 3}";
scale = "{1, -1}";
type = Corner;
name = _corner.100;
options = 1;
}
);
layerId = "D05771AF-184B-4793-86FB-1C0FF286D2F5";
name = "Oct 24 19, 00:51";
paths = (
{
closed = 1;
nodes = (
"500 0 LINE",
"500 100 LINE",
"150 100 LINE",
"150 0 LINE"
);
},
{
closed = 0;
nodes = (
"319 535 LINE",
"626 0 LINE",
"723 32 LINE",
"395 600 LINE",
"250 600 LINE"
);
},
{
closed = 1;
nodes = (
"569 0 LINE",
"341 393 LINE",
"267 325 LINE",
"454 0 LINE"
);
},
{
closed = 1;
nodes = (
"730 0 LINE",
"730 100 LINE",
"626 100 LINE",
"626 0 LINE"
);
},
{
closed = 0;
nodes = (
"226 644 LINE",
"596 0 LINE"
);
}
);
visible = 1;
width = 684;
}
);
},
{
glyphname = "alefMaksura-ar.fina.01.04";
layers = (
{
anchors = (
{
name = bottom;
position = "{200, -50}";
},
{
name = top;
position = "{100, 200}";
}
);
components = (
{
name = _zuluf100;
transform = "{-1, 0, 0, 1, 150, 0}";
}
);
layerId = "299DE00D-7BC2-4DFB-A399-2750234EE670";
paths = (
{
closed = 1;
nodes = (
"467 0 LINE",
"172 508 LINE",
"164 424 LINE",
"237 550 LINE",
"150 500 LINE",
"295 500 LINE",
"219 535 LINE",
"526 0 LINE",
"584 100 LINE",
"295 600 LINE",
"150 600 LINE",
"77 474 LINE",
"351 0 LINE"
);
},
{
closed = 1;
nodes = (
"400 0 LINE",
"400 100 LINE",
"150 100 LINE",
"150 0 LINE"
);
},
{
closed = 1;
nodes = (
"584 0 LINE",
"584 100 LINE",
"526 100 LINE",
"526 0 LINE"
);
}
);
width = 584;
},
{
anchors = (
{
name = bottom;
position = "{300, -50}";
},
{
name = top;
position = "{200, 200}";
}
);
associatedMasterId = "299DE00D-7BC2-4DFB-A399-2750234EE670";
hints = (
{
origin = "{0, 3}";
scale = "{1, -1}";
type = Corner;
name = _corner.100;
options = 1;
}
);
layerId = "D05771AF-184B-4793-86FB-1C0FF286D2F5";
name = "Oct 24 19, 00:51";
paths = (
{
closed = 1;
nodes = (
"500 0 LINE",
"500 100 LINE",
"150 100 LINE",
"150 0 LINE"
);
},
{
closed = 0;
nodes = (
"319 535 LINE",
"626 0 LINE",
"723 32 LINE",
"395 600 LINE",
"250 600 LINE"
);
},
{
closed = 1;
nodes = (
"569 0 LINE",
"341 393 LINE",
"267 325 LINE",
"454 0 LINE"
);
},
{
closed = 1;
nodes = (
"730 0 LINE",
"730 100 LINE",
"626 100 LINE",
"626 0 LINE"
);
},
{
closed = 0;
nodes = (
"226 644 LINE",
"596 0 LINE"
);
}
);
width = 684;
}
);
},
{
glyphname = "alefMaksura-ar.fina.01.05";
layers = (
{
anchors = (
{
name = bottom;
position = "{200, -50}";
},
{
name = top;
position = "{100, 200}";
}
);
components = (
{
name = _zuluf100;
transform = "{-1, 0, 0, 1, 150, 0}";
}
);
layerId = "299DE00D-7BC2-4DFB-A399-2750234EE670";
paths = (
{
closed = 1;
nodes = (
"400 0 LINE",
"400 100 LINE",
"150 100 LINE",
"150 0 LINE"
);
},
{
closed = 1;
nodes = (
"467 0 LINE",
"229 408 LINE",
"221 324 LINE",
"294 450 LINE",
"207 400 LINE",
"352 400 LINE",
"276 435 LINE",
"526 0 LINE",
"584 100 LINE",
"352 500 LINE",
"207 500 LINE",
"134 374 LINE",
"351 0 LINE"
);
},
{
closed = 1;
nodes = (
"584 0 LINE",
"584 100 LINE",
"526 100 LINE",
"526 0 LINE"
);
}
);
width = 584;
}
);
},
{
glyphname = "alefMaksura-ar.fina.01.06";
layers = (
{
anchors = (
{
name = bottom;
position = "{260, -50}";
},
{
name = top;
position = "{-50, 100}";
}
);
components = (
{
name = _elbow.3;
transform = "{0, 1, -1, 0, 200, 500}";
},
{
name = _elbow.3;
transform = "{0, -1, 1, 0, 0, 0}";
}
);
layerId = "299DE00D-7BC2-4DFB-A399-2750234EE670";
paths = (
{
closed = 1;
nodes = (
"300 0 LINE",
"300 650 LINE",
"200 650 LINE",
"200 0 LINE"
);
},
{
closed = 1;
nodes = (
"0 -150 LINE",
"10 -150 LINE",
"10 -50 LINE",
"0 -50 LINE SMOOTH",
"-28 -50 OFFCURVE",
"-50 -28 OFFCURVE",
"-50 0 CURVE",
"-50 -65 OFFCURVE",
"-92 -127 OFFCURVE",
"-150 -150 CURVE"
);
},
{
closed = 1;
nodes = (
"150 0 LINE",
"150 500 LINE",
"50 500 LINE",
"50 0 LINE"
);
},
{
closed = 1;
nodes = (
"300 640 LINE",
"300 700 LINE",
"277 670 OFFCURVE",
"241 650 OFFCURVE",
"200 650 CURVE",
"200 640 LINE"
);
}
);
width = 300;
}
);
},
{
glyphname = "alefMaksura-ar.fina.01.07";
layers = (
{
anchors = (
{
name = bottom;
position = "{260, -50}";
},
{
name = top;
position = "{-50, 100}";
}
);
components = (
{
name = _elbow.3;
transform = "{0, 1, -1, 0, 200, 500}";
}
);
layerId = "299DE00D-7BC2-4DFB-A399-2750234EE670";
paths = (
{
closed = 1;
nodes = (
"300 0 LINE",
"300 650 LINE",
"200 650 LINE",
"200 0 LINE"
);
},
{
closed = 1;
nodes = (
"150 0 LINE",
"150 500 LINE",
"50 500 LINE",
"50 0 LINE"
);
},
{
closed = 1;
nodes = (
"101 -150 OFFCURVE",
"150 -106 OFFCURVE",
"150 -23 CURVE SMOOTH",
"150 100 LINE",
"50 100 LINE",
"50 -31 LINE SMOOTH",
"50 -108 OFFCURVE",
"-10 -129 OFFCURVE",
"-50 -100 CURVE",
"-30 -130 OFFCURVE",
"3 -150 OFFCURVE",
"41 -150 CURVE SMOOTH"
);
},
{
closed = 1;
nodes = (
"300 640 LINE",
"300 700 LINE",
"277 670 OFFCURVE",
"241 650 OFFCURVE",
"200 650 CURVE",
"200 640 LINE"
);
}
);
width = 300;
},
{
anchors = (
{
name = bottom;
position = "{260, -50}";
},
{
name = top;
position = "{-50, 100}";
}
);
associatedMasterId = "299DE00D-7BC2-4DFB-A399-2750234EE670";
components = (
{
name = _elbow.3;
transform = "{0, 1, -1, 0, 200, 500}";
},
{
name = _elbow.3;
transform = "{0, -1, 1, 0, 0, 0}";
}
);
layerId = "F1C04FDD-FBA2-4FBC-B07D-903769FED804";
name = "Jan 5 20, 16:57";
paths = (
{
closed = 1;
nodes = (
"300 0 LINE",
"300 650 LINE",
"200 650 LINE",
"200 0 LINE"
);
},
{
closed = 1;
nodes = (
"0 -150 LINE",
"10 -150 LINE",
"10 -50 LINE",
"0 -50 LINE SMOOTH",
"-28 -50 OFFCURVE",
"-50 -28 OFFCURVE",
"-50 0 CURVE",
"-50 -65 OFFCURVE",
"-92 -127 OFFCURVE",
"-150 -150 CURVE"
);
},
{
closed = 1;
nodes = (
"150 0 LINE",
"150 500 LINE",
"50 500 LINE",
"50 0 LINE"
);
},
{
closed = 1;
nodes = (
"101 -150 OFFCURVE",
"150 -101 OFFCURVE",
"150 -42 CURVE SMOOTH",
"150 100 LINE",
"50 100 LINE",
"50 -50 LINE SMOOTH",
"50 -85 OFFCURVE",
"23 -112 OFFCURVE",
"-12 -112 CURVE SMOOTH",
"-27 -112 OFFCURVE",
"-39 -108 OFFCURVE",
"-50 -100 CURVE",
"-30 -130 OFFCURVE",
"3 -150 OFFCURVE",
"41 -150 CURVE SMOOTH"
);
}
);
visible = 1;
width = 300;
}
);
},
{
glyphname = "alefMaksura-ar.fina.01.08";
layers = (
{
anchors = (
{
name = bottom;
position = "{370, -50}";
},
{
name = top;
position = "{50, 0}";
}
);
layerId = "299DE00D-7BC2-4DFB-A399-2750234EE670";
paths = (
{
closed = 1;
nodes = (
"382 100 LINE",
"151 500 LINE",
"131 477 OFFCURVE",
"109 454 OFFCURVE",
"75 435 CURVE",
"324 0 LINE"
);
},
{
closed = 1;
nodes = (
"25 221 LINE",
"110 271 LINE",
"105 280 LINE SMOOTH",
"92 304 OFFCURVE",
"98 337 OFFCURVE",
"123 348 CURVE SMOOTH",
"134 353 LINE",
"84 440 LINE",
"75 435 LINE SMOOTH",
"2 395 OFFCURVE",
"-20 302 OFFCURVE",
"20 230 CURVE SMOOTH"
);
},
{
closed = 1;
nodes = (
"382 0 LINE",
"382 100 LINE",
"324 100 LINE",
"324 0 LINE"
);
},
{
closed = 1;
nodes = (
"165 476 LINE",
"135 528 LINE",
"130 491 OFFCURVE",
"109 455 OFFCURVE",
"74 435 CURVE",
"79 426 LINE"
);
},
{
closed = 1;
nodes = (
"1092 -150 LINE",
"1150 -50 LINE",
"181 -50 LINE",
"205 -27 OFFCURVE",
"234 -10 OFFCURVE",
"267 0 CURVE",
"105 280 LINE",
"25 221 LINE",
"130 38 LINE",
"73 -9 OFFCURVE",
"33 -75 OFFCURVE",
"20 -150 CURVE"
);
}
);
width = 382;
},
{
anchors = (
{
name = bottom;
position = "{370, -50}";
},
{
name = top;
position = "{50, 0}";
}
);
associatedMasterId = "299DE00D-7BC2-4DFB-A399-2750234EE670";
layerId = "CC8599FA-E8B2-40B9-8819-31FC89CD3E17";
name = "Oct 24 19, 23:00";
paths = (
{
closed = 1;
nodes = (
"446 27 LINE",
"173 500 LINE",
"153 477 OFFCURVE",
"131 454 OFFCURVE",
"97 435 CURVE",
"346 0 LINE"
);
},
{
closed = 1;
nodes = (
"47 221 LINE",
"132 271 LINE",
"127 280 LINE SMOOTH",
"114 304 OFFCURVE",
"120 337 OFFCURVE",
"145 348 CURVE SMOOTH",
"156 353 LINE",
"106 440 LINE",
"97 435 LINE SMOOTH",
"24 395 OFFCURVE",
"2 302 OFFCURVE",
"42 230 CURVE SMOOTH"
);
},
{
closed = 1;
nodes = (
"289 0 LINE",
"119 293 LINE",
"45 225 LINE",
"174 0 LINE",
"118 -40 OFFCURVE",
"85 -91 OFFCURVE",
"72 -150 CURVE",
"1114 -150 LINE",
"1172 -50 LINE",
"222 -50 LINE"
);
}
);
visible = 1;
width = 426;
}
);
rightKerningGroup = "straight-r";
},
{
glyphname = "alefMaksura-ar.fina.01.09";
layers = (
{
anchors = (
{
name = bottom;
position = "{370, -50}";
},
{
name = top;
position = "{50, 0}";
}
);
layerId = "299DE00D-7BC2-4DFB-A399-2750234EE670";
paths = (
{
closed = 1;
nodes = (
"382 100 LINE",
"151 500 LINE",
"131 477 OFFCURVE",
"108 454 OFFCURVE",
"74 435 CURVE",
"324 0 LINE"
);
},
{
closed = 1;
nodes = (
"25 221 LINE",
"110 271 LINE",
"105 280 LINE SMOOTH",
"92 304 OFFCURVE",
"98 337 OFFCURVE",
"123 348 CURVE SMOOTH",
"134 353 LINE",
"84 440 LINE",
"74 435 LINE SMOOTH",
"0 398 OFFCURVE",
"-20 302 OFFCURVE",
"20 230 CURVE SMOOTH"
);
},
{
closed = 1;
nodes = (
"105 280 LINE",
"25 221 LINE",
"238 -150 LINE",
"1092 -150 LINE",
"1150 -50 LINE",
"296 -50 LINE"
);
},
{
closed = 1;
nodes = (
"382 0 LINE",
"382 100 LINE",
"324 100 LINE",
"324 0 LINE"
);
},
{
closed = 1;
nodes = (
"165 476 LINE",
"135 528 LINE",
"130 491 OFFCURVE",
"109 455 OFFCURVE",
"74 435 CURVE",
"79 426 LINE"
);
}
);
width = 382;
},
{
anchors = (
{
name = bottom;
position = "{370, -50}";
},
{
name = top;
position = "{50, 0}";
}
);
associatedMasterId = "299DE00D-7BC2-4DFB-A399-2750234EE670";
layerId = "4E2DE40C-2181-42E4-BA0A-D46F7324B321";
name = "Jan 5 20, 16:52";
paths = (
{
closed = 1;
nodes = (
"382 100 LINE",
"151 500 LINE",
"131 477 OFFCURVE",
"109 454 OFFCURVE",
"75 435 CURVE",
"324 0 LINE"
);
},
{
closed = 1;
nodes = (
"25 221 LINE",
"110 271 LINE",
"105 280 LINE SMOOTH",
"92 304 OFFCURVE",
"98 337 OFFCURVE",
"123 348 CURVE SMOOTH",
"134 353 LINE",
"84 440 LINE",
"75 435 LINE SMOOTH",
"2 395 OFFCURVE",
"-20 302 OFFCURVE",
"20 230 CURVE SMOOTH"
);
},
{
closed = 1;
nodes = (
"267 0 LINE",
"105 280 LINE",
"25 221 LINE",
"152 0 LINE",
"96 -40 OFFCURVE",
"63 -91 OFFCURVE",
"50 -150 CURVE",
"1092 -150 LINE",
"1150 -50 LINE",
"296 -50 LINE"
);
},
{
closed = 1;
nodes = (
"382 0 LINE",
"382 100 LINE",
"324 100 LINE",
"324 0 LINE"
);
}
);
visible = 1;
width = 382;
}
);
rightKerningGroup = "straight-r";
},
{
glyphname = "alefMaksura-ar.fina.01.10";
layers = (
{
anchors = (
{
name = bottom;
position = "{456, -50}";
},
{
name = top;
position = "{106, 0}";
}
);
guideLines = (
{
angle = 90;
position = "{375, -63}";
},
{
angle = 90;
position = "{250, -63}";
},
{
angle = 90;
position = "{125, -7}";
},
{
angle = 90;
position = "{0, -63}";
}
);
layerId = "299DE00D-7BC2-4DFB-A399-2750234EE670";
paths = (
{
closed = 1;
nodes = (
"490 100 LINE",
"201 600 LINE",
"181 577 OFFCURVE",
"158 554 OFFCURVE",
"124 535 CURVE",
"432 0 LINE"
);
},
{
closed = 1;
nodes = (
"75 321 LINE",
"160 371 LINE",
"155 380 LINE SMOOTH",
"142 404 OFFCURVE",
"148 437 OFFCURVE",
"173 448 CURVE SMOOTH",
"184 453 LINE",
"134 540 LINE",
"124 535 LINE SMOOTH",
"50 498 OFFCURVE",
"30 402 OFFCURVE",
"70 330 CURVE SMOOTH"
);
},
{
closed = 1;
nodes = (
"314 105 LINE",
"147 393 LINE",
"73 325 LINE",
"260 0 LINE"
);
},
{
closed = 1;
nodes = (
"490 0 LINE",
"490 100 LINE",
"432 100 LINE",
"432 0 LINE"
);
},
{
closed = 1;
nodes = (
"12 -84 OFFCURVE",
"80 -150 OFFCURVE",
"179 -150 CURVE SMOOTH",
"277 -150 OFFCURVE",
"345 -77 OFFCURVE",
"345 13 CURVE SMOOTH",
"345 47 OFFCURVE",
"331 75 OFFCURVE",
"314 105 CURVE",
"218 73 LINE",
"239 39 OFFCURVE",
"242 26 OFFCURVE",
"242 13 CURVE SMOOTH",
"242 -34 OFFCURVE",
"200 -66 OFFCURVE",
"149 -72 CURVE SMOOTH",
"76 -81 OFFCURVE",
"18 -41 OFFCURVE",
"0 0 CURVE"
);
},
{
closed = 1;
nodes = (
"215 576 LINE",
"185 628 LINE",
"180 591 OFFCURVE",
"159 555 OFFCURVE",
"124 535 CURVE",
"129 526 LINE"
);
}
);
width = 490;
}
);
},
{
glyphname = "alefMaksura-ar.fina.01.11";
layers = (
{
anchors = (
{
name = bottom;
position = "{406, -50}";
},
{
name = top;
position = "{56, 0}";
}
);
guideLines = (
{
angle = 90;
position = "{325, -63}";
},
{
angle = 90;
position = "{200, -63}";
},
{
angle = 90;
position = "{75, -7}";
}
);
layerId = "299DE00D-7BC2-4DFB-A399-2750234EE670";
paths = (
{
closed = 1;
nodes = (
"440 100 LINE",
"151 600 LINE",
"131 577 OFFCURVE",
"109 554 OFFCURVE",
"75 535 CURVE",
"382 0 LINE"
);
},
{
closed = 1;
nodes = (
"25 321 LINE",
"110 371 LINE",
"105 380 LINE SMOOTH",
"92 404 OFFCURVE",
"98 437 OFFCURVE",
"123 448 CURVE SMOOTH",
"134 453 LINE",
"84 540 LINE",
"75 535 LINE SMOOTH",
"2 495 OFFCURVE",
"-20 402 OFFCURVE",
"20 330 CURVE SMOOTH"
);
},
{
closed = 1;
nodes = (
"289 62 LINE",
"97 393 LINE",
"23 325 LINE",
"210 0 LINE"
);
},
{
closed = 1;
nodes = (
"440 0 LINE",
"440 100 LINE",
"382 100 LINE",
"382 0 LINE"
);
},
{
closed = 1;
nodes = (
"88 -145 OFFCURVE",
"114 -150 OFFCURVE",
"134 -150 CURVE SMOOTH",
"265 -150 OFFCURVE",
"347 -40 OFFCURVE",
"289 62 CURVE",
"206 7 LINE",
"235 -40 OFFCURVE",
"210 -127 OFFCURVE",
"76 -140 CURVE"
);
},
{
closed = 1;
nodes = (
"165 576 LINE",
"135 628 LINE",
"130 591 OFFCURVE",
"109 555 OFFCURVE",
"74 535 CURVE",
"79 526 LINE"
);
}
);
width = 440;
}
);
rightKerningGroup = "straight-r";
},
{
glyphname = "alefMaksura-ar.fina.01.12";
layers = (
{
anchors = (
{
name = bottom;
position = "{420, -50}";
},
{
name = top;
position = "{60, 600}";
}
);
components = (
{
name = _zuluf150;
transform = "{0, 1, -1, 0, 230, 1000}";
}
);
layerId = "299DE00D-7BC2-4DFB-A399-2750234EE670";
paths = (
{
closed = 1;
nodes = (
"470 0 LINE",
"470 100 LINE",
"412 100 LINE",
"412 0 LINE"
);
},
{
closed = 1;
nodes = (
"140 371 LINE",
"135 380 LINE SMOOTH",
"122 404 OFFCURVE",
"128 437 OFFCURVE",
"153 448 CURVE SMOOTH",
"164 453 LINE",
"114 540 LINE",
"105 535 LINE SMOOTH",
"32 495 OFFCURVE",
"10 402 OFFCURVE",
"50 330 CURVE SMOOTH",
"55 321 LINE"
);
},
{
closed = 1;
nodes = (
"230 714 LINE",
"230 1000 LINE",
"130 1000 LINE",
"130 714 LINE"
);
},
{
closed = 1;
nodes = (
"106 430 LINE",
"55 321 LINE",
"62 309 LINE",
"103 237 LINE",
"133 186 LINE",
"182 101 LINE",
"198 73 LINE SMOOTH",
"218 39 OFFCURVE",
"220 26 OFFCURVE",
"220 13 CURVE SMOOTH",
"220 -34 OFFCURVE",
"182 -72 OFFCURVE",
"135 -72 CURVE SMOOTH",
"88 -72 OFFCURVE",
"50 -34 OFFCURVE",
"50 13 CURVE SMOOTH",
"50 28 OFFCURVE",
"50 42 OFFCURVE",
"67 71 CURVE SMOOTH",
"127 176 LINE",
"98 227 LINE",
"28 105 LINE SMOOTH",
"12 78 OFFCURVE",
"0 47 OFFCURVE",
"0 13 CURVE SMOOTH",
"0 -77 OFFCURVE",
"72 -150 OFFCURVE",
"162 -150 CURVE SMOOTH",
"252 -150 OFFCURVE",
"322 -77 OFFCURVE",
"322 13 CURVE SMOOTH",
"322 47 OFFCURVE",
"312 79 OFFCURVE",
"294 105 CURVE"
);
},
{
closed = 1;
nodes = (
"196 296 LINE",
"318 510 LINE SMOOTH",
"400 663 OFFCURVE",
"304 785 OFFCURVE",
"130 751 CURVE",
"130 700 LINE",
"272 732 OFFCURVE",
"336 649 OFFCURVE",
"274 534 CURVE SMOOTH",
"166 347 LINE"
);
},
{
closed = 1;
nodes = (
"184 398 LINE",
"241 497 LINE",
"181 600 LINE",
"161 577 OFFCURVE",
"139 554 OFFCURVE",
"105 535 CURVE"
);
},
{
closed = 1;
nodes = (
"412 0 LINE",
"470 100 LINE",
"282 426 LINE",
"225 326 LINE"
);
}
);
width = 470;
},
{
associatedMasterId = "299DE00D-7BC2-4DFB-A399-2750234EE670";
hints = (
{
origin = "{4, 1}";
scale = "{-1, -1}";
type = Corner;
name = _corner.150;
}
);
layerId = "87BBF1A0-2D8D-47D3-BC23-27E6F9E2E711";
name = "Oct 23 19, 23:53";
paths = (
{
closed = 1;
nodes = (
"600 0 LINE",
"600 100 LINE",
"350 100 LINE",
"350 0 LINE"
);
},
{
closed = 1;
nodes = (
"122 362 LINE",
"305 44 LINE SMOOTH",
"310 35 OFFCURVE",
"313 24 OFFCURVE",
"313 13 CURVE SMOOTH",
"313 -22 OFFCURVE",
"285 -50 OFFCURVE",
"250 -50 CURVE SMOOTH",
"215 -50 OFFCURVE",
"187 -22 OFFCURVE",
"187 13 CURVE SMOOTH",
"187 24 OFFCURVE",
"190 35 OFFCURVE",
"195 44 CURVE SMOOTH",
"392 388 LINE SMOOTH",
"443 476 OFFCURVE",
"502 645 OFFCURVE",
"502 841 CURVE SMOOTH",
"502 1060 OFFCURVE",
"386 1200 OFFCURVE",
"230 1200 CURVE SMOOTH",
"92 1200 OFFCURVE",
"0 1088 OFFCURVE",
"0 950 CURVE",
"16 1022 OFFCURVE",
"66 1111 OFFCURVE",
"188 1111 CURVE SMOOTH",
"327 1111 OFFCURVE",
"408 997 OFFCURVE",
"402 818 CURVE SMOOTH",
"397 679 OFFCURVE",
"363 532 OFFCURVE",
"287 402 CURVE SMOOTH",
"115 105 LINE",
"97 79 OFFCURVE",
"87 47 OFFCURVE",
"87 13 CURVE SMOOTH",
"87 -77 OFFCURVE",
"159 -150 OFFCURVE",
"249 -150 CURVE SMOOTH",
"339 -150 OFFCURVE",
"412 -77 OFFCURVE",
"412 13 CURVE SMOOTH",
"412 47 OFFCURVE",
"402 79 OFFCURVE",
"384 105 CURVE",
"196 430 LINE"
);
},
{
closed = 1;
nodes = (
"578 69 LINE",
"250 637 LINE",
"230 614 OFFCURVE",
"208 591 OFFCURVE",
"174 572 CURVE",
"477 44 LINE"
);
},
{
closed = 1;
nodes = (
"124 358 LINE",
"209 408 LINE",
"204 417 LINE SMOOTH",
"191 441 OFFCURVE",
"197 474 OFFCURVE",
"222 485 CURVE SMOOTH",
"233 490 LINE",
"183 577 LINE",
"174 572 LINE SMOOTH",
"102 530 OFFCURVE",
"79 439 OFFCURVE",
"119 367 CURVE SMOOTH"
);
},
{
closed = 1;
nodes = (
"320 714 LINE",
"320 1000 LINE",
"220 1000 LINE",
"220 714 LINE"
);
},
{
closed = 1;
nodes = (
"279 68 LINE",
"136 316 LINE",
"145 321 LINE",
"288 73 LINE"
);
},
{
closed = 1;
nodes = (
"205 435 LINE",
"393 110 LINE",
"384 105 LINE",
"196 430 LINE"
);
},
{
closed = 1;
nodes = (
"247 352 LINE",
"355 539 LINE",
"364 534 LINE",
"256 347 LINE"
);
},
{
closed = 1;
nodes = (
"417 505 LINE",
"295 291 LINE",
"286 296 LINE",
"408 510 LINE"
);
}
);
width = 650;
}
);
rightKerningGroup = "straight-r";
},
{
glyphname = "alefMaksura-ar.fina.01.13";
layers = (
{
anchors = (
{
name = bottom;
position = "{420, -50}";
},
{
name = top;
position = "{60, 600}";
}
);
components = (
{
name = _zuluf150;
transform = "{0, 1, 1, 0, 130, 1000}";
}
);
layerId = "299DE00D-7BC2-4DFB-A399-2750234EE670";
paths = (
{
closed = 1;
nodes = (
"470 0 LINE",
"470 100 LINE",
"412 100 LINE",
"412 0 LINE"
);
},
{
closed = 1;
nodes = (
"140 371 LINE",
"135 380 LINE SMOOTH",
"122 404 OFFCURVE",
"128 437 OFFCURVE",
"153 448 CURVE SMOOTH",
"164 453 LINE",
"114 540 LINE",
"105 535 LINE SMOOTH",
"32 495 OFFCURVE",
"10 402 OFFCURVE",
"50 330 CURVE SMOOTH",
"55 321 LINE"
);
},
{
closed = 1;
nodes = (
"230 714 LINE",
"230 1000 LINE",
"130 1000 LINE",
"130 714 LINE"
);
},
{
closed = 1;
nodes = (
"106 430 LINE",
"55 321 LINE",
"62 309 LINE",
"103 237 LINE",
"133 186 LINE",
"182 101 LINE",
"198 73 LINE SMOOTH",
"218 39 OFFCURVE",
"220 26 OFFCURVE",
"220 13 CURVE SMOOTH",
"220 -34 OFFCURVE",
"182 -72 OFFCURVE",
"135 -72 CURVE SMOOTH",
"88 -72 OFFCURVE",
"50 -34 OFFCURVE",
"50 13 CURVE SMOOTH",
"50 28 OFFCURVE",
"50 42 OFFCURVE",
"67 71 CURVE SMOOTH",
"127 176 LINE",
"98 227 LINE",
"28 105 LINE SMOOTH",
"12 78 OFFCURVE",
"0 47 OFFCURVE",
"0 13 CURVE SMOOTH",
"0 -77 OFFCURVE",
"72 -150 OFFCURVE",
"162 -150 CURVE SMOOTH",
"252 -150 OFFCURVE",
"322 -77 OFFCURVE",
"322 13 CURVE SMOOTH",
"322 47 OFFCURVE",
"312 79 OFFCURVE",
"294 105 CURVE"
);
},
{
closed = 1;
nodes = (
"196 296 LINE",
"318 510 LINE SMOOTH",
"400 663 OFFCURVE",
"304 785 OFFCURVE",
"130 751 CURVE",
"130 700 LINE",
"272 732 OFFCURVE",
"336 649 OFFCURVE",
"274 534 CURVE SMOOTH",
"166 347 LINE"
);
},
{
closed = 1;
nodes = (
"184 398 LINE",
"241 497 LINE",
"181 600 LINE",
"161 577 OFFCURVE",
"139 554 OFFCURVE",
"105 535 CURVE"
);
},
{
closed = 1;
nodes = (
"412 0 LINE",
"470 100 LINE",
"282 426 LINE",
"225 326 LINE"
);
}
);
width = 470;
},
{
associatedMasterId = "299DE00D-7BC2-4DFB-A399-2750234EE670";
hints = (
{
origin = "{4, 1}";
scale = "{-1, -1}";
type = Corner;
name = _corner.150;
}
);
layerId = "87BBF1A0-2D8D-47D3-BC23-27E6F9E2E711";
name = "Oct 23 19, 23:53";
paths = (
{
closed = 1;
nodes = (
"600 0 LINE",
"600 100 LINE",
"350 100 LINE",
"350 0 LINE"
);
},
{
closed = 1;
nodes = (
"122 362 LINE",
"305 44 LINE SMOOTH",
"310 35 OFFCURVE",
"313 24 OFFCURVE",
"313 13 CURVE SMOOTH",
"313 -22 OFFCURVE",
"285 -50 OFFCURVE",
"250 -50 CURVE SMOOTH",
"215 -50 OFFCURVE",
"187 -22 OFFCURVE",
"187 13 CURVE SMOOTH",
"187 24 OFFCURVE",
"190 35 OFFCURVE",
"195 44 CURVE SMOOTH",
"392 388 LINE SMOOTH",
"443 476 OFFCURVE",
"502 645 OFFCURVE",
"502 841 CURVE SMOOTH",
"502 1060 OFFCURVE",
"386 1200 OFFCURVE",
"230 1200 CURVE SMOOTH",
"92 1200 OFFCURVE",
"0 1088 OFFCURVE",
"0 950 CURVE",
"16 1022 OFFCURVE",
"66 1111 OFFCURVE",
"188 1111 CURVE SMOOTH",
"327 1111 OFFCURVE",
"408 997 OFFCURVE",
"402 818 CURVE SMOOTH",
"397 679 OFFCURVE",
"363 532 OFFCURVE",
"287 402 CURVE SMOOTH",
"115 105 LINE",
"97 79 OFFCURVE",
"87 47 OFFCURVE",
"87 13 CURVE SMOOTH",
"87 -77 OFFCURVE",
"159 -150 OFFCURVE",
"249 -150 CURVE SMOOTH",
"339 -150 OFFCURVE",
"412 -77 OFFCURVE",
"412 13 CURVE SMOOTH",
"412 47 OFFCURVE",
"402 79 OFFCURVE",
"384 105 CURVE",
"196 430 LINE"
);
},
{
closed = 1;
nodes = (
"578 69 LINE",
"250 637 LINE",
"230 614 OFFCURVE",
"208 591 OFFCURVE",
"174 572 CURVE",
"477 44 LINE"
);
},
{
closed = 1;
nodes = (
"124 358 LINE",
"209 408 LINE",
"204 417 LINE SMOOTH",
"191 441 OFFCURVE",
"197 474 OFFCURVE",
"222 485 CURVE SMOOTH",
"233 490 LINE",
"183 577 LINE",
"174 572 LINE SMOOTH",
"102 530 OFFCURVE",
"79 439 OFFCURVE",
"119 367 CURVE SMOOTH"
);
},
{
closed = 1;
nodes = (
"320 714 LINE",
"320 1000 LINE",
"220 1000 LINE",
"220 714 LINE"
);
},
{
closed = 1;
nodes = (
"279 68 LINE",
"136 316 LINE",
"145 321 LINE",
"288 73 LINE"
);
},
{
closed = 1;
nodes = (
"205 435 LINE",
"393 110 LINE",
"384 105 LINE",
"196 430 LINE"
);
},
{
closed = 1;
nodes = (
"247 352 LINE",
"355 539 LINE",
"364 534 LINE",
"256 347 LINE"
);
},
{
closed = 1;
nodes = (
"417 505 LINE",
"295 291 LINE",
"286 296 LINE",
"408 510 LINE"
);
}
);
visible = 1;
width = 650;
}
);
rightKerningGroup = "straight-r";
},
{
glyphname = "kashida-ar";
layers = (
{
layerId = "299DE00D-7BC2-4DFB-A399-2750234EE670";
paths = (
{
closed = 1;
nodes = (
"-50 0 LINE",
"50 0 LINE",
"50 100 LINE",
"-50 100 LINE"
);
}
);
width = 50;
}
);
unicode = 0640;
},
{
glyphname = "alef_lam-ar.init.dlig";
layers = (
{
anchors = (
{
name = caret_1;
position = "{175, 0}";
}
);
components = (
{
alignment = -1;
name = "kashida-ar";
},
{
name = _deco.07;
transform = "{1, 0, 0, 1, 50, 380}";
},
{
name = _zuluf150;
transform = "{0, 1, 1, 0, 200, 1000}";
},
{
name = _zuluf150;
transform = "{0, 1, -1, 0, 150, 1000}";
}
);
layerId = "299DE00D-7BC2-4DFB-A399-2750234EE670";
paths = (
{
closed = 1;
nodes = (
"300 705 LINE",
"300 1000 LINE",
"200 1000 LINE",
"200 705 LINE"
);
},
{
closed = 1;
nodes = (
"150 0 LINE",
"150 395 LINE",
"50 395 LINE",
"50 0 LINE"
);
},
{
closed = 1;
nodes = (
"300 0 LINE",
"300 395 LINE",
"200 395 LINE",
"200 0 LINE"
);
},
{
closed = 1;
nodes = (
"150 705 LINE",
"150 1000 LINE",
"50 1000 LINE",
"50 705 LINE"
);
}
);
width = 300;
}
);
leftKerningGroup = "straight-l";
},
{
glyphname = "alef_lam-ar.init.dlig.01.01";
layers = (
{
anchors = (
{
name = caret_1;
position = "{175, 0}";
}
);
components = (
{
alignment = -1;
name = "kashida-ar";
},
{
name = _deco.07;
transform = "{1, 0, 0, 1, 50, 380}";
},
{
name = _zuluf150;
transform = "{0, 1, 1, 0, 200, 1000}";
},
{
name = _zuluf150;
transform = "{0, 1, -1, 0, 150, 1000}";
},
{
name = _zuluf100;
transform = "{1, 0, 0, 1, 300, 0}";
}
);
layerId = "299DE00D-7BC2-4DFB-A399-2750234EE670";
paths = (
{
closed = 1;
nodes = (
"300 705 LINE",
"300 1000 LINE",
"200 1000 LINE",
"200 705 LINE"
);
},
{
closed = 1;
nodes = (
"150 0 LINE",
"150 395 LINE",
"50 395 LINE",
"50 0 LINE"
);
},
{
closed = 1;
nodes = (
"300 0 LINE",
"300 395 LINE",
"200 395 LINE",
"200 0 LINE"
);
},
{
closed = 1;
nodes = (
"150 705 LINE",
"150 1000 LINE",
"50 1000 LINE",
"50 705 LINE"
);
}
);
width = 450;
}
);
leftKerningGroup = "alef-wide";
},
{
glyphname = "alef_lam-ar.init.dlig.01.02";
layers = (
{
anchors = (
{
name = caret_1;
position = "{175, 0}";
}
);
components = (
{
alignment = -1;
name = "kashida-ar";
},
{
name = _deco.07;
transform = "{1, 0, 0, 1, 50, 380}";
},
{
name = _zuluf150;
transform = "{0, 1, 1, 0, 200, 1000}";
},
{
name = _zuluf150;
transform = "{0, 1, -1, 0, 150, 1000}";
},
{
name = _zuluf100;
transform = "{1, 0, 0, 1, 350, 0}";
}
);
layerId = "299DE00D-7BC2-4DFB-A399-2750234EE670";
paths = (
{
closed = 1;
nodes = (
"300 705 LINE",
"300 1000 LINE",
"200 1000 LINE",
"200 705 LINE"
);
},
{
closed = 1;
nodes = (
"150 0 LINE",
"150 395 LINE",
"50 395 LINE",
"50 0 LINE"
);
},
{
closed = 1;
nodes = (
"300 0 LINE",
"300 395 LINE",
"200 395 LINE",
"200 0 LINE"
);
},
{
closed = 1;
nodes = (
"150 705 LINE",
"150 1000 LINE",
"50 1000 LINE",
"50 705 LINE"
);
},
{
closed = 1;
nodes = (
"250 100 LINE",
"250 0 LINE",
"350 0 LINE",
"350 100 LINE"
);
}
);
width = 500;
}
);
leftKerningGroup = "alef-wide";
},
{
glyphname = "alef_lam-ar.init.dlig.01.03";
layers = (
{
anchors = (
{
name = caret_1;
position = "{175, 0}";
}
);
components = (
{
alignment = -1;
name = "kashida-ar";
},
{
name = _deco.07;
transform = "{1, 0, 0, 1, 50, 380}";
},
{
name = _zuluf150;
transform = "{0, 1, 1, 0, 200, 1000}";
},
{
name = _zuluf150;
transform = "{0, 1, -1, 0, 150, 1000}";
},
{
name = _zuluf100;
transform = "{1, 0, 0, 1, 400, 0}";
}
);
layerId = "299DE00D-7BC2-4DFB-A399-2750234EE670";
paths = (
{
closed = 1;
nodes = (
"300 705 LINE",
"300 1000 LINE",
"200 1000 LINE",
"200 705 LINE"
);
},
{
closed = 1;
nodes = (
"150 0 LINE",
"150 395 LINE",
"50 395 LINE",
"50 0 LINE"
);
},
{
closed = 1;
nodes = (
"300 0 LINE",
"300 395 LINE",
"200 395 LINE",
"200 0 LINE"
);
},
{
closed = 1;
nodes = (
"150 705 LINE",
"150 1000 LINE",
"50 1000 LINE",
"50 705 LINE"
);
},
{
closed = 1;
nodes = (
"250 100 LINE",
"250 0 LINE",
"400 0 LINE",
"400 100 LINE"
);
}
);
width = 550;
}
);
leftKerningGroup = "alef-wide";
},
{
glyphname = "alef_lam-ar.init.dlig.01.04";
layers = (
{
anchors = (
{
name = caret_1;
position = "{175, 0}";
}
);
components = (
{
alignment = -1;
name = "kashida-ar";
},
{
name = _deco.07;
transform = "{1, 0, 0, 1, 50, 380}";
},
{
name = _zuluf150;
transform = "{0, 1, 1, 0, 200, 1000}";
},
{
name = _zuluf150;
transform = "{0, 1, -1, 0, 150, 1000}";
},
{
name = _zuluf100;
transform = "{0, -1, 1, 0, 200, 0}";
},
{
name = _zuluf100;
transform = "{1, 0, 0, 1, 300, 0}";
}
);
layerId = "299DE00D-7BC2-4DFB-A399-2750234EE670";
paths = (
{
closed = 1;
nodes = (
"300 705 LINE",
"300 1000 LINE",
"200 1000 LINE",
"200 705 LINE"
);
},
{
closed = 1;
nodes = (
"150 0 LINE",
"150 395 LINE",
"50 395 LINE",
"50 0 LINE"
);
},
{
closed = 1;
nodes = (
"300 0 LINE",
"300 395 LINE",
"200 395 LINE",
"200 0 LINE"
);
},
{
closed = 1;
nodes = (
"150 705 LINE",
"150 1000 LINE",
"50 1000 LINE",
"50 705 LINE"
);
}
);
width = 450;
}
);
},
{
glyphname = "alef_lam-ar.init.dlig.01.05";
layers = (
{
anchors = (
{
name = caret_1;
position = "{175, 0}";
}
);
components = (
{
alignment = -1;
name = "kashida-ar";
},
{
name = _deco.07;
transform = "{1, 0, 0, 1, 50, 380}";
},
{
name = _zuluf150;
transform = "{0, 1, 1, 0, 200, 1000}";
},
{
name = _zuluf150;
transform = "{0, 1, -1, 0, 150, 1000}";
},
{
name = _zuluf100;
transform = "{1, 0, 0, 1, 300, 0}";
}
);
layerId = "299DE00D-7BC2-4DFB-A399-2750234EE670";
paths = (
{
closed = 1;
nodes = (
"300 705 LINE",
"300 1000 LINE",
"200 1000 LINE",
"200 705 LINE"
);
},
{
closed = 1;
nodes = (
"150 0 LINE",
"150 395 LINE",
"50 395 LINE",
"50 0 LINE"
);
},
{
closed = 1;
nodes = (
"300 0 LINE",
"300 395 LINE",
"200 395 LINE",
"200 0 LINE"
);
},
{
closed = 1;
nodes = (
"150 705 LINE",
"150 1000 LINE",
"50 1000 LINE",
"50 705 LINE"
);
},
{
closed = 1;
nodes = (
"200 50 LINE",
"200 -150 LINE",
"250 -150 OFFCURVE",
"300 -50 OFFCURVE",
"300 0 CURVE",
"300 50 LINE"
);
}
);
width = 450;
}
);
},
{
glyphname = "alef_lam-ar.init.dlig.02.00";
layers = (
{
anchors = (
{
name = caret_1;
position = "{175, 0}";
}
);
components = (
{
alignment = -1;
name = "kashida-ar";
},
{
name = _deco.15;
transform = "{1, 0, 0, 1, 50, 380}";
},
{
name = _zuluf150;
transform = "{0, 1, 1, 0, 200, 1000}";
},
{
name = _zuluf150;
transform = "{0, 1, -1, 0, 150, 1000}";
}
);
layerId = "299DE00D-7BC2-4DFB-A399-2750234EE670";
paths = (
{
closed = 1;
nodes = (
"300 705 LINE",
"300 1000 LINE",
"200 1000 LINE",
"200 705 LINE"
);
},
{
closed = 1;
nodes = (
"150 0 LINE",
"150 395 LINE",
"50 395 LINE",
"50 0 LINE"
);
},
{
closed = 1;
nodes = (
"300 0 LINE",
"300 395 LINE",
"200 395 LINE",
"200 0 LINE"
);
},
{
closed = 1;
nodes = (
"150 705 LINE",
"150 1000 LINE",
"50 1000 LINE",
"50 705 LINE"
);
}
);
width = 300;
}
);
leftKerningGroup = "straight-l";
},
{
glyphname = "alef_lam-ar.init.dlig.02.01";
layers = (
{
anchors = (
{
name = caret_1;
position = "{175, 0}";
}
);
components = (
{
alignment = -1;
name = "kashida-ar";
},
{
name = _deco.15;
transform = "{1, 0, 0, 1, 50, 380}";
},
{
name = _zuluf150;
transform = "{0, 1, 1, 0, 200, 1000}";
},
{
name = _zuluf150;
transform = "{0, 1, -1, 0, 150, 1000}";
},
{
name = _zuluf100;
transform = "{1, 0, 0, 1, 300, 0}";
}
);
layerId = "299DE00D-7BC2-4DFB-A399-2750234EE670";
paths = (
{
closed = 1;
nodes = (
"300 705 LINE",
"300 1000 LINE",
"200 1000 LINE",
"200 705 LINE"
);
},
{
closed = 1;
nodes = (
"150 0 LINE",
"150 395 LINE",
"50 395 LINE",
"50 0 LINE"
);
},
{
closed = 1;
nodes = (
"300 0 LINE",
"300 395 LINE",
"200 395 LINE",
"200 0 LINE"
);
},
{
closed = 1;
nodes = (
"150 705 LINE",
"150 1000 LINE",
"50 1000 LINE",
"50 705 LINE"
);
}
);
width = 450;
}
);
leftKerningGroup = "alef-wide";
},
{
glyphname = "alef_lam-ar.init.dlig.02.02";
layers = (
{
anchors = (
{
name = caret_1;
position = "{175, 0}";
}
);
components = (
{
alignment = -1;
name = "kashida-ar";
},
{
name = _deco.15;
transform = "{1, 0, 0, 1, 50, 380}";
},
{
name = _zuluf150;
transform = "{0, 1, 1, 0, 200, 1000}";
},
{
name = _zuluf150;
transform = "{0, 1, -1, 0, 150, 1000}";
},
{
name = _zuluf100;
transform = "{1, 0, 0, 1, 350, 0}";
}
);
layerId = "299DE00D-7BC2-4DFB-A399-2750234EE670";
paths = (
{
closed = 1;
nodes = (
"300 705 LINE",
"300 1000 LINE",
"200 1000 LINE",
"200 705 LINE"
);
},
{
closed = 1;
nodes = (
"150 0 LINE",
"150 395 LINE",
"50 395 LINE",
"50 0 LINE"
);
},
{
closed = 1;
nodes = (
"300 0 LINE",
"300 395 LINE",
"200 395 LINE",
"200 0 LINE"
);
},
{
closed = 1;
nodes = (
"150 705 LINE",
"150 1000 LINE",
"50 1000 LINE",
"50 705 LINE"
);
},
{
closed = 1;
nodes = (
"250 100 LINE",
"250 0 LINE",
"350 0 LINE",
"350 100 LINE"
);
}
);
width = 500;
}
);
leftKerningGroup = "alef-wide";
},
